<svg width="315" height="291" viewBox="0 0 315 291" fill="none" xmlns="http://www.w3.org/2000/svg">
<path d="M132.693 289.214C132.693 289.214 186.561 297.867 228.807 260.011C271.052 222.156 282.674 160.612 293.394 111.047C304.114 61.4818 281.334 17.3776 239.23 3.24405C197.126 -10.8895 178.918 25.0538 126.983 36.4064C75.0478 47.759 59.2511 42.8032 22.749 81.0358C-13.7532 119.268 -5.34308 191.761 40.9091 237.872C87.1613 283.982 132.693 289.214 132.693 289.214Z" fill="#6EE5FF"/>
<path opacity="0.7" d="M132.693 289.214C132.693 289.214 186.561 297.867 228.807 260.011C271.052 222.156 282.674 160.612 293.394 111.047C304.114 61.4818 281.334 17.3776 239.23 3.24405C197.126 -10.8895 178.918 25.0538 126.983 36.4064C75.0478 47.759 59.2511 42.8032 22.749 81.0358C-13.7532 119.268 -5.34308 191.761 40.9091 237.872C87.1613 283.982 132.693 289.214 132.693 289.214Z" fill="white"/>
<path d="M150.247 270.361C222.392 270.361 280.876 265.99 280.876 260.598C280.876 255.205 222.392 250.834 150.247 250.834C78.1025 250.834 19.6178 255.205 19.6178 260.598C19.6178 265.99 78.1025 270.361 150.247 270.361Z" fill="#263238"/>
<path d="M78.9937 79.4943C79.089 79.0352 79.2218 78.5848 79.3909 78.1476C80.3941 75.8589 82.0292 73.9038 84.1044 72.5117C85.8079 71.4141 87.1344 71.4478 88.7774 72.6463C90.5554 73.9792 91.9492 75.7587 92.8175 77.8042C93.2484 78.7671 93.4908 79.8242 92.5683 80.6861C91.6458 81.548 90.5483 81.9722 89.3834 81.4402C87.7935 80.7297 85.993 80.6503 84.3468 81.218C83.2255 81.5991 82.0283 81.7007 80.8588 81.5143C79.6737 81.2517 79.0408 80.5986 78.9937 79.4943Z" fill="#263238"/>
<path d="M93.2551 64.5395C93.2484 65.4017 93.0547 66.2521 92.6873 67.0322C92.32 67.8123 91.7877 68.5033 91.1273 69.0576C90.8742 69.3021 90.5632 69.4785 90.2234 69.5701C89.8837 69.6617 89.5262 69.6657 89.1845 69.5816C88.8428 69.4975 88.528 69.3282 88.2695 69.0893C88.0111 68.8505 87.8174 68.55 87.7067 68.2159C86.9795 66.4787 87.4373 64.8492 88.4204 63.3678C88.7436 62.8753 89.1544 62.4462 89.6325 62.102C89.8944 61.8651 90.2138 61.701 90.5589 61.6261C90.904 61.5511 91.2628 61.568 91.5993 61.675C91.9359 61.7819 92.2385 61.9753 92.4771 62.2357C92.7156 62.4961 92.8817 62.8145 92.9588 63.1591C93.0893 63.6118 93.1883 64.0731 93.2551 64.5395Z" fill="#263238"/>
<path d="M86.2322 65.8996C86.3132 66.8777 86.0249 67.8506 85.4241 68.6267C85.1391 69.0279 84.7089 69.3022 84.2249 69.3914C83.7409 69.4807 83.2412 69.3779 82.8318 69.1048C80.576 67.8321 79.9296 63.7786 81.6669 61.8595C81.9364 61.5436 82.3071 61.3307 82.7158 61.257C83.1246 61.1834 83.5462 61.2535 83.9091 61.4555C85.6733 62.405 86.1581 64.0412 86.2322 65.8996Z" fill="#263238"/>
<path d="M91.4236 73.0167C91.4935 72.1157 91.7973 71.2485 92.3052 70.501C92.813 69.7534 93.5071 69.1514 94.319 68.7544C94.5858 68.639 94.8734 68.5797 95.1641 68.5801C95.4548 68.5805 95.7423 68.6407 96.0088 68.7569C96.2752 68.873 96.515 69.0427 96.7131 69.2555C96.9112 69.4682 97.0635 69.7193 97.1605 69.9933C98.0089 72.1077 96.3861 75.1512 94.1439 75.6495C93.6676 75.7638 93.1661 75.7011 92.7325 75.4732C92.299 75.2453 91.963 74.8676 91.7872 74.4105C91.6353 73.9545 91.5138 73.4888 91.4236 73.0167Z" fill="#263238"/>
<path d="M75.6403 70.0349C75.6336 69.9295 75.6336 69.8238 75.6403 69.7184C75.7346 68.7623 75.9837 67.8533 76.9533 67.4358C77.4051 67.2544 77.8997 67.2074 78.3776 67.3006C78.8554 67.3938 79.2962 67.6231 79.6467 67.961C80.2731 68.4508 80.7635 69.0929 81.0712 69.8261C81.3789 70.5593 81.4935 71.3591 81.4041 72.1492C81.4093 72.5751 81.2919 72.9935 81.0659 73.3546C80.84 73.7156 80.5151 74.0042 80.1298 74.1858C79.7446 74.3674 79.3152 74.4345 78.8929 74.3791C78.4706 74.3236 78.0732 74.1479 77.7479 73.873C77.1216 73.4419 76.6049 72.8703 76.2389 72.2039C75.873 71.5375 75.668 70.7947 75.6403 70.0349Z" fill="#263238"/>
<path d="M67.0349 102.449C67.8093 102.449 68.5634 102.449 69.1156 102.49L70.2603 108.206C70.2735 108.347 70.335 108.479 70.4344 108.58C70.5338 108.68 70.665 108.744 70.8057 108.758C71.1491 108.758 71.4386 108.375 71.2905 107.782C70.1727 103.587 68.3008 94.2815 67.6544 90.127C67.5467 89.4536 67.2235 89.1641 66.8733 89.1641C66.5232 89.1641 66.1596 89.4873 66.0451 90.1C65.163 94.6182 63.2103 105.358 62.4831 107.829C62.4501 107.925 62.4393 108.028 62.4516 108.129C62.4638 108.23 62.4988 108.327 62.5539 108.412C62.609 108.498 62.6827 108.57 62.7696 108.623C62.8565 108.676 62.9542 108.708 63.0555 108.718C63.2979 108.718 63.5537 108.53 63.6278 108.105C63.8769 106.59 64.2271 104.631 64.6244 102.496C65.264 102.463 66.1596 102.449 67.0349 102.449ZM66.8329 90.834C67.311 93.4398 68.1392 97.6078 68.8934 101.392C68.3547 101.392 67.641 101.426 66.8733 101.426C66.1057 101.426 65.3785 101.426 64.8062 101.379C65.4997 97.8368 66.2471 93.9448 66.8329 90.834Z" fill="#263238"/>
<path d="M75.8829 89.1367C75.3115 89.1486 74.742 89.2049 74.1793 89.3051C73.7215 89.3657 73.506 89.6754 73.506 90.2208C73.7551 94.2205 73.7686 106.448 73.7686 107.889C73.7686 108.361 73.8426 108.684 74.2669 108.684C78.2665 108.684 81.6737 103.802 81.6737 97.0351C81.6602 92.086 79.8354 89.1367 75.8829 89.1367ZM74.8661 107.539C74.8055 105.607 74.7045 99.8901 74.7045 95.2574C74.7045 93.3249 74.7517 91.3722 74.7988 90.4228C75.2242 90.2929 75.6671 90.2293 76.1118 90.2343C78.2665 90.2343 80.5694 91.8772 80.5694 97.1563C80.5694 103.331 77.5326 107.411 74.8661 107.539Z" fill="#263238"/>
<path d="M88.1983 89.043C85.2625 89.043 83.532 93.5746 83.532 98.6584C83.532 105.392 84.8787 108.927 87.9222 108.927C90.9657 108.927 92.7164 105.237 92.6962 98.6584C92.676 92.6386 91.2889 89.043 88.1983 89.043ZM88.0299 107.769C86.2927 107.769 84.5689 106.025 84.5689 98.9344C84.5689 94.6452 85.8685 90.1001 88.2185 90.1001C90.8109 90.1001 91.666 94.6317 91.666 98.8065C91.666 105.762 89.8749 107.769 88.0299 107.769Z" fill="#263238"/>
<path d="M98.8909 89.2305C97.9277 89.2572 96.9722 89.4111 96.0494 89.6883C95.807 89.7624 95.2818 89.722 95.3222 90.5772C95.4501 92.9473 95.5578 93.5736 95.5578 98.0782C95.5578 100.772 95.5578 106.071 95.5578 107.902C95.5578 108.394 95.8406 108.643 96.11 108.643C96.3793 108.643 96.7295 108.38 96.716 107.842C96.6688 105.936 96.6284 104.475 96.5948 103.377C99.7258 101.438 102.776 98.3678 102.776 93.9506C102.79 90.7388 101.221 89.2305 98.8909 89.2305ZM96.5678 102.233C96.4668 99.1758 96.4466 99.4855 96.4466 98.1052C96.4466 96.4757 96.4466 93.0214 96.5207 90.759C97.2767 90.4013 98.1017 90.2129 98.938 90.2068C100.561 90.2742 101.793 91.4458 101.793 94.0382C101.793 98.5294 98.6283 100.98 96.5678 102.199V102.233Z" fill="#263238"/>
<path d="M110.405 89.117C108.008 89.1843 107.712 89.2113 106.507 89.2113C105.301 89.2113 105.396 89.2113 103.719 89.1035C103.54 89.1035 103.369 89.1745 103.243 89.3007C103.117 89.427 103.046 89.5983 103.046 89.7769C103.046 89.861 103.064 89.9441 103.099 90.0205C103.134 90.0968 103.186 90.1646 103.25 90.2191C103.314 90.2735 103.389 90.3134 103.47 90.3359C103.551 90.3583 103.636 90.3629 103.719 90.3492C104.911 90.2617 105.652 90.1876 106.5 90.1943C106.554 91.3727 106.574 93.1638 106.574 94.8135C106.574 98.7795 106.466 102.301 106.466 106.294C106.466 106.833 106.466 107.365 106.466 107.87C106.457 107.958 106.465 108.048 106.491 108.133C106.516 108.218 106.558 108.298 106.615 108.366C106.671 108.435 106.741 108.492 106.819 108.534C106.898 108.576 106.984 108.602 107.072 108.61C107.369 108.61 107.645 108.348 107.638 107.809C107.584 104.887 107.537 102.119 107.537 98.1802C107.537 95.1973 107.537 92.0124 107.624 90.1943C108.473 90.1943 109.119 90.2347 110.459 90.2819C110.904 90.2819 111.133 90.0395 111.133 89.7634C111.129 89.6725 111.108 89.5833 111.069 89.5011C111.03 89.4188 110.975 89.3453 110.907 89.2849C110.839 89.2245 110.76 89.1785 110.673 89.1496C110.587 89.1207 110.496 89.1097 110.405 89.117Z" fill="#263238"/>
<path d="M45.3398 118.676C44.7662 118.688 44.1944 118.744 43.6295 118.844C43.1784 118.905 42.9562 119.214 42.9562 119.753C43.2053 123.76 43.212 135.988 43.212 137.428C43.212 137.893 43.2928 138.223 43.7103 138.223C47.7504 138.223 51.1171 133.341 51.1171 126.574C51.1171 121.618 49.2856 118.676 45.3398 118.676ZM44.3231 137.072C44.2557 135.139 44.1615 129.422 44.1615 124.79C44.1615 122.857 44.2019 120.911 44.249 119.955C44.6861 119.826 45.1399 119.762 45.5957 119.767C47.7437 119.767 50.0532 121.416 50.0532 126.695C50.0263 132.87 46.9828 136.944 44.3231 137.072Z" fill="#263238"/>
<path d="M57.6485 118.582C54.7194 118.582 52.9889 123.114 52.9889 128.197C52.9889 134.931 54.3356 138.459 57.3791 138.459C60.4226 138.459 62.1733 134.769 62.1464 128.197C62.1262 122.171 60.7458 118.582 57.6485 118.582ZM57.4868 137.308C55.7429 137.308 54.0258 135.564 54.0258 128.473C54.0258 124.178 55.3254 119.639 57.6687 119.639C60.2678 119.639 61.1229 124.171 61.1229 128.339C61.1229 135.301 59.2982 137.308 57.4868 137.308Z" fill="#263238"/>
<path d="M73.0614 119.351C73.0614 118.846 72.7853 118.59 72.4689 118.59C72.1524 118.59 71.8763 118.846 71.8763 119.351C72.0918 125.593 72.0918 132.326 72.2736 136.366C71.0616 132.865 67.3784 122.394 66.4088 119.23C66.3684 119.061 66.273 118.91 66.1377 118.802C66.0024 118.693 65.8348 118.633 65.6613 118.63C65.5471 118.633 65.4347 118.66 65.3313 118.709C65.2278 118.757 65.1356 118.827 65.0603 118.913C64.985 118.999 64.9284 119.099 64.8939 119.208C64.8595 119.317 64.8479 119.432 64.8601 119.546C64.8601 121.337 64.8601 123.916 64.8601 126.697C64.8601 131.289 64.8601 134.777 64.7523 137.417C64.7523 137.949 65.0419 138.211 65.3449 138.211C65.6479 138.211 65.9105 137.969 65.9105 137.477C65.9105 135.343 65.796 128.225 65.7623 120.677C67.7352 127.054 69.7486 131.538 71.607 137.585C71.6426 137.741 71.7271 137.881 71.8483 137.985C71.9695 138.09 72.1209 138.152 72.2803 138.164C72.3862 138.161 72.4903 138.136 72.5864 138.091C72.6825 138.047 72.7687 137.983 72.8397 137.905C72.9107 137.826 72.9652 137.734 72.9998 137.634C73.0344 137.534 73.0485 137.428 73.0412 137.322C72.9739 135.363 72.9537 132.319 72.9537 129.114C73.0008 124.919 73.0412 121.99 73.0614 119.351Z" fill="#263238"/>
<path d="M76.8457 116.259C76.7225 116.253 76.5995 116.274 76.4853 116.321C76.371 116.367 76.2684 116.438 76.1844 116.529C76.1004 116.619 76.0371 116.727 75.999 116.844C75.9609 116.961 75.9488 117.086 75.9637 117.208C75.9637 117.774 76.5023 118.124 76.7515 118.016C76.7418 118.509 76.6 118.991 76.3407 119.41C76.2306 119.527 76.1661 119.68 76.1589 119.841C76.151 119.914 76.1689 119.988 76.2095 120.049C76.25 120.111 76.3107 120.156 76.3811 120.178C76.5764 120.225 76.8255 120.036 77.0545 119.646C77.4703 118.938 77.7018 118.137 77.7278 117.316C77.7485 117.059 77.6677 116.805 77.5028 116.607C77.3378 116.409 77.1019 116.284 76.8457 116.259Z" fill="#263238"/>
<path d="M86.3668 118.65C83.9764 118.724 83.6734 118.744 82.4748 118.744C81.2763 118.744 81.3571 118.744 79.6804 118.637C79.5018 118.637 79.3306 118.708 79.2043 118.834C79.078 118.96 79.0071 119.131 79.0071 119.31C79.0071 119.394 79.0253 119.478 79.0605 119.554C79.0957 119.631 79.147 119.699 79.2109 119.754C79.2748 119.809 79.3499 119.85 79.4309 119.873C79.5119 119.896 79.5971 119.902 79.6804 119.889C80.879 119.802 81.6197 119.721 82.4613 119.734C82.5219 120.913 82.5354 122.697 82.5354 124.347C82.5354 128.319 82.4277 131.841 82.4277 135.794C82.4277 136.339 82.4277 136.864 82.4277 137.369C82.4174 137.458 82.4251 137.548 82.4501 137.634C82.4752 137.721 82.5171 137.801 82.5736 137.87C82.63 137.94 82.6998 137.998 82.7788 138.04C82.8578 138.082 82.9445 138.108 83.0337 138.117C83.3232 138.117 83.606 137.854 83.5926 137.309C83.5387 134.386 83.4983 131.626 83.4983 127.68C83.4983 124.704 83.4983 121.519 83.5858 119.694C84.4275 119.694 85.0807 119.741 86.4206 119.781C86.865 119.781 87.094 119.546 87.094 119.27C87.0872 119.181 87.0629 119.095 87.0227 119.016C86.9824 118.937 86.9268 118.866 86.8592 118.809C86.7917 118.751 86.7133 118.707 86.6288 118.68C86.5443 118.653 86.4552 118.643 86.3668 118.65Z" fill="#263238"/>
<path d="M93.4502 122.702C93.4502 120.588 94.5545 119.537 95.8406 119.537C96.129 119.539 96.4138 119.601 96.6774 119.717C96.9411 119.834 97.1778 120.004 97.373 120.216C97.5682 120.428 97.7176 120.678 97.8119 120.951C97.9062 121.223 97.9435 121.512 97.9213 121.8C97.9076 122.215 97.8671 122.629 97.8001 123.039C97.7058 123.652 97.9751 123.961 98.2781 123.961C98.5811 123.961 98.9044 123.652 98.9515 122.998C98.9515 122.857 98.9515 122.716 98.9515 122.581C99.066 119.733 97.524 118.467 95.9214 118.467C93.9014 118.467 92.3392 120.164 92.3392 122.776C92.3392 128.426 98.13 128.567 98.13 133.738C98.13 136.102 97.1335 137.442 95.5444 137.442C94.0697 137.442 93.053 136.209 93.053 133.967C93.053 133.112 92.9789 132.668 92.4806 132.668C92.218 132.668 91.9352 132.91 91.8813 133.449C91.8813 133.664 91.8813 133.866 91.8813 134.075C91.8813 136.378 93.228 138.546 95.4366 138.546C97.6452 138.546 99.2276 136.647 99.2276 133.651C99.2208 127.921 93.4502 128.096 93.4502 122.702Z" fill="#263238"/>
<path d="M108.91 118.697C108.822 118.707 108.737 118.735 108.66 118.778C108.582 118.821 108.514 118.879 108.459 118.948C108.404 119.017 108.363 119.097 108.339 119.182C108.315 119.267 108.308 119.357 108.318 119.445C108.318 122.475 108.358 123.532 108.358 125.922C108.358 127.215 108.358 128.407 108.358 129.525C107.853 129.585 106.695 129.639 105.564 129.639C104.765 129.655 103.966 129.612 103.174 129.511V127.572C103.174 123.626 103.174 121.465 103.268 119.492C103.287 119.402 103.286 119.308 103.264 119.218C103.243 119.129 103.201 119.045 103.143 118.973C103.085 118.902 103.012 118.844 102.928 118.804C102.845 118.764 102.754 118.744 102.662 118.744C102.57 118.744 102.478 118.764 102.395 118.804C102.312 118.844 102.239 118.902 102.181 118.973C102.122 119.045 102.081 119.129 102.06 119.218C102.038 119.308 102.037 119.402 102.056 119.492C102.19 121.465 102.211 123.141 102.211 126.643C102.211 130.683 102.164 134.864 102.089 137.416C102.089 137.908 102.352 138.157 102.642 138.157C102.931 138.157 103.261 137.881 103.248 137.356C103.248 135.551 103.194 133.161 103.18 130.622C103.968 130.543 104.759 130.51 105.55 130.521C106.635 130.521 107.752 130.568 108.358 130.622C108.358 133.527 108.338 135.789 108.298 137.41C108.298 137.915 108.56 138.164 108.83 138.164C109.099 138.164 109.402 137.915 109.382 137.396C109.308 136.049 109.308 134.171 109.308 132.104C109.308 127.188 109.402 122.744 109.476 119.411C109.483 118.94 109.193 118.697 108.91 118.697Z" fill="#263238"/>
<path d="M116.741 118.582C113.806 118.582 112.075 123.114 112.075 128.197C112.075 134.931 113.422 138.459 116.472 138.459C119.522 138.459 121.26 134.769 121.239 128.197C121.246 122.171 119.832 118.582 116.741 118.582ZM116.58 137.308C114.836 137.308 113.119 135.564 113.119 128.473C113.119 124.178 114.412 119.639 116.762 119.639C119.361 119.639 120.216 124.171 120.216 128.339C120.216 135.301 118.418 137.308 116.58 137.308Z" fill="#263238"/>
<path d="M131.346 123.436C131.346 120.271 129.777 118.723 127.454 118.723C126.489 118.746 125.53 118.9 124.606 119.181C124.37 119.248 123.838 119.214 123.879 120.069C124.014 122.433 124.121 123.059 124.121 127.57C124.121 130.264 124.121 135.563 124.121 137.388C124.121 137.879 124.404 138.135 124.673 138.135C124.943 138.135 125.293 137.873 125.279 137.327C125.232 135.428 125.192 133.96 125.158 132.863C128.289 130.937 131.346 127.867 131.346 123.436ZM125.131 131.732C125.03 128.681 125.003 128.984 125.003 127.604C125.003 125.975 125.003 122.527 125.084 120.258C125.84 119.907 126.661 119.718 127.495 119.706C129.118 119.78 130.35 120.945 130.35 123.544C130.336 128.062 127.178 130.513 125.118 131.732H125.131Z" fill="#263238"/>
<path d="M301.104 237.367C301.104 237.367 305.036 238.29 306.881 241.293C308.726 244.296 310.349 248.026 313.352 248.026C316.355 248.026 308.268 249.871 302.491 247.791C296.714 245.71 287.24 244.33 287.24 244.33C287.24 244.33 293.475 237.818 301.104 237.367Z" fill="#242424" stroke="#263238" stroke-linecap="round" stroke-linejoin="round"/>
<path d="M270.365 250.988C270.365 250.988 278.446 255.149 284.923 252.604C291.401 250.059 291.657 243.13 295.097 240.356C298.538 237.582 301.104 237.353 301.104 237.353C301.104 237.353 284.694 239.433 276.607 237.353C271.213 236.055 266.16 233.611 261.794 230.188C259.713 228.572 257.861 227.414 257.861 227.414C257.861 227.414 257.188 234.821 260.636 241.514C262.82 245.603 266.22 248.913 270.365 250.988Z" fill="#919191" stroke="#263238" stroke-linecap="round" stroke-linejoin="round"/>
<path d="M284.923 252.606C291.394 250.067 291.657 243.132 295.098 240.358C298.283 237.806 300.686 237.408 301.05 237.361C300.484 237.429 295.401 238.035 289.65 238.223C286.91 241.59 284.661 246.047 280.499 248.889C273.766 253.495 265.504 247.354 265.504 247.354L265.349 247.542C266.848 248.926 268.537 250.087 270.366 250.99C270.366 250.99 278.452 255.151 284.923 252.606Z" fill="#0077B6" stroke="#263238" stroke-linecap="round" stroke-linejoin="round"/>
<path d="M240.779 134.965C240.779 134.965 248.185 151.604 248.185 175.871C248.185 200.138 262.05 230.648 263.901 237.146C265.753 243.643 271.759 251.01 271.759 251.01C271.759 251.01 256.272 249.394 247.027 244.539C237.782 239.684 224.989 236.189 224.989 222.554C224.989 208.919 224.14 169.636 221.366 151.604C218.592 133.571 225.527 128.265 231.076 129.188C236.624 130.11 240.779 134.965 240.779 134.965Z" fill="#242424" stroke="#263238" stroke-linecap="round" stroke-linejoin="round"/>
<path d="M150.644 213.087C150.644 213.087 151.318 218.635 157.809 218.635C164.3 218.635 167.034 209.154 167.747 207.538C168.461 205.922 151.547 211.464 150.644 213.087Z" fill="#242424" stroke="#263238" stroke-linecap="round" stroke-linejoin="round"/>
<path d="M195.711 54.3048C195.711 54.3048 183.921 52.2241 176.063 63.5498C168.205 74.8755 165.896 86.4436 169.33 93.5945C172.764 100.745 170.488 104.456 165.168 106.072C159.849 107.688 148.53 102.146 141.601 113.236C134.673 124.326 139.056 131.726 142.988 137.275C146.921 142.823 138.134 143.745 132.585 151.374C127.037 159.003 131.198 186.503 160.091 181.19C188.985 175.878 190.392 163.165 192.217 151.374C194.042 139.584 203.078 130.11 213.016 130.575C222.955 131.039 231.278 126.878 230.584 116.01C229.891 105.142 221.568 103.991 222.033 97.5202C222.497 91.0493 228.274 85.272 223.884 72.7949C219.494 60.3177 205.65 52.9177 195.711 54.3048Z" fill="#263238" stroke="#263238" stroke-linecap="round" stroke-linejoin="round"/>
<path d="M209.791 104.994C209.791 104.994 210.714 117.215 211.865 118.825C213.016 120.434 218.093 122.979 225.238 125.282C232.382 127.585 236.072 139.113 233.54 152.027C231.008 164.942 225.46 180.84 226.133 184.072C226.807 187.304 236.274 197.209 233.54 211.006C230.806 224.803 229.655 222.796 229.655 222.796C229.655 222.796 233.574 220.493 236.334 222.567C239.095 224.641 241.869 225.799 245.559 225.335C249.249 224.87 253.639 225.799 257.545 230.87C261.45 235.94 263.309 241.704 268.379 244.471C273.449 247.239 292.357 249.541 292.357 250.693C292.357 251.844 283.139 257.608 272.534 260.376C261.928 263.143 239.082 263.628 224.78 264.066C210.478 264.503 197.577 266.139 183.281 267.062C168.986 267.984 167.121 267.735 155.385 262.45C143.648 257.164 139.224 255.763 137.635 247.239C136.046 238.714 142.349 232.425 148.469 226.486C154.105 221.039 174.73 197.903 177.289 192.145C179.847 186.388 181.894 181.769 183.053 178.544C184.211 175.318 178.669 160.794 175.902 150.876C173.134 140.958 174.979 134.514 174.979 134.514C174.979 134.514 162.529 129.901 157.923 123.444C153.318 116.986 156.536 114.913 164.145 113.068C171.754 111.223 177.747 111.721 181.894 111.721C186.042 111.721 192.271 113.795 193.422 113.795C194.574 113.795 192.749 106.88 192.749 106.88C195.464 107.978 198.347 108.602 201.273 108.724C205.414 108.684 209.791 104.994 209.791 104.994Z" fill="#0077B6" stroke="#263238" stroke-linecap="round" stroke-linejoin="round"/>
<path d="M211.865 118.858C210.714 117.249 209.791 105.027 209.791 105.027C209.791 105.027 205.414 108.717 201.26 108.717C198.334 108.595 195.45 107.971 192.735 106.872C192.735 106.872 194.574 113.788 193.409 113.788C192.634 113.788 189.544 112.845 186.345 112.232C186.116 115.929 185.281 136.776 195.2 139.166C203.341 141.105 210.902 130.864 215.932 121.659C213.845 120.561 212.411 119.592 211.865 118.858Z" fill="#B2B2B2" stroke="#263238" stroke-linecap="round" stroke-linejoin="round"/>
<path d="M268.345 244.47C263.275 241.703 261.43 235.939 257.511 230.869C253.592 225.798 249.216 224.876 245.526 225.334C241.836 225.792 239.068 224.661 236.301 222.566C234.281 221.038 231.587 221.893 230.348 222.438C230.56 222.092 230.741 221.727 230.887 221.348L224.827 228.573C224.827 228.573 227.601 230.189 231.991 229.495C236.382 228.802 242.623 230.169 245.856 237.124C249.088 244.08 248.172 244.053 250.946 247.063C253.72 250.073 264.581 255.816 269.894 257.459C274.607 258.893 276.964 258.873 277.429 258.853C285.805 255.884 292.316 251.662 292.316 250.692C292.323 249.541 273.422 247.238 268.345 244.47Z" fill="white" stroke="#263238" stroke-linecap="round" stroke-linejoin="round"/>
<path d="M155.129 245.643C156.266 242.838 157.806 240.214 159.701 237.853C166.508 229.335 192.782 212.555 202.997 205.014" stroke="#263238" stroke-linecap="round" stroke-linejoin="round"/>
<path d="M153.136 254.874C153.153 253.27 153.352 251.673 153.728 250.113" stroke="#263238" stroke-linecap="round" stroke-linejoin="round"/>
<path d="M209.273 199.506C210.424 199.351 211.582 199.236 212.727 199.176" stroke="#263238" stroke-linecap="round" stroke-linejoin="round"/>
<path d="M183.78 208.414C190.081 205.008 196.771 202.376 203.704 200.576" stroke="#263238" stroke-linecap="round" stroke-linejoin="round"/>
<path d="M229.655 222.797C229.655 222.797 211.926 247.037 192.049 253.993" stroke="#263238" stroke-linecap="round" stroke-linejoin="round"/>
<path d="M207.879 244.773C207.879 244.773 203.569 251.662 198.021 255.594" stroke="#263238" stroke-linecap="round" stroke-linejoin="round"/>
<path d="M218.06 254.538C227.864 252.727 244.603 248.922 256.495 242.418" stroke="#263238" stroke-linecap="round" stroke-linejoin="round"/>
<path d="M210.04 255.844C210.04 255.844 211.421 255.662 213.764 255.285" stroke="#263238" stroke-linecap="round" stroke-linejoin="round"/>
<path d="M228.982 126.412C228.982 126.412 222.969 130.574 215.346 139.819C207.724 149.064 196.661 184.886 189.47 196.905C182.278 208.924 164.738 212.621 159.169 212.85C153.6 213.079 150.617 213.086 150.617 213.086C150.617 213.086 167.451 201.989 173.727 192.286C180.002 182.583 183.436 160.847 192.681 146.754C201.926 132.661 213.016 119.248 213.016 119.248C213.016 119.248 223.447 122.224 228.982 126.412Z" fill="#919191" stroke="#263238" stroke-linecap="round" stroke-linejoin="round"/>
<path d="M215.164 119.916C213.865 119.485 213.043 119.242 213.043 119.242C213.043 119.242 201.953 132.649 192.708 146.748C183.463 160.848 179.996 182.57 173.754 192.28C172.309 194.439 170.658 196.453 168.825 198.293C175.067 195.276 178.002 190.476 180.945 183.648C184.621 175.164 195.173 149.428 201.711 139.045C206.552 131.383 212.424 123.511 215.164 119.916Z" fill="#0077B6" stroke="#263238" stroke-linecap="round" stroke-linejoin="round"/>
<path d="M189.47 196.906C196.634 184.887 207.731 149.065 215.36 139.82C222.989 130.575 228.982 126.413 228.982 126.413C228.065 125.739 227.107 125.123 226.113 124.568C219.053 128.627 213.269 134.579 209.414 141.752C200.573 157.912 191.725 190.974 177.888 201.007C168.34 207.902 160.253 209.127 156.159 209.222C152.941 211.619 150.644 213.134 150.644 213.134C150.644 213.134 153.648 213.134 159.196 212.898C164.744 212.662 182.305 208.925 189.47 196.906Z" fill="#0077B6" stroke="#263238" stroke-linecap="round" stroke-linejoin="round"/>
<path d="M211.865 87.015C211.865 87.015 212.788 81.4801 215.326 82.4025C217.865 83.325 216.935 87.9374 216.249 90.2403C215.996 90.9543 215.6 91.6089 215.085 92.1637C214.569 92.7185 213.946 93.1616 213.252 93.4656L211.865 87.015Z" fill="#B2B2B2" stroke="#263238" stroke-linecap="round" stroke-linejoin="round"/>
<path d="M183.039 93.9774C183.039 93.9774 179.06 90.0249 177.538 92.2536C176.016 94.4824 179.457 97.6875 181.369 99.1554C181.992 99.5854 182.696 99.8827 183.439 100.029C184.182 100.175 184.946 100.166 185.685 100.004L183.039 93.9774Z" fill="#B2B2B2" stroke="#263238" stroke-linecap="round" stroke-linejoin="round"/>
<path d="M193.887 68.8027C193.887 68.8027 187.2 82.8622 180.049 89.5485C180.049 89.5485 184.662 101.076 187.2 105.918C189.739 110.759 198.728 114.449 203.361 114.449C207.993 114.449 212.585 106.84 213.737 102.921C214.888 99.0023 211.434 78.0074 211.434 78.0074C211.434 78.0074 197.112 73.4152 193.887 68.8027Z" fill="#B2B2B2" stroke="#263238" stroke-linecap="round" stroke-linejoin="round"/>
<path d="M203.166 89.7419C202.93 89.3382 202.786 88.8877 202.744 88.4222C202.702 87.9567 202.763 87.4877 202.923 87.0485C203.219 86.1437 203.806 85.3624 204.593 84.8264C205.356 84.3052 206.261 84.0324 207.185 84.0454C207.626 84.0538 208.064 84.1241 208.485 84.2541C208.915 84.4138 209.318 84.6411 209.677 84.9274V85.116C208.963 85.1658 208.255 85.2807 207.562 85.4594C206.878 85.6434 206.229 85.9416 205.643 86.3415C204.464 87.1501 203.641 88.3825 203.347 89.7823L203.166 89.7419Z" fill="#263238"/>
<path d="M185.887 90.9409C185.965 90.4761 186.143 90.0342 186.411 89.6466C186.679 89.2589 187.029 88.9353 187.436 88.6986C188.234 88.1813 189.182 87.9444 190.13 88.0253C191.051 88.1126 191.923 88.4817 192.628 89.0824C192.96 89.3699 193.251 89.7032 193.49 90.0722C193.717 90.4723 193.879 90.9066 193.968 91.3583L193.853 91.5065C193.269 91.0872 192.65 90.7199 192.001 90.4089C191.362 90.1202 190.68 89.936 189.981 89.8635C188.557 89.7317 187.137 90.1537 186.015 91.0419L185.887 90.9409Z" fill="#263238"/>
<path d="M185.126 86.3214C185.126 86.3214 185.584 81.9379 190.89 81.709" stroke="#263238" stroke-width="2" stroke-linecap="round" stroke-linejoin="round"/>
<path d="M199.651 79.4061C200.886 79.0243 202.193 78.9296 203.47 79.1291C204.748 79.3286 205.963 79.8172 207.024 80.5575" stroke="#263238" stroke-width="2" stroke-linecap="round" stroke-linejoin="round"/>
<path d="M197.577 97.6204C198.634 97.8798 199.714 98.0332 200.802 98.0782C202.182 98.0782 203.105 95.7754 203.105 95.7754" stroke="#263238" stroke-linecap="round" stroke-linejoin="round"/>
<path d="M197.577 101.305C197.577 101.305 202.647 103.15 205.414 98.5371" stroke="#263238" stroke-linecap="round" stroke-linejoin="round"/>
<path d="M195.988 77.9061C195.988 78.1112 195.927 78.3117 195.813 78.4822C195.699 78.6527 195.537 78.7856 195.347 78.8641C195.158 78.9426 194.949 78.9631 194.748 78.9231C194.547 78.8831 194.362 78.7844 194.217 78.6393C194.072 78.4943 193.974 78.3095 193.934 78.1084C193.894 77.9072 193.914 77.6987 193.993 77.5093C194.071 77.3198 194.204 77.1578 194.375 77.0439C194.545 76.93 194.746 76.8691 194.951 76.8691C195.087 76.8691 195.222 76.896 195.347 76.9481C195.473 77.0002 195.588 77.0766 195.684 77.1729C195.78 77.2691 195.857 77.3835 195.909 77.5093C195.961 77.6351 195.988 77.7699 195.988 77.9061Z" fill="#263238"/>
<path d="M212.707 149.67C212.707 149.67 213.293 141.307 217.178 142.667C221.063 144.027 218.343 152.969 217.178 155.111C216.013 157.252 212.512 153.198 212.707 149.67Z" fill="white" stroke="#263238" stroke-linecap="round" stroke-linejoin="round"/>
<path d="M192.877 120.703C196.262 123.495 198.986 127.005 200.849 130.978C202.689 135.364 204.248 139.862 205.515 144.445C205.515 144.445 210.182 143.859 215.818 150.472C221.454 157.084 221.938 167.723 219.124 173.803C214.262 184.301 198.519 182.159 190.742 181.574C182.965 180.988 178.885 175.163 175.383 166.996C171.882 158.828 173.828 141.725 174.993 137.059C176.158 132.392 176.339 128.702 174.993 124.036C173.646 119.37 183.356 114.286 192.877 120.703Z" fill="white" stroke="#263238" stroke-linecap="round" stroke-linejoin="round"/>
<path d="M212.316 152.587C212.316 152.587 215.818 147.921 217.568 148.89C219.319 149.86 220.679 155.112 220.679 155.112C220.679 155.112 221.649 147.705 224.76 147.921C227.871 148.136 227.453 154.526 225.346 162.499C223.238 170.471 219.71 168.916 219.124 166.774C218.807 165.587 218.418 164.42 217.959 163.28" fill="white"/>
<path d="M212.316 152.587C212.316 152.587 215.818 147.921 217.568 148.89C219.319 149.86 220.679 155.112 220.679 155.112C220.679 155.112 221.649 147.705 224.76 147.921C227.871 148.136 227.453 154.526 225.346 162.499C223.238 170.471 219.71 168.916 219.124 166.774C218.807 165.587 218.418 164.42 217.959 163.28" stroke="#263238" stroke-linecap="round" stroke-linejoin="round"/>
<path d="M175.605 143.772C175.605 143.772 177.625 145.287 185.706 145.853C193.786 146.418 199.529 141.537 199.206 144.102C197.859 154.876 180.07 155.185 174.568 147.927C173.525 146.566 173.451 143.819 175.605 143.772Z" fill="#263238" stroke="#263238" stroke-linecap="round" stroke-linejoin="round"/>
<path d="M175.996 154.163C175.996 154.163 178.016 155.678 186.096 156.243C194.176 156.809 199.92 151.927 199.603 154.493C198.257 165.266 180.46 165.576 174.966 158.317C173.915 156.97 173.841 154.223 175.996 154.163Z" fill="#263238" stroke="#263238" stroke-linecap="round" stroke-linejoin="round"/>
<path d="M178.548 166.282C178.548 166.282 180.655 167.629 188.742 167.629C196.829 167.629 202.209 162.323 202.081 164.895C201.522 175.729 183.8 177.352 177.787 170.511C176.676 169.232 176.4 166.498 178.548 166.282Z" fill="#263238" stroke="#263238" stroke-linecap="round" stroke-linejoin="round"/>
<path d="M187.907 176.146C187.907 176.146 190.23 177.096 198.176 175.581C206.121 174.066 210.444 167.884 210.788 170.443C212.229 181.217 195.105 186.051 187.941 180.436C186.608 179.392 185.833 176.766 187.907 176.146Z" fill="#263238" stroke="#263238" stroke-linecap="round" stroke-linejoin="round"/>
<path d="M227.776 147.186L228.45 178.766C228.45 178.766 209.084 180.611 202.862 179.688C196.641 178.766 194.109 177.614 194.109 177.614C192.831 175.691 191.675 173.69 190.648 171.622C189.497 169.083 188.574 169.083 186.729 166.78C184.884 164.477 183.733 162.861 183.733 165.393C183.733 167.925 185.12 168.625 185.578 169.548C185.893 170.434 186.05 171.368 186.042 172.309C186.042 172.309 180.507 170.928 178.891 170.235C177.275 169.541 175.895 168.625 175.666 169.777C175.437 170.928 175.666 171.622 176.588 173.696C177.511 175.77 176.588 179.459 177.511 181.304C178.433 183.149 181.888 185.681 183.504 186.375C185.12 187.068 192.729 186.604 195.26 186.833C197.792 187.062 211.172 189.6 219.467 191.216C227.763 192.832 236.759 193.984 239.297 192.596C241.836 191.209 243.216 190.294 243.674 187.991C244.132 185.688 244.825 162.168 244.825 155.711C244.825 149.253 244.596 140.5 242.752 136.345C241.69 134.186 240.171 132.285 238.3 130.773C236.429 129.261 234.251 128.176 231.917 127.592C227.534 126.669 228.988 126.42 228.988 126.42" fill="#B2B2B2"/>
<path d="M227.776 147.186L228.45 178.766C228.45 178.766 209.084 180.611 202.862 179.688C196.641 178.766 194.109 177.614 194.109 177.614C192.831 175.691 191.675 173.69 190.648 171.622C189.497 169.083 188.574 169.083 186.729 166.78C184.884 164.477 183.733 162.861 183.733 165.393C183.733 167.925 185.12 168.625 185.578 169.548C185.893 170.434 186.05 171.368 186.042 172.309C186.042 172.309 180.507 170.928 178.891 170.235C177.275 169.541 175.895 168.625 175.666 169.777C175.437 170.928 175.666 171.622 176.588 173.696C177.511 175.77 176.588 179.459 177.511 181.304C178.433 183.149 181.888 185.681 183.504 186.375C185.12 187.068 192.729 186.604 195.26 186.833C197.792 187.062 211.172 189.6 219.467 191.216C227.763 192.832 236.759 193.984 239.297 192.596C241.836 191.209 243.216 190.294 243.674 187.991C244.132 185.688 244.825 162.168 244.825 155.711C244.825 149.253 244.596 140.5 242.752 136.345C241.69 134.186 240.171 132.285 238.3 130.773C236.429 129.261 234.251 128.176 231.917 127.592C227.534 126.669 228.988 126.42 228.988 126.42" stroke="#263238" stroke-linecap="round" stroke-linejoin="round"/>
<path d="M226.288 143.598L228.086 161.152C230.941 159.94 237.378 157.617 243.943 158.108L244.819 158.189C244.819 157.213 244.819 156.371 244.819 155.711C244.819 149.261 244.59 140.5 242.745 136.346C241.684 134.187 240.164 132.286 238.293 130.774C236.422 129.262 234.244 128.176 231.911 127.592C231.237 127.458 229.217 127.41 228.793 127.303" fill="#0077B6"/>
<path d="M226.288 143.598L228.086 161.152C230.941 159.94 237.378 157.617 243.943 158.108L244.819 158.189C244.819 157.213 244.819 156.371 244.819 155.711C244.819 149.261 244.59 140.5 242.745 136.346C241.684 134.187 240.164 132.286 238.293 130.774C236.422 129.262 234.244 128.176 231.911 127.592C231.237 127.458 229.217 127.41 228.793 127.303" stroke="#263238" stroke-linecap="round" stroke-linejoin="round"/>
<path d="M198.728 192.004C198.219 192.004 197.73 191.805 197.366 191.449C197.002 191.092 196.793 190.608 196.782 190.099L196.553 177.884C196.533 177.62 196.568 177.355 196.654 177.105C196.74 176.855 196.877 176.625 197.055 176.429C197.233 176.233 197.449 176.076 197.69 175.967C197.931 175.857 198.192 175.798 198.457 175.793C198.721 175.788 198.984 175.837 199.229 175.937C199.474 176.037 199.696 176.186 199.882 176.375C200.067 176.564 200.212 176.788 200.308 177.035C200.404 177.282 200.448 177.546 200.438 177.81L200.667 190.025C200.673 190.28 200.628 190.534 200.535 190.771C200.442 191.009 200.303 191.226 200.126 191.41C199.949 191.594 199.737 191.741 199.503 191.843C199.269 191.945 199.017 192 198.762 192.004H198.728Z" fill="white" stroke="#263238" stroke-linecap="round" stroke-linejoin="round"/>
<path d="M161.378 113.982C161.378 113.982 144.086 116.063 142.935 120.669C141.783 125.274 148.005 134.041 161.378 138.176C174.75 142.31 195.496 145.583 198.035 146.256C200.573 146.929 200.109 151.097 200.109 151.097L199.435 160.78C199.435 160.78 196.21 170.207 196.903 170.463C197.597 170.719 198.513 169.789 199.671 167.002C200.719 164.752 201.951 162.592 203.354 160.544C203.354 160.544 204.741 160.086 204.741 162.16C204.741 164.234 202.896 172.766 202.896 172.766C202.896 172.766 204.048 174.382 204.741 172.537C205.435 170.692 208.66 163.11 208.66 163.11V173.021C208.66 173.021 209.582 173.695 210.276 173.486C210.97 173.277 212.094 161.278 212.094 161.278C212.438 161.772 212.826 162.234 213.252 162.659C213.926 163.332 214.862 172.577 214.862 172.577C214.862 172.577 216.02 173.25 216.478 172.112C216.935 170.974 215.804 161.972 215.555 159.433C215.306 156.895 210.02 146.296 208.64 143.758C207.259 141.219 203.57 138.916 199.651 137.765C197.213 137.051 173.39 125.544 162.994 118.629" fill="#B2B2B2"/>
<path d="M161.378 113.982C161.378 113.982 144.086 116.063 142.935 120.669C141.783 125.274 148.005 134.041 161.378 138.176C174.75 142.31 195.496 145.583 198.035 146.256C200.573 146.929 200.109 151.097 200.109 151.097L199.435 160.78C199.435 160.78 196.21 170.207 196.903 170.463C197.597 170.719 198.513 169.789 199.671 167.002C200.719 164.752 201.951 162.592 203.354 160.544C203.354 160.544 204.741 160.086 204.741 162.16C204.741 164.234 202.896 172.766 202.896 172.766C202.896 172.766 204.048 174.382 204.741 172.537C205.435 170.692 208.66 163.11 208.66 163.11V173.021C208.66 173.021 209.583 173.695 210.276 173.486C210.97 173.277 212.094 161.278 212.094 161.278C212.438 161.772 212.826 162.234 213.252 162.659C213.926 163.332 214.862 172.577 214.862 172.577C214.862 172.577 216.02 173.25 216.478 172.112C216.935 170.974 215.804 161.972 215.555 159.433C215.306 156.895 210.02 146.296 208.64 143.758C207.259 141.219 203.57 138.916 199.651 137.765C197.213 137.051 173.39 125.544 162.994 118.629" stroke="#263238" stroke-linecap="round" stroke-linejoin="round"/>
<path d="M197.577 150.049H197.381C196.869 149.996 196.398 149.743 196.071 149.344C195.744 148.945 195.588 148.434 195.637 147.921C196.506 139.006 201.832 136.831 204.566 136.952C205.064 136.992 205.527 137.223 205.859 137.595C206.192 137.967 206.369 138.453 206.353 138.952C206.338 139.451 206.131 139.925 205.776 140.276C205.42 140.627 204.944 140.828 204.445 140.837C203.987 140.837 200.209 141.08 199.509 148.305C199.461 148.783 199.236 149.227 198.879 149.549C198.522 149.871 198.058 150.049 197.577 150.049Z" fill="white" stroke="#263238" stroke-linecap="round" stroke-linejoin="round"/>
<path d="M180.285 128.743C176.131 128.743 167.141 128.07 165.296 125.282C163.451 122.495 165.97 118.825 165.97 118.825C165.97 118.825 163.431 114.219 164.354 111.681C165.276 109.142 173.35 111.007 173.35 111.007L182.776 108.011C182.776 108.011 187.234 104.045 189.732 104.045C192.23 104.045 191.119 110.273 191.119 110.273C191.119 110.273 195.496 111.196 196.654 115.344C197.812 119.491 194.345 122.488 192.735 124.097C191.126 125.706 189.968 125.942 189.968 125.942" fill="white"/>
<path d="M180.285 128.743C176.131 128.743 167.141 128.07 165.296 125.282C163.451 122.495 165.97 118.825 165.97 118.825C165.97 118.825 163.431 114.219 164.354 111.681C165.276 109.142 173.35 111.007 173.35 111.007L182.776 108.011C182.776 108.011 187.234 104.045 189.732 104.045C192.23 104.045 191.119 110.273 191.119 110.273C191.119 110.273 195.496 111.196 196.654 115.344C197.812 119.491 194.345 122.488 192.735 124.097C191.126 125.706 189.968 125.942 189.968 125.942" stroke="#263238" stroke-linecap="round" stroke-linejoin="round"/>
<path d="M183.867 121.128C183.867 121.128 180.851 121.633 181.1 122.387C181.349 123.141 182.608 123.646 183.867 123.141C185.126 122.636 185.281 120.878 183.867 121.128Z" fill="white" stroke="#263238" stroke-linecap="round" stroke-linejoin="round"/>
<path d="M179.47 119.571C179.652 120.386 179.437 121.12 178.999 121.221C178.561 121.322 178.056 120.736 177.874 119.921C177.693 119.107 177.874 118.366 178.346 118.272C178.817 118.178 179.295 118.757 179.47 119.571Z" fill="#263238"/>
<path d="M186.083 117.935C186.258 118.749 186.049 119.483 185.605 119.584C185.16 119.685 184.662 119.1 184.48 118.285C184.298 117.47 184.48 116.729 184.958 116.635C185.436 116.541 185.887 117.12 186.083 117.935Z" fill="#263238"/>
<path d="M183.531 123.746C183.66 124.044 183.702 124.373 183.65 124.694C183.599 125.015 183.457 125.315 183.241 125.557C182.48 126.318 180.857 126.035 180.548 124.985" stroke="#263238" stroke-linecap="round" stroke-linejoin="round"/>
<path d="M183.813 124.985C183.813 124.985 184.574 125.847 185.914 124.985C186.091 124.893 186.244 124.76 186.359 124.597C186.474 124.434 186.548 124.245 186.576 124.048C186.604 123.85 186.584 123.649 186.518 123.46C186.452 123.272 186.342 123.102 186.197 122.965" stroke="#263238" stroke-linecap="round" stroke-linejoin="round"/>
<path d="M182.958 109.538C182.958 109.538 175.552 111.255 174.757 112.972C173.962 114.689 182.958 112.016 184.103 110.952C185.248 109.888 184.197 109.161 182.958 109.538Z" fill="#263238" stroke="#263238" stroke-linecap="round" stroke-linejoin="round"/>
<path d="M181.719 113.545C181.719 113.545 176.851 115.262 177.423 115.74C177.996 116.218 182.48 115.067 183.43 114.306C184.379 113.545 183.43 112.973 181.719 113.545Z" fill="#263238" stroke="#263238" stroke-linecap="round" stroke-linejoin="round"/>
<path d="M164.65 122.602C164.65 122.602 172.185 117.835 171.707 120.124C171.229 122.413 166.179 126.036 166.179 126.036C165.565 125.73 165.077 125.22 164.798 124.593C164.519 123.967 164.467 123.263 164.65 122.602Z" fill="#263238" stroke="#263238" stroke-linecap="round" stroke-linejoin="round"/>
<path d="M169.99 127.658C169.99 127.658 174.569 122.124 174.279 124.702C173.989 127.281 172.932 128.036 172.932 128.036C172.932 128.036 170.273 127.658 169.99 127.658Z" fill="#263238" stroke="#263238" stroke-linecap="round" stroke-linejoin="round"/>
<path d="M195.254 113.068C195.254 113.068 190.203 114.119 190.581 115.088C190.958 116.058 196.688 117.108 196.688 117.108C196.688 117.108 196.971 114.402 195.254 113.068Z" fill="#263238" stroke="#263238" stroke-linecap="round" stroke-linejoin="round"/>
<path d="M195.159 121.551C195.159 121.551 190.008 119.74 190.392 121.08C190.776 122.42 193.254 123.652 193.254 123.652C193.254 123.652 194.493 122.319 195.159 121.551Z" fill="#263238" stroke="#263238" stroke-linecap="round" stroke-linejoin="round"/>
<path d="M164.374 111.68C164.374 111.68 167.37 112.353 168.757 113.754C170.145 115.154 170.602 115.599 168.757 117.444C166.912 119.289 165.99 118.79 165.99 118.79C165.99 118.79 164.145 115.141 164.374 111.68Z" fill="white" stroke="#263238" stroke-linecap="round" stroke-linejoin="round"/>
<path d="M189.732 104.044C189.732 104.044 187.2 109.35 188.386 110.73C189.571 112.11 191.153 110.272 191.153 110.272C191.153 110.272 192.735 103.842 189.732 104.044Z" fill="white" stroke="#263238" stroke-linecap="round" stroke-linejoin="round"/>
<path d="M180.44 126.891C180.44 126.891 176.656 126.386 175.39 127.901C174.124 129.416 175.39 130.426 178.925 130.676C182.46 130.925 184.675 128.514 180.44 126.891Z" fill="white" stroke="#263238" stroke-linecap="round" stroke-linejoin="round"/>
<path d="M196.095 125.88C196.095 125.88 190.035 124.109 186.756 126.129C183.477 128.149 180.191 133.705 183.726 135.974C187.261 138.243 188.271 131.435 188.271 131.435C188.271 131.435 194.331 139.004 199.88 134.715" fill="white"/>
<path d="M196.095 125.88C196.095 125.88 190.035 124.109 186.756 126.129C183.477 128.149 180.191 133.705 183.726 135.974C187.261 138.243 188.271 131.435 188.271 131.435C188.271 131.435 194.331 139.004 199.88 134.715" stroke="#263238" stroke-linecap="round" stroke-linejoin="round"/>
<path d="M249.061 144.446C242.26 142.695 234.678 150.472 232.732 157.084C230.786 163.697 229.621 173.022 224.76 175.938C223.587 176.649 222.286 177.121 220.931 177.328C219.575 177.535 218.192 177.472 216.861 177.143C216.008 178.02 215.035 178.773 213.973 179.379C218.094 180.524 225.864 181.722 230.806 176.497C237.809 169.09 236.254 158.99 241.89 154.142C247.526 149.294 251.027 158.418 254.522 155.307C258.016 152.196 255.868 146.169 249.061 144.446Z" fill="white" stroke="#263238" stroke-linecap="round" stroke-linejoin="round"/>
<path d="M233.129 173.474L228.827 170.578C228.347 171.734 227.73 172.829 226.989 173.837C227.857 175.076 228.948 176.531 229.682 177.487C230.06 177.18 230.417 176.849 230.753 176.497C231.641 175.569 232.437 174.556 233.129 173.474Z" fill="#263238" stroke="#263238" stroke-linecap="round" stroke-linejoin="round"/>
<path d="M249.061 144.446C248.643 144.338 248.218 144.266 247.788 144.23C245.243 146.924 244.61 150.526 244.482 152.795C248.657 151.981 251.579 157.933 254.501 155.334C258.003 152.196 255.868 146.17 249.061 144.446Z" fill="#263238" stroke="#263238" stroke-linecap="round" stroke-linejoin="round"/>
<path d="M222.686 176.881C221.964 177.129 221.216 177.296 220.457 177.379C220.677 178.367 220.955 179.34 221.292 180.295V180.355C222.565 180.328 223.831 180.149 225.063 179.823C224.369 178.767 223.573 177.781 222.686 176.881Z" fill="#263238" stroke="#263238" stroke-linecap="round" stroke-linejoin="round"/>
<path d="M231.762 160.707C231.433 162.054 231.089 163.4 230.752 164.747L235.917 167.373C236.523 165.555 237.008 163.751 237.533 162.047L231.762 160.707Z" fill="#263238" stroke="#263238" stroke-linecap="round" stroke-linejoin="round"/>
<path d="M234.934 152.37L239.398 157.285C239.909 156.322 240.555 155.438 241.317 154.659L237.54 149.057C236.57 150.078 235.698 151.187 234.934 152.37Z" fill="#263238" stroke="#263238" stroke-linecap="round" stroke-linejoin="round"/>
<path d="M228.982 126.756V126.412C228.982 126.412 228.503 126.5 228.982 126.756Z" fill="white" stroke="#263238" stroke-linecap="round" stroke-linejoin="round"/>
<path d="M51.8916 201.423C51.8916 201.423 48.2623 200.144 45.0571 191.383C41.852 182.623 34.3779 180.495 26.8768 183.054C19.3757 185.613 21.1129 193.733 23.4629 194.589C25.8129 195.444 27.7319 191.175 32.6474 188.825C37.5628 186.475 40.1215 191.814 41.4009 195.659C42.6802 199.504 47.8515 203.773 50.6123 203.773C53.373 203.773 52.565 203.564 51.8916 201.423Z" fill="#263238" stroke="#263238" stroke-linecap="round" stroke-linejoin="round"/>
<path d="M54.457 204.844C54.457 204.844 55.1304 196.73 61.7157 192.239C68.301 187.748 79.4449 192.912 81.5794 196.952C82.9217 199.691 83.7198 202.663 83.9294 205.706L54.457 204.844Z" fill="#263238" stroke="#263238" stroke-linecap="round" stroke-linejoin="round"/>
<path d="M67.3314 196.003C67.3314 196.003 63.6415 198.844 63.3587 202.817C63.0759 206.79 74.4353 207.362 78.1252 205.941C81.8151 204.521 80.96 196.858 76.1052 193.148C71.2503 189.438 67.3314 196.003 67.3314 196.003Z" fill="white" stroke="#263238" stroke-linecap="round" stroke-linejoin="round"/>
<path d="M128.364 193.094C125.798 191.383 120.243 193.309 120.243 193.309C120.243 193.309 121.738 190.319 121.738 187.969C121.738 185.619 115.119 183.256 115.119 183.256C113.694 181.926 112.003 180.915 110.156 180.292C108.31 179.668 106.352 179.446 104.413 179.64C104.413 179.64 104.837 171.311 103.982 171.519C103.126 171.728 98.642 174.509 94.1575 181.559C89.673 188.609 95.08 194.205 96.3661 197.834C96.3661 197.942 96.4402 198.036 96.4738 198.137C95.4301 199.753 93.9286 202.029 92.9926 203.281C91.821 204.843 101.881 204.049 106.877 203.564H124.701C124.962 202.879 125.108 202.156 125.131 201.423C125.058 200.277 124.914 199.137 124.701 198.009C125.064 198.841 125.731 199.503 126.565 199.859C127.4 200.216 128.34 200.241 129.192 199.928C132.417 198.864 130.922 194.804 128.364 193.094Z" fill="white" stroke="#263238" stroke-linecap="round" stroke-linejoin="round"/>
<path d="M120.243 193.309C118.857 194.364 117.72 195.712 116.912 197.256C116.104 198.8 115.646 200.503 115.57 202.244" stroke="#263238" stroke-linecap="round" stroke-linejoin="round"/>
<path d="M108.924 185.196C110.256 182.992 111.804 180.926 113.543 179.028C114.533 178.031 117.745 174.914 119.435 175.742C120.486 176.26 119.644 178.153 119.388 179.001C118.109 183.27 118.109 189.68 115.759 191.599C113.409 193.518 109.14 191.384 109.14 191.384" fill="white"/>
<path d="M108.924 185.196C110.256 182.992 111.804 180.926 113.543 179.028C114.533 178.031 117.745 174.914 119.435 175.742C120.486 176.26 119.644 178.153 119.388 179.001C118.109 183.27 118.109 189.68 115.759 191.599C113.409 193.518 109.14 191.384 109.14 191.384" stroke="#263238" stroke-linecap="round" stroke-linejoin="round"/>
<path d="M104.413 179.641C104.413 179.641 98.8575 179.849 95.8678 183.91" stroke="#263238" stroke-linecap="round" stroke-linejoin="round"/>
<path d="M126.014 201.424H47.1917V265.715H126.014V201.424Z" fill="#B9B9B9" stroke="#263238" stroke-linecap="round" stroke-linejoin="round"/>
<path d="M36.5124 201.424L31.5969 215.308H40.1417L36.5124 201.424Z" fill="#4B4B4B" stroke="#263238" stroke-linecap="round" stroke-linejoin="round"/>
<path d="M47.1916 201.424H36.5123V256.961L47.1916 265.722V201.424Z" fill="#737373" stroke="#263238" stroke-linecap="round" stroke-linejoin="round"/>
<path d="M47.1917 201.424L54.0261 222.789H131.562L126.014 201.424H47.1917Z" fill="#B9B9B9" stroke="#263238" stroke-linecap="round" stroke-linejoin="round"/>
<path d="M71.1156 177.074C71.1156 177.074 79.4449 172.361 80.3 174.3C81.1552 176.239 76.26 181.774 76.26 181.774L71.1156 177.074Z" fill="#263238" stroke="#263238" stroke-linecap="round" stroke-linejoin="round"/>
<path d="M72.395 197.794C63.6415 198.865 60.8606 194.804 59.157 193.949C57.4535 193.094 53.8174 194.165 52.7468 193.949C51.6761 193.734 53.171 188.61 56.1606 183.694C57.8129 180.886 59.9891 178.422 62.5709 176.435C62.5709 176.435 67.9105 175.365 71.9977 176.651C76.085 177.937 78.1925 181.991 80.7513 182.199C83.31 182.408 83.0945 184.125 82.8858 186.475C82.677 188.825 82.6703 190.744 80.7513 193.094C79.4378 194.608 77.8353 195.844 76.0378 196.73" fill="white"/>
<path d="M72.395 197.794C63.6415 198.865 60.8606 194.804 59.157 193.949C57.4535 193.094 53.8174 194.165 52.7468 193.949C51.6761 193.734 53.171 188.61 56.1606 183.694C57.8129 180.886 59.9891 178.422 62.5709 176.435C62.5709 176.435 67.9105 175.365 71.9977 176.651C76.085 177.937 78.1925 181.991 80.7513 182.199C83.31 182.408 83.0945 184.125 82.8858 186.475C82.677 188.825 82.6703 190.744 80.7513 193.094C79.4378 194.608 77.8353 195.844 76.0378 196.73" stroke="#263238" stroke-linecap="round" stroke-linejoin="round"/>
<path d="M62.5709 176.435C59.9891 178.422 57.8129 180.886 56.1606 183.694C53.171 188.61 51.6761 193.734 52.7468 193.949C53.8174 194.165 57.4602 193.094 59.157 193.949C60.4633 194.623 62.416 197.134 67.1968 197.807C67.0928 196.809 67.2386 195.8 67.621 194.872C69.035 190.899 75.2837 189.195 77.8357 185.499C80.3877 181.802 76.1321 179.257 76.1321 179.257V179.136C74.9304 178.037 73.5197 177.192 71.9843 176.651C67.9105 175.365 62.5709 176.435 62.5709 176.435Z" fill="#263238" stroke="#263238" stroke-linecap="round" stroke-linejoin="round"/>
<path d="M58.8069 180.987C58.8069 180.987 61.9177 172.698 67.0554 170.638C70.072 169.419 69.1966 179.459 69.1966 179.459" fill="#263238"/>
<path d="M58.8069 180.987C58.8069 180.987 61.9177 172.698 67.0554 170.638C70.072 169.419 69.1966 179.459 69.1966 179.459" stroke="#263238" stroke-linecap="round" stroke-linejoin="round"/>
<path d="M80.7311 182.199C80.7311 182.199 79.2295 182.63 80.3001 184.341C81.3707 186.051 82.4346 187.539 83.2898 185.62C84.1449 183.701 82.2259 181.56 80.7311 182.199Z" fill="white" stroke="#263238" stroke-linecap="round" stroke-linejoin="round"/>
<path d="M66.5841 172.18C66.5841 172.18 62.7864 180.705 65.3519 181.351C67.9173 181.997 68.7657 179.21 69.1967 175.365C69.6276 171.52 68.5031 170.254 66.5841 172.18Z" fill="white" stroke="#263238" stroke-linecap="round" stroke-linejoin="round"/>
<path d="M75.9705 182.05C76.4957 182.723 76.6439 183.538 76.3139 183.787C75.984 184.036 75.2702 183.666 74.745 182.959C74.2198 182.252 74.0717 181.471 74.4016 181.215C74.7316 180.959 75.4588 181.336 75.9705 182.05Z" fill="white"/>
<path d="M64.4968 198.864L60.8607 194.588C60.8607 194.588 58.5107 193.093 57.0159 194.38C55.521 195.666 51.8917 202.918 55.0968 205.719C58.302 208.52 60.4365 201.443 61.0762 200.803L61.7495 200.164" fill="#263238"/>
<path d="M64.4968 198.864L60.8607 194.588C60.8607 194.588 58.5107 193.093 57.0159 194.38C55.521 195.666 51.8917 202.918 55.0968 205.719C58.302 208.52 60.4365 201.443 61.0762 200.803L61.7495 200.164" stroke="#263238" stroke-linecap="round" stroke-linejoin="round"/>
<path d="M60.8337 201.168C60.157 200.205 59.2918 199.39 58.2906 198.772C57.2894 198.154 56.173 197.746 55.0093 197.572C53.804 200.266 53.0364 203.915 55.0968 205.7C57.9518 208.191 59.9718 202.771 60.8337 201.168Z" fill="white" stroke="#263238" stroke-linecap="round" stroke-linejoin="round"/>
<path d="M80.3204 198.615L82.226 194.575C82.226 194.575 84.576 193.08 86.0708 194.366C87.5656 195.652 91.195 202.904 87.9899 205.685C84.7847 208.466 82.6502 201.409 82.0105 200.769L81.3709 200.13" fill="#263238"/>
<path d="M80.3204 198.615L82.226 194.575C82.226 194.575 84.576 193.08 86.0708 194.366C87.5656 195.652 91.195 202.904 87.9899 205.685C84.7847 208.466 82.6502 201.409 82.0105 200.769L81.3709 200.13" stroke="#263238" stroke-linecap="round" stroke-linejoin="round"/>
<path d="M88.5419 198.729C85.0876 199.26 83.586 200.971 82.9666 202.627C84.017 204.748 85.7407 207.65 87.9897 205.698C89.7674 204.156 89.4374 201.24 88.5419 198.729Z" fill="white" stroke="#263238" stroke-linecap="round" stroke-linejoin="round"/>
</svg>
