<svg width="165" height="35" viewBox="0 0 165 35" fill="none" xmlns="http://www.w3.org/2000/svg">
<path d="M10.3933 24.4551C11.3544 22.7476 12.152 20.9531 12.7753 19.0955C13.7519 16.118 16.4138 13.6109 19.9214 15.2724C23.0399 16.6579 26.0708 18.233 28.9969 19.9888C31.1228 21.3942 32.4091 24.9136 30.3368 27.4624C28.2644 30.0111 26.329 29.1715 22.5952 30.3506C18.8614 31.5297 17.3131 33.8283 15.0739 34.0844C12.8348 34.3405 9.29754 32.6909 8.97597 29.5943C8.7855 27.764 9.29154 25.929 10.3933 24.4551Z" fill="#0085FF"/>
<path d="M24.5249 10.2163C24.5249 10.2163 24.8345 7.65559 26.4543 6.33356C28.0741 5.01154 30.2238 7.22682 31.4208 9.39446C32.6178 11.5621 31.8555 15.1649 30.0869 16.5941C28.3182 18.0233 25.4955 16.8085 24.9536 15.4031C24.4117 13.9977 24.5249 10.2163 24.5249 10.2163Z" fill="#0085FF"/>
<path d="M17.4446 1.0871C17.4446 1.0871 20.8926 2.87362 22.3754 5.29733C23.8582 7.72104 23.8641 10.5616 21.8037 12.1695C19.7432 13.7773 17.0813 12.1695 15.6283 10.3829C14.1753 8.59643 13.3356 4.88047 13.6512 2.87957C13.9668 0.878673 16.6704 0.854851 17.4446 1.0871Z" fill="#0085FF"/>
<path d="M9.50057 3.59999C9.50057 3.59999 10.9298 4.79101 12.228 7.81618C13.5262 10.8414 13.419 13.3365 12.4185 14.8729C11.4181 16.4093 8.8872 17.0406 6.87439 15.5994C4.86158 14.1583 4.02192 10.1089 4.49236 8.23899C4.96282 6.3691 6.31462 3.88584 7.32698 3.34988C8.33934 2.81393 8.89315 2.93303 9.50057 3.59999Z" fill="#0085FF"/>
<path d="M3.80725 15.2847C3.80725 15.2847 7.38029 17.4405 8.5713 19.7927C9.76231 22.145 8.43433 24.8188 7.02894 25.3071C5.62354 25.7954 3.20579 25.5096 1.17511 22.7702C-0.855564 20.0309 0.180614 15.9338 1.05601 15.3741C1.9314 14.8143 3.80725 15.2847 3.80725 15.2847Z" fill="#0085FF"/>
<path d="M47.632 24.0498H44.752V7.2498H53.272C56.704 7.2498 58.792 9.5298 58.792 12.5298C58.792 15.9138 56.44 17.9778 53.272 17.9778H47.632V24.0498ZM47.632 9.8418V15.3858H53.128C54.928 15.3858 55.864 14.0418 55.864 12.5298C55.864 10.9458 54.784 9.8418 53.128 9.8418H47.632ZM66.9606 24.4098C63.0726 24.4098 60.4086 21.6258 60.4086 17.7378C60.4086 13.5378 63.1686 10.9458 66.7206 10.9458C70.3206 10.9458 72.7206 13.4658 72.7926 17.5938V18.2658H63.2406C63.4326 20.4978 64.8246 22.0098 66.9846 22.0098C68.4486 22.0098 69.5526 21.2898 69.9846 20.0178H72.7446C72.0966 22.7538 69.9606 24.4098 66.9606 24.4098ZM63.3606 16.2738H69.8646C69.5046 14.4498 68.3766 13.3458 66.7206 13.3458C65.0406 13.3458 63.7926 14.4498 63.3606 16.2738ZM81.9235 24.0498H80.2915C77.5315 24.0498 76.0435 22.6818 76.0435 20.1618V13.7298H73.8115V11.3298H76.0435V6.9858H78.8755V11.3298H82.1635V13.7298H78.8755V19.9698C78.8755 21.0498 79.4275 21.6498 80.4835 21.6498H81.9235V24.0498ZM91.4314 24.0498H88.4554L95.3194 7.2498H98.1994L105.087 24.0498H102.111L100.407 19.8978H93.1354L91.4314 24.0498ZM96.7834 10.9698L94.1674 17.3538H99.3754L96.7834 10.9698ZM112.012 24.4098C108.532 24.4098 106.468 22.7778 106.3 19.9938H109.036C109.132 21.3618 110.308 22.0818 111.868 22.0818C113.308 22.0818 114.076 21.5298 114.076 20.5458C114.076 19.5618 113.26 19.3698 112.156 19.0098L110.476 18.4578C108.364 17.7618 106.54 17.0418 106.54 14.6898C106.54 12.4338 108.268 10.9458 111.316 10.9458C114.268 10.9458 116.284 12.5058 116.62 15.3858H113.932C113.788 13.9458 112.756 13.2738 111.292 13.2738C110.044 13.2738 109.324 13.8018 109.324 14.6658C109.324 15.6498 110.428 15.9138 111.34 16.2258L112.876 16.7298C115.396 17.5698 116.908 18.3378 116.908 20.6178C116.908 22.9698 115.132 24.4098 112.012 24.4098ZM124.012 24.4098C120.532 24.4098 118.468 22.7778 118.3 19.9938H121.036C121.132 21.3618 122.308 22.0818 123.868 22.0818C125.308 22.0818 126.076 21.5298 126.076 20.5458C126.076 19.5618 125.26 19.3698 124.156 19.0098L122.476 18.4578C120.364 17.7618 118.54 17.0418 118.54 14.6898C118.54 12.4338 120.268 10.9458 123.316 10.9458C126.268 10.9458 128.284 12.5058 128.62 15.3858H125.932C125.788 13.9458 124.756 13.2738 123.292 13.2738C122.044 13.2738 121.324 13.8018 121.324 14.6658C121.324 15.6498 122.428 15.9138 123.34 16.2258L124.876 16.7298C127.396 17.5698 128.908 18.3378 128.908 20.6178C128.908 22.9698 127.132 24.4098 124.012 24.4098ZM132.364 9.6258C131.332 9.6258 130.54 8.8098 130.54 7.7778C130.54 6.7458 131.332 5.9538 132.364 5.9538C133.42 5.9538 134.188 6.7458 134.188 7.7778C134.188 8.8098 133.42 9.6258 132.364 9.6258ZM133.78 24.0498H130.948V11.3298H133.78V24.0498ZM142.475 29.2338C138.923 29.2338 136.475 27.5058 136.475 24.7698H139.307C139.307 25.9698 140.579 26.9298 142.475 26.9298C144.731 26.9298 145.907 25.5858 145.907 23.6658V21.8658C145.091 23.0898 143.675 23.8578 141.851 23.8578C138.443 23.8578 135.995 21.2178 135.995 17.4258C135.995 13.6098 138.443 10.9458 141.827 10.9458C143.819 10.9458 145.427 11.8818 146.219 13.2978L146.459 11.3298H148.715V23.6658C148.715 27.0258 146.339 29.2338 142.475 29.2338ZM142.403 21.4818C144.467 21.4818 145.907 19.8018 145.907 17.4018C145.907 15.0018 144.467 13.3458 142.403 13.3458C140.339 13.3458 138.923 15.0018 138.923 17.4258C138.923 19.8258 140.339 21.4818 142.403 21.4818ZM154.405 24.0498H151.573V11.3298H153.853L154.093 13.2018C154.885 11.8818 156.493 10.9458 158.389 10.9458C161.101 10.9458 162.877 12.7698 162.877 15.6258V24.0498H160.045V15.7698C160.045 14.3538 159.109 13.4178 157.525 13.4178C155.677 13.4178 154.429 14.6898 154.405 16.3458V24.0498Z" fill="#111111"/>
</svg>
