<svg width="194" height="183" viewBox="0 0 194 183" fill="none" xmlns="http://www.w3.org/2000/svg">
<path opacity="0.7" d="M193.993 79.736C193.761 63.5269 187.393 47.8998 177.701 35.8261C172.054 28.7817 165.319 22.6829 157.752 17.7593C150.021 12.7719 141.613 7.16103 132.287 6.3007C129.958 6.04394 127.602 6.23581 125.346 6.86594C116.647 9.45939 133.862 18.7027 136.11 20.0576C112.046 9.76279 87.1508 -0.689963 60.8465 0.295047C55.7759 0.486231 50.5142 1.16784 46.0547 3.98157C41.5951 6.79529 38.158 12.2274 38.8105 17.6055C39.3591 22.0567 42.364 27.0233 39.5461 30.4896C38.7398 31.4829 37.5969 32.0689 36.4789 32.5677C30.7226 35.186 24.5133 36.5576 19.0604 39.8908C10.6358 45.0736 4.85877 54.5662 2.19051 64.541C-0.477748 74.5158 -0.353063 84.9894 0.69429 95.1346C2.66847 114.224 8.02992 133.163 18.8858 148.009C34.3883 169.206 59.8074 180.012 85.2681 181.795C116.078 183.952 149.477 172.651 169.85 146.555C172.872 142.677 175.636 138.375 176.741 133.533C177.847 128.691 176.97 123.143 173.587 119.951C172.676 119.091 171.508 118.18 171.6 116.846C171.733 115.043 173.902 114.432 175.557 114.053C186.4 111.56 192.597 98.4096 193.719 86.5812C193.935 84.3061 194.027 82.021 193.993 79.736Z" fill="#B2D6E9"/>
<path opacity="0.2" d="M97.1534 171.385C127.061 171.385 151.307 166.248 151.307 159.912C151.307 153.575 127.061 148.438 97.1534 148.438C67.2453 148.438 43 153.575 43 159.912C43 166.248 67.2453 171.385 97.1534 171.385Z" fill="#160B1C"/>
<path d="M126.267 47.1285C126.29 48.0372 124.193 49.7307 121.917 49.928C119.158 50.1621 115.689 48.5511 114.546 46.9999C114.202 46.5317 114.096 46.1143 114.234 45.761C114.693 45.4167 119.099 45.6004 123.064 46.2613C123.302 46.3027 123.522 46.3395 123.729 46.3762C123.752 46.3809 123.766 46.3852 123.78 46.3899C123.784 46.3946 123.789 46.3946 123.789 46.3946V46.3899C126.051 46.8167 126.254 47.1285 126.267 47.1285Z" fill="#615873"/>
<path d="M123.789 46.3946C123.789 46.3946 123.784 46.3946 123.78 46.3899C123.766 46.3852 123.752 46.3809 123.729 46.3762C123.523 46.3395 123.302 46.3027 123.064 46.2613C119.099 45.6004 114.693 45.4167 114.234 45.761C114.096 46.1143 114.202 46.5321 114.546 46.9999C114.977 47.5844 115.738 48.1769 116.667 48.6767V48.6763C115.778 48.135 115.51 46.5334 115.596 46.3946C115.671 46.2741 123.402 46.756 126.148 47.5613C126.226 47.4058 126.27 47.2588 126.267 47.129C126.254 47.129 126.051 46.8171 123.789 46.3899V46.3946Z" fill="white"/>
<path d="M125.382 49.042C124.849 52.9428 123.193 54.7281 121.871 55.545C120.921 56.1324 120.008 56.293 119.388 56.261C121.086 55.0814 122.178 52.7591 122.169 50.3638C123.372 50.2121 124.532 49.6798 125.382 49.042Z" fill="#ECE1F0"/>
<path d="M121.008 45.0683C120.393 44.8616 119.705 44.6232 118.975 44.3434C118.915 43.2788 118.617 42.5538 118.296 41.7827C117.805 40.5942 117.3 39.3643 117.603 36.6429C118.08 32.3521 118.158 24.4171 116.309 21.4018C115.322 19.7908 112.298 16.8401 108.03 14.3896C115.547 16.9781 118.122 19.9015 119.526 23.426C120.513 25.8952 120.279 29.4564 120.072 32.5998C119.948 34.4445 119.833 36.1841 119.994 37.4508C120.145 38.644 120.389 39.7547 120.604 40.7369C120.971 42.4021 121.288 43.8521 121.008 45.0683Z" fill="#B59DBF"/>
<path d="M72.5684 78.9316C72.4723 79.2849 72.371 79.6246 72.2792 79.9552C71.8981 81.2676 71.5632 82.4335 71.5264 83.6954C70.5537 83.1033 69.824 81.8277 70.2183 80.6849C70.7143 79.8177 71.6183 79.276 72.5684 78.9316Z" fill="#615873"/>
<path d="M98.8232 97.3676C98.8095 97.4732 98.7681 97.556 98.6899 97.6248C98.2862 97.9508 97.0973 97.8269 96.1429 97.7303C95.4085 97.6569 94.7156 97.5834 94.2657 97.6752L93.7928 97.7718L94.1692 98.0794C95.312 99.0154 97.1844 100.668 97.3314 101.104C97.4416 101.42 97.3728 102.159 96.9687 102.724C96.5739 103.27 95.9776 103.55 95.1834 103.559C94.2149 102.811 93.3156 101.934 92.4527 101.039C93.2007 102.026 93.9671 102.99 94.8711 103.875C94.8344 104.169 94.6737 105.06 94.0359 105.477C93.5954 105.766 92.9986 105.78 92.2506 105.514H92.2459C91.406 104.862 90.681 104.013 90.0112 103.155C90.5435 104.077 91.1125 104.967 91.8516 105.748C91.7324 105.94 91.4432 106.308 90.9476 106.482C90.3833 106.679 89.6946 106.574 88.9098 106.17C86.5465 104.954 84.7061 100.071 84.6877 100.021L84.6373 99.9381C80.3601 95.537 72.2141 86.675 72.012 84.6603C71.8561 83.0818 72.2367 81.76 72.7186 80.0849C72.8425 79.6628 72.9664 79.2266 73.0903 78.7631C73.4714 78.6576 73.8477 78.5747 74.1963 78.5153C77.7806 77.9049 82.3193 78.8366 84.3891 80.5941C84.2558 81.6314 84.1734 82.2786 84.1734 82.2923L84.1644 82.3705L91.2227 94.1969L91.3419 94.2063C91.397 94.211 97.0003 94.6425 98.4874 96.4047C98.7454 96.7067 98.8552 97.0233 98.8232 97.3676Z" fill="#ECE1F0"/>
<path d="M91.2237 94.1959L84.1654 82.3695L84.1744 82.2913C84.1744 82.2776 84.2568 81.6304 84.3901 80.5932C82.3203 78.8356 77.7816 77.9039 74.1973 78.5144C73.8487 78.5742 73.4724 78.6566 73.0913 78.7621C72.9674 79.2257 72.8435 79.6614 72.7196 80.0839C72.2377 81.759 71.8567 83.0808 72.013 84.6593C72.2151 86.6741 80.3611 95.5361 84.6383 99.9372L84.6887 100.02C84.6998 100.05 85.3577 101.796 86.3877 103.46C88.4076 105.077 89.7558 105.068 90.3937 103.794C90.2638 103.583 90.1365 103.37 90.0122 103.154C90.154 103.336 90.3001 103.517 90.4475 103.696C90.4633 103.693 92.6566 103.309 92.8236 101.519C92.7002 101.359 92.5758 101.2 92.4537 101.039C92.5801 101.17 92.7091 101.299 92.8369 101.429C92.8544 101.418 95.0549 100.044 94.8247 98.6269C94.5931 98.4296 94.3701 98.2429 94.1702 98.0792L93.7938 97.7716L94.2667 97.6751C94.3688 97.6542 94.4867 97.6439 94.6115 97.6384C94.8289 97.1009 95.1993 95.8599 94.6192 94.697C92.9304 94.3288 91.3724 94.2083 91.3433 94.2057L91.2237 94.1959Z" fill="#D2C3D8"/>
<path d="M110.352 108.115C108.81 108.482 105.037 109.217 99.7778 109.217C94.1054 109.217 86.7121 108.363 78.502 105.274C77.6027 118.542 75.5649 147.161 75.3676 149.868C82.839 151.236 90.4664 151.116 91.7237 151.089C92.8617 145.504 94.794 130.827 95.8492 122.511L96.7164 117.417L96.3033 122.557V122.571L97.5059 149.482C102.876 150.965 111.448 149.138 112.839 148.821C110.746 125.692 110.388 110.254 110.352 108.115Z" fill="#0077B6"/>
<path d="M79.9951 105.814C79.5004 105.642 79.0031 105.463 78.502 105.274C77.6027 118.542 75.5649 147.161 75.3676 149.868C76.0374 149.991 76.7081 150.101 77.3754 150.201C77.7078 143.869 79.1317 117.055 79.9951 105.814Z" fill="white"/>
<path d="M77.9149 107.119C77.7359 109.712 77.5296 112.732 77.3044 115.953V115.958C74.3627 121.456 71.1501 123.677 68.3185 125.642C67.0839 126.495 65.9091 127.308 64.8308 128.326C64.9273 127.849 65.0786 127.183 65.2896 126.504L65.487 125.88L64.9453 126.247C64.8765 126.293 58.3415 130.777 55.2344 137.706C51.9393 132.649 50.8884 128.147 52.1047 124.31C54.2433 117.564 62.7195 114.306 67.7815 112.36L68.0934 112.241C70.1171 111.461 72.2373 110.258 74.2935 109.093C75.5695 108.367 76.7858 107.675 77.9149 107.119Z" fill="#ECE1F0"/>
<path d="M54.9894 134.57C56.7679 128.145 66.4625 121.032 66.4625 121.032C66.2903 122.466 66.1758 123.728 66.1758 123.728C67.78 120.722 73.9728 117.201 77.4986 113.164C77.6489 110.991 77.7891 108.947 77.9151 107.119C76.786 107.675 75.5702 108.367 74.2941 109.092C72.2379 110.258 70.1177 111.46 68.094 112.241L67.7821 112.36C62.7201 114.306 54.2439 117.564 52.1053 124.31C51.3936 126.555 51.4645 129.031 52.3014 131.71C53.6172 134.045 54.9894 134.57 54.9894 134.57Z" fill="#D2C3D8"/>
<path d="M92.4352 165.16C91.1502 165.848 88.7958 165.192 88.1349 164.986C88.3092 163.65 88.3413 162.297 88.1854 160.975C88.199 162.338 88.0063 163.696 87.6804 165C85.2756 166.468 82.5265 165.234 81.9255 164.931C81.9989 163.609 82.1685 162.287 82.421 160.975C82.0263 162.26 81.705 163.567 81.4803 164.903C80.4892 165.38 78.7359 165.288 77.5842 164.687C77.0425 164.403 76.3773 163.879 76.2808 162.994C76.0377 160.85 77.0057 158.308 77.9375 155.848C78.6073 154.081 79.2456 152.406 79.4152 150.938C83.8898 151.47 87.9786 151.562 90.1907 151.562C90.0253 153.998 91.618 156.252 92.903 158.074C93.5319 158.969 94.0778 159.744 94.2479 160.313C94.6106 161.567 94.8583 163.861 92.4352 165.16Z" fill="#ECE1F0"/>
<path d="M94.2943 160.485C94.279 160.427 94.264 160.368 94.2482 160.313C94.0786 159.744 93.5322 158.968 92.9034 158.074C91.6183 156.252 90.0261 153.998 90.191 151.562C87.9789 151.562 83.8901 151.47 79.4155 150.938C79.2459 152.406 78.6077 154.081 77.9378 155.848C77.4136 157.232 76.8783 158.642 76.5532 159.992C78.4547 162.654 82.4218 160.974 82.4218 160.974C85.029 162.596 88.1857 160.974 88.1857 160.974C89.9364 162.063 93.1362 161.962 94.2943 160.485Z" fill="#D2C3D8"/>
<path d="M125.703 157.84C125.703 158.754 125.258 159.602 124.702 159.814C124.349 157.849 122.055 156.785 120.214 156.876C122.004 156.927 124.198 158.111 124.285 160.052C124.17 160.36 123.262 162.535 120.682 162.544C120.682 161.135 119.636 159.91 118.314 159.497C117.869 159.35 117.406 159.272 116.942 159.221C117.401 159.309 117.851 159.423 118.273 159.607C119.508 160.102 120.435 161.364 120.219 162.718C120.219 162.727 120.214 162.736 120.214 162.745C120.118 163.003 119.485 164.457 116.63 164.457C112.702 164.457 101.641 157.486 101.15 155.788C100.669 154.136 100.613 151.304 100.609 150.451C101.274 150.501 101.953 150.524 102.637 150.524C105.882 150.524 109.158 150.019 111.173 149.639C111.077 150.323 110.948 151.8 111.591 152.287C112.376 152.883 118.502 155.013 123.037 155.366C125.501 155.555 125.698 157.308 125.703 157.84Z" fill="#ECE1F0"/>
<path d="M113.156 162.106C116.178 162.694 118.135 161.313 118.3 159.619C118.291 159.615 118.282 159.611 118.273 159.607C117.851 159.423 117.401 159.309 116.942 159.222C117.406 159.272 117.869 159.35 118.314 159.497C118.314 159.497 121.045 159.645 121.378 157.059C120.988 156.951 120.592 156.887 120.215 156.877C120.595 156.858 120.995 156.891 121.393 156.968L121.394 156.967C121.394 156.967 122.237 156.298 122.538 155.321C118.065 154.861 112.348 152.863 111.591 152.287C110.949 151.801 111.077 150.323 111.174 149.64C109.159 150.021 105.882 150.525 102.638 150.525C101.954 150.525 101.275 150.502 100.609 150.452C100.613 151.251 100.662 153.786 101.064 155.461C104.436 157.848 110.556 161.6 113.156 162.106Z" fill="#D2C3D8"/>
<path d="M108.989 71.443C108.401 69.6944 107.763 67.9689 107.056 66.2708C107.621 68.0193 108.112 69.7905 108.543 71.5716C109.58 75.1695 110.186 78.2582 110.342 80.7591C108.47 86.0322 105.624 93.9351 105.275 94.6186C105.165 94.6601 104.84 94.7288 104.55 94.7929C103.068 95.1048 100.305 95.6879 100.099 97.3583C100.062 97.6522 100.127 97.8906 100.283 98.0696C100.627 98.455 101.333 98.446 102.15 98.4413C102.472 98.4413 102.802 98.4366 103.123 98.4549C102.347 99.0928 100.815 100.383 100.484 100.92C100.094 101.553 100.14 102.31 100.599 102.943C100.984 103.48 101.563 103.788 102.1 103.765C102.187 104.141 102.421 104.875 103.027 105.219C103.431 105.449 103.913 105.458 104.459 105.256C104.597 105.467 104.877 105.798 105.322 105.954C105.492 106.018 105.675 106.05 105.864 106.05C106.185 106.05 106.529 105.958 106.891 105.775C108.222 105.114 110.352 101.585 110.811 100.749C110.824 100.726 110.838 100.694 110.856 100.649C110.856 102.416 110.856 105.683 110.833 107.523C109.2 107.964 95.4316 111.328 78.1395 104.646C78.2083 103.732 78.5432 99.3085 78.782 94.3379C81.4392 97.2887 83.8944 99.8361 84.2755 100.226C84.4818 100.763 86.2765 105.33 88.6996 106.578C89.296 106.885 89.8514 107.037 90.3564 107.037C90.6178 107.037 90.8703 106.995 91.1091 106.913C91.7286 106.692 92.0819 106.247 92.2425 105.995C93.064 106.257 93.7522 106.211 94.2939 105.858C95.033 105.371 95.253 104.44 95.3175 104.017C96.4099 103.962 97.02 103.439 97.3412 102.989C97.8646 102.26 97.9056 101.36 97.768 100.956C97.5753 100.387 95.8131 98.8544 94.9044 98.0927C95.2488 98.1021 95.6661 98.1431 96.0976 98.1845C97.2451 98.3037 98.4336 98.4276 98.9796 97.9782C99.1539 97.8312 99.2551 97.6432 99.2778 97.4091C99.3235 96.9409 99.1769 96.5052 98.8416 96.1104C97.3408 94.3298 92.357 93.8296 91.494 93.7561L84.6425 82.2693C84.7112 81.7003 85.1564 78.1207 85.6844 74.4356L86.3133 68.8413L85.2303 74.3715C84.9321 76.4823 84.6519 78.5663 84.4592 80.0623C82.2014 78.3458 77.699 77.4602 74.1194 78.0613C72.637 78.3138 71.4669 78.791 70.6591 79.4655C73.3757 72.1962 77.8182 63.7977 84.17 62.2422C84.9227 63.05 89.8881 67.942 99.0898 67.942C101.343 67.942 102.895 67.4003 103.693 66.3267C104.519 65.2254 104.239 63.954 104.18 63.7246C104.184 63.3619 104.23 63.027 104.312 62.7151C109.209 63.9267 113.339 73.5735 115.029 78.6444C114.239 78.4381 112.449 78.1074 110.591 78.6812C110.301 76.5738 109.764 74.1506 108.989 71.443Z" fill="#0077B6"/>
<path d="M70.6591 79.4646C71.3657 78.8746 72.3495 78.4354 73.5773 78.1658C75.9496 72.8001 78.9097 66.0925 84.9752 63.0119C84.5741 62.6599 84.3041 62.3852 84.17 62.2412C77.8182 63.7967 73.3757 72.1952 70.6591 79.4646Z" fill="white"/>
<path d="M95.202 83.091C95.6639 82.2704 96.0473 81.4079 96.3468 80.5152C96.8162 79.0841 98.0955 77.8792 99.7813 78.6777C101.28 79.3436 102.737 80.1006 104.143 80.9445C105.165 81.6199 105.783 83.3114 104.787 84.5364C103.791 85.7613 102.861 85.3578 101.066 85.9245C99.2718 86.4911 98.5277 87.5959 97.4516 87.719C96.3755 87.842 94.6754 87.0493 94.5208 85.561C94.4293 84.6813 94.6725 83.7994 95.202 83.091Z" fill="white"/>
<path d="M101.994 76.2481C101.994 76.2481 102.142 75.0174 102.921 74.3821C103.699 73.7467 104.733 74.8114 105.308 75.8532C105.883 76.8949 105.517 78.6265 104.667 79.3134C103.817 80.0003 102.46 79.4164 102.2 78.741C101.939 78.0655 101.994 76.2481 101.994 76.2481Z" fill="white"/>
<path d="M98.5905 71.8606C98.5905 71.8606 100.248 72.7192 100.96 73.8841C101.673 75.049 101.676 76.4142 100.686 77.1869C99.6952 77.9597 98.4159 77.1869 97.7176 76.3283C97.0192 75.4697 96.6157 73.6838 96.7674 72.7221C96.9191 71.7604 98.2184 71.749 98.5905 71.8606Z" fill="white"/>
<path d="M94.7724 73.0684C94.7724 73.0684 95.4593 73.6408 96.0832 75.0947C96.7072 76.5487 96.6557 77.7479 96.1748 78.4863C95.694 79.2247 94.4776 79.5281 93.5103 78.8354C92.5429 78.1428 92.1393 76.1966 92.3654 75.2979C92.5915 74.3992 93.2412 73.2058 93.7278 72.9482C94.2143 72.6906 94.4805 72.7478 94.7724 73.0684Z" fill="white"/>
<path d="M92.0363 78.6833C92.0363 78.6833 93.7536 79.7193 94.326 80.8498C94.8984 81.9803 94.2602 83.2654 93.5847 83.5001C92.9093 83.7348 91.7473 83.5974 90.7713 82.2809C89.7954 80.9643 90.2934 78.9952 90.7141 78.7262C91.1348 78.4571 92.0363 78.6833 92.0363 78.6833Z" fill="white"/>
<path d="M110.407 100.529C109.654 101.91 107.727 104.847 106.69 105.366C106.231 105.595 105.827 105.646 105.478 105.527C105.157 105.412 104.951 105.164 104.849 105.008C105.652 104.297 106.148 103.365 106.621 102.415C106.024 103.287 105.336 104.228 104.441 104.77C104.436 104.77 104.436 104.774 104.431 104.774C103.959 104.976 103.56 104.995 103.257 104.82C102.766 104.544 102.587 103.866 102.536 103.595C103.353 102.907 104.032 102.08 104.56 101.185C103.89 102.021 103.087 102.75 102.197 103.292C101.793 103.37 101.293 103.118 100.972 102.677C100.623 102.195 100.586 101.631 100.875 101.158C101.201 100.635 103.129 99.0378 103.84 98.464L104.244 98.1428L103.734 98.0603C103.207 97.9732 102.647 97.9779 102.146 97.9821C101.472 97.9868 100.834 97.9911 100.627 97.7617C100.604 97.7339 100.526 97.6515 100.558 97.4131C100.719 96.0682 103.372 95.5086 104.648 95.2377C105.29 95.1049 105.501 95.054 105.607 94.9485C105.859 94.6913 108.966 86.0177 110.793 80.8639L110.811 80.8224L110.806 80.7767C110.774 80.2581 110.724 79.7121 110.65 79.1431C112.702 78.4869 114.73 79.0239 115.194 79.1662C115.524 80.1987 115.735 80.9925 115.809 81.4103C116.134 83.3054 111.1 99.2578 110.407 100.529Z" fill="#ECE1F0"/>
<path d="M108.51 103.467C109.267 102.447 110.004 101.267 110.406 100.529C111.099 99.2578 116.134 83.3058 115.808 81.4103C115.735 80.9925 115.524 80.1987 115.193 79.1662C114.729 79.0239 112.701 78.4869 110.65 79.1431C110.723 79.7121 110.773 80.2581 110.806 80.7767L110.81 80.8224L110.792 80.8639C108.966 86.0177 105.858 94.6913 105.606 94.9485C105.5 95.054 105.289 95.1045 104.647 95.2377C104.05 95.3646 103.153 95.556 102.35 95.8598C102.143 97.2371 103.734 98.0599 103.734 98.0599L104.243 98.1423L103.839 98.4636C103.7 98.5764 103.512 98.7297 103.299 98.9058C103.085 100.102 104.725 100.81 104.725 100.81C104.553 102.015 106.621 102.1 106.621 102.1C106.568 102.233 106.562 102.357 106.58 102.474C106.594 102.455 106.608 102.435 106.621 102.415C106.608 102.441 106.595 102.467 106.582 102.493C106.687 103.077 107.584 103.456 108.51 103.467Z" fill="#D2C3D8"/>
<path d="M118.778 56.6235C118.19 56.9174 117.451 57.1421 116.556 57.1421C115.657 57.1421 114.602 56.9174 113.39 56.3069C112.665 55.9442 111.954 55.5725 111.256 55.2103C109.407 54.2465 107.658 53.3378 105.978 52.7137C103.812 51.8097 101.293 51.3325 99.0901 52.3971C101.238 51.1766 103.891 51.5068 106.139 52.2822C107.846 52.9153 109.604 53.8334 111.472 54.8019C112.165 55.1688 112.876 55.5362 113.592 55.8985C115.616 56.9127 117.479 56.9405 118.98 55.981C120.632 54.93 121.711 52.709 121.711 50.4003C121.596 50.405 121.486 50.4093 121.371 50.4093C118.581 50.4093 115.309 48.8077 114.18 47.2702C113.735 46.6644 113.611 46.077 113.817 45.5677C113.946 45.2559 114.808 45.141 115.988 45.141C117.392 45.141 119.246 45.3063 120.848 45.4943C118.076 44.5672 113.886 42.9473 110.66 40.7582C109.209 39.6569 107.929 38.3351 106.933 36.816C108.039 38.2249 109.411 39.4271 110.921 40.3772C113.243 41.9557 116.075 43.2365 118.502 44.1678C118.42 43.2822 118.154 42.635 117.874 41.9557C117.383 40.7715 116.827 39.4271 117.149 36.5908C117.654 32.0475 117.612 24.4017 115.919 21.6389C114.794 19.7985 110.949 16.1822 105.62 13.6215C105.616 13.6168 105.611 13.6168 105.607 13.6168C105.575 13.6032 105.538 13.5938 105.506 13.5848L105.511 13.5711C102.546 12.1575 99.1268 11.0792 95.469 10.8037C85.4138 10.0509 70.9716 16.3198 65.7443 23.6951C60.7054 30.8132 60.3153 38.3488 64.675 44.3788C65.7212 45.8245 65.5926 48.0366 65.4598 50.3815C65.2855 53.4792 65.1018 56.6782 67.8919 57.7748C68.6309 58.064 68.8971 57.7244 69.6998 56.5128C70.5444 55.2462 71.8248 53.3233 74.7892 51.212C75.427 50.7579 75.9913 50.3081 76.4826 49.8492V49.8445L76.4916 49.8398C79.6811 46.8524 79.8097 43.5389 77.4968 36.5037C76.4369 33.2821 76.5834 30.1383 77.933 27.1598C79.0664 24.8516 80.8013 22.9283 82.7335 21.3177C80.9025 23.0389 79.3099 25.0532 78.3508 27.3482C77.0521 30.2211 76.9098 33.25 77.933 36.3614C80.2322 43.3552 80.1267 46.8754 77.0517 49.9317C78.2218 52.075 79.8328 53.5433 81.2601 54.842C83.4628 56.8473 85.372 58.5869 84.5 61.9234C85.1656 62.6394 90.0119 67.481 99.0892 67.481C101.191 67.481 102.618 66.9991 103.325 66.0537C104.078 65.0395 103.733 63.8326 103.729 63.8185L103.719 63.7544C103.719 62.6437 104.073 61.7397 104.766 61.0699C106.404 59.4956 109.47 59.6105 111.117 59.6699C111.301 59.6789 111.465 59.6836 111.603 59.6883C116.037 59.7665 119.323 59 120.635 57.5864C120.975 57.2194 121.163 56.8153 121.195 56.3885C120.594 56.6273 120.02 56.7234 119.538 56.7234C119.246 56.7247 118.989 56.6927 118.778 56.6235Z" fill="#D2C3D8"/>
<path d="M100.723 37.135C104.16 34.5111 100.745 27.3254 99.0976 26.3416C97.8698 25.6081 89.6819 27.8821 88.8292 32.4374C88.1072 36.2934 93.9113 42.3354 100.723 37.135Z" fill="white"/>
<path d="M106.877 35.5235C105.931 30.4619 107.601 26.0535 108.735 26.0625C109.479 26.0685 114.619 27.9888 115.652 31.0865C116.684 34.1842 115.824 36.2254 114.708 37.1195C113.59 38.0141 107.543 39.0864 106.877 35.5235Z" fill="white"/>
<mask id="mask0_1460_7798" style="mask-type:luminance" maskUnits="userSpaceOnUse" x="88" y="26" width="15" height="14">
<path d="M88.8289 32.4374C89.6821 27.8821 97.8695 25.6081 99.0973 26.3416C100.745 27.3254 104.159 34.5111 100.722 37.135C93.911 42.3354 88.107 36.2934 88.8289 32.4374Z" fill="white"/>
</mask>
<g mask="url(#mask0_1460_7798)">
<path d="M97.2663 41.8759C100.207 41.8759 102.591 39.4917 102.591 36.5507C102.591 33.6097 100.207 31.2256 97.2663 31.2256C94.3253 31.2256 91.9412 33.6097 91.9412 36.5507C91.9412 39.4917 94.3253 41.8759 97.2663 41.8759Z" fill="#8CD4E5"/>
</g>
<mask id="mask1_1460_7798" style="mask-type:luminance" maskUnits="userSpaceOnUse" x="88" y="26" width="14" height="14">
<path d="M88.0715 34.496C87.8517 29.8666 95.2947 25.7665 96.6586 26.1973C98.4883 26.775 103.467 32.9802 100.728 36.3258C95.2983 42.9563 88.2577 38.4147 88.0715 34.496Z" fill="white"/>
</mask>
<g mask="url(#mask1_1460_7798)">
<path d="M97.9904 39.7666C99.6683 39.3692 100.706 37.6868 100.309 36.009C99.9114 34.3311 98.229 33.2931 96.5511 33.6905C94.8732 34.088 93.8353 35.7703 94.2327 37.4482C94.6301 39.1261 96.3125 40.1641 97.9904 39.7666Z" fill="#160B1C"/>
</g>
<mask id="mask2_1460_7798" style="mask-type:luminance" maskUnits="userSpaceOnUse" x="106" y="26" width="11" height="12">
<path d="M106.877 35.5235C105.931 30.4619 107.601 26.0535 108.735 26.0625C109.479 26.0685 114.619 27.9888 115.652 31.0865C116.684 34.1842 115.824 36.2254 114.708 37.1195C113.59 38.0141 107.543 39.0864 106.877 35.5235Z" fill="white"/>
</mask>
<g mask="url(#mask2_1460_7798)">
<path d="M115.865 36.5507C115.865 33.6098 113.866 31.2256 111.399 31.2256C108.934 31.2256 106.934 33.6098 106.934 36.5507C106.934 39.4916 108.933 41.8759 111.399 41.8759C113.866 41.8759 115.865 39.4916 115.865 36.5507Z" fill="#8CD4E5"/>
</g>
<mask id="mask3_1460_7798" style="mask-type:luminance" maskUnits="userSpaceOnUse" x="106" y="26" width="11" height="12">
<path d="M106.877 35.5235C105.931 30.4619 107.601 26.0535 108.735 26.0625C109.479 26.0685 114.619 27.9888 115.652 31.0865C116.684 34.1842 115.824 36.2254 114.708 37.1195C113.59 38.0141 107.543 39.0864 106.877 35.5235Z" fill="white"/>
</mask>
<g mask="url(#mask3_1460_7798)">
<path d="M114.004 36.7304C114.004 35.0062 112.832 33.6084 111.386 33.6084C109.94 33.6084 108.768 35.0062 108.768 36.7304C108.768 38.4547 109.94 39.8525 111.386 39.8525C112.831 39.8525 114.004 38.4547 114.004 36.7304Z" fill="#160B1C"/>
</g>
<path d="M99.9977 33.9657C99.9977 33.2561 99.4222 32.6807 98.7127 32.6807C98.0031 32.6807 97.4276 33.2561 97.4276 33.9657C97.4276 34.6753 98.0031 35.2507 98.7127 35.2507C99.4222 35.2507 99.9977 34.6753 99.9977 33.9657Z" fill="white"/>
<path d="M114.118 33.9657C114.118 33.2561 113.542 32.6807 112.833 32.6807C112.123 32.6807 111.548 33.2561 111.548 33.9657C111.548 34.6753 112.123 35.2507 112.833 35.2507C113.542 35.2507 114.118 34.6753 114.118 33.9657Z" fill="white"/>
<path d="M82.3354 12.8389C75.4407 15.1813 68.9061 19.2346 65.7443 23.6955C60.7054 30.8137 60.3153 38.3492 64.675 44.3792C65.7212 45.8249 65.5926 48.037 65.4598 50.382C65.2855 53.4796 65.1018 56.6786 67.8919 57.7752C68.6309 58.0644 68.8971 57.7248 69.6998 56.5133C70.5444 55.2466 71.8248 53.3237 74.7892 51.2124C75.427 50.7583 75.9913 50.3085 76.4826 49.8497V49.845L76.4916 49.8403C79.6811 46.8528 79.8097 43.5394 77.4968 36.5041C76.4369 33.2825 76.5834 30.1387 77.933 27.1602C79.0091 24.9682 80.63 23.1278 82.4447 21.568C82.622 21.4104 82.7335 21.3177 82.7335 21.3177C84.0587 20.1283 84.9337 15.309 82.3354 12.8389Z" fill="#B59DBF"/>
<path d="M118.502 44.1682C118.42 43.2826 118.154 42.6354 117.873 41.9561C117.824 41.8369 117.774 41.7152 117.724 41.5913C115.632 41.7899 113.5 41.4477 112.132 41.1436C114.185 42.3731 116.482 43.3932 118.502 44.1682Z" fill="#ECE1F0"/>
<path d="M111.118 59.6703C111.302 59.6793 111.467 59.684 111.605 59.6887C116.038 59.7669 119.324 59.0005 120.636 57.5868C120.976 57.2199 121.164 56.8157 121.196 56.3889C120.595 56.6278 120.021 56.7239 119.539 56.7239C119.245 56.7239 118.988 56.6918 118.777 56.6231C118.19 56.917 117.451 57.1417 116.556 57.1417C115.657 57.1417 114.601 56.917 113.39 56.3065C112.665 55.9438 111.954 55.5721 111.256 55.2098C109.407 54.2461 107.658 53.3374 105.978 52.7132C103.812 51.8093 101.293 51.3321 99.0899 52.3967C101.238 51.1761 103.89 51.5064 106.139 52.2818C107.846 52.9149 109.604 53.833 111.472 54.8014C112.165 55.1684 112.876 55.5358 113.592 55.8981C115.616 56.9123 117.479 56.94 118.98 55.9805C120.632 54.9296 121.711 52.7085 121.711 50.3999C121.596 50.4046 121.486 50.4089 121.371 50.4089C118.581 50.4089 115.308 48.8073 114.18 47.2698C113.735 46.664 113.611 46.0766 113.817 45.5673C113.946 45.2555 114.808 45.1405 115.988 45.1405C117.392 45.1405 119.246 45.3059 120.848 45.4938C118.076 44.5668 113.886 42.9468 110.66 40.7578C110.66 40.7578 103.406 45.5374 96.5796 43.3851C89.7532 41.2329 85.0492 44.046 84.5327 48.2335C84.0756 51.9421 88.1136 58.0354 87.6501 64.4012C90.0826 65.8931 93.8912 67.481 99.0899 67.481C101.192 67.481 102.619 66.9991 103.326 66.0537C104.078 65.0395 103.734 63.8326 103.729 63.8185L103.72 63.7544C103.72 62.6437 104.073 61.7397 104.766 61.0699C106.405 59.496 109.471 59.611 111.118 59.6703Z" fill="#ECE1F0"/>
<path d="M123.904 45.9496L123.789 46.39V46.3947C123.789 46.3947 123.785 46.3947 123.78 46.39C123.766 46.3853 123.753 46.3811 123.729 46.3764C123.468 46.3029 122.376 46.0047 120.861 45.4997C120.856 45.495 120.852 45.495 120.848 45.495C118.076 44.568 113.886 42.948 110.659 40.759L110.921 40.3779C113.243 41.9565 116.075 43.2372 118.502 44.1686C118.663 44.2284 118.819 44.2877 118.975 44.3428C119.705 44.6227 120.393 44.8615 121.008 45.0678C121.16 45.1182 121.302 45.1644 121.444 45.2101C122.697 45.6185 123.588 45.8663 123.835 45.9304C123.854 45.9351 123.877 45.9393 123.895 45.944C123.899 45.9496 123.904 45.9496 123.904 45.9496Z" fill="#160B1C"/>
<path d="M123.895 45.9448C123.876 45.9401 123.853 45.9358 123.835 45.9311C123.775 45.9221 123.711 45.9127 123.647 45.899C123.023 45.7841 122.009 45.6329 120.861 45.4996C120.856 45.4949 120.852 45.4949 120.848 45.4949C119.246 45.3069 117.392 45.1416 115.988 45.1416C114.808 45.1416 113.946 45.2561 113.817 45.5684C113.611 46.0776 113.734 46.665 114.18 47.2708C115.309 48.8083 118.581 50.4099 121.371 50.4099C121.485 50.4099 121.596 50.4052 121.71 50.401C121.793 50.3963 121.871 50.392 121.954 50.3873C122.027 50.3826 122.096 50.3736 122.169 50.3642C123.372 50.2126 124.533 49.6803 125.382 49.0424C125.57 48.9002 125.74 48.7532 125.896 48.6063C126.423 48.1013 126.74 47.5647 126.726 47.1149C126.722 46.9038 126.708 46.4818 123.895 45.9448ZM121.917 49.9281C119.159 50.1622 115.689 48.5512 114.547 47C114.202 46.5317 114.097 46.1144 114.234 45.7611C114.693 45.4167 119.099 45.6004 123.064 46.2613C123.303 46.3028 123.523 46.3395 123.729 46.3762C123.753 46.3809 123.766 46.3852 123.78 46.3899C123.785 46.3899 123.785 46.3899 123.789 46.3899C126.052 46.8167 126.254 47.129 126.268 47.129C126.291 48.0372 124.193 49.7307 121.917 49.9281Z" fill="#160B1C"/>
<path d="M106.139 52.2822L105.978 52.7137C103.812 51.8097 101.293 51.3325 99.0901 52.3971C101.238 51.1762 103.89 51.5068 106.139 52.2822Z" fill="#160B1C"/>
<path d="M122.169 50.3642C122.178 52.7595 121.086 55.0818 119.388 56.2614C119.338 56.2981 119.283 56.3348 119.228 56.3716C119.09 56.4587 118.938 56.5459 118.778 56.6241C118.19 56.918 117.451 57.1427 116.557 57.1427C115.657 57.1427 114.602 56.918 113.39 56.3075C112.665 55.9448 111.954 55.5731 111.256 55.2109C109.407 54.2471 107.658 53.3384 105.979 52.7143L106.139 52.2828C107.846 52.9159 109.604 53.834 111.472 54.8024C112.165 55.1694 112.876 55.5368 113.592 55.8991C115.616 56.9133 117.479 56.9411 118.98 55.9815C120.632 54.9306 121.711 52.7096 121.711 50.4009C121.711 50.3227 121.711 50.2403 121.706 50.1621L122.165 50.1484C122.169 50.2172 122.169 50.2907 122.169 50.3642Z" fill="#160B1C"/>
<path d="M125.905 48.5237C125.9 48.551 125.9 48.5788 125.895 48.6061C125.418 53.0303 123.578 55.0309 122.114 55.9396C121.962 56.0314 121.811 56.1186 121.66 56.1874C121.504 56.2698 121.348 56.3343 121.196 56.3894C120.595 56.6283 120.021 56.7244 119.539 56.7244C119.245 56.7244 118.989 56.6923 118.778 56.6235C118.741 56.6146 118.704 56.6052 118.672 56.5915L118.837 56.16C118.975 56.2104 119.163 56.2519 119.388 56.2608C120.008 56.2929 120.921 56.1323 121.871 55.5449C123.193 54.728 124.85 52.9427 125.382 49.0419C125.409 48.8582 125.432 48.6702 125.451 48.4775L125.905 48.5237Z" fill="#160B1C"/>
<path d="M121.66 56.1881C121.683 56.8123 121.449 57.386 120.972 57.8953C119.572 59.4097 116.162 60.2313 111.596 60.1488C111.454 60.1441 111.288 60.1398 111.1 60.1304C109.636 60.0753 106.58 59.9608 105.084 61.4018C104.822 61.6543 104.62 61.9478 104.473 62.2784C104.409 62.416 104.354 62.563 104.313 62.7146C104.23 63.0265 104.184 63.3618 104.18 63.7241C104.24 63.9535 104.52 65.2249 103.693 66.3262C102.895 67.4002 101.344 67.9415 99.0902 67.9415C89.8885 67.9415 84.9231 63.0495 84.1703 62.2417C84.1063 62.1729 84.0738 62.1362 84.0695 62.1315L83.9913 62.0396L84.0234 61.9204C84.0371 61.879 84.0465 61.838 84.0554 61.7965C84.8539 58.7356 83.1331 57.166 80.953 55.1834C79.521 53.8799 77.9058 52.4116 76.7036 50.2589C76.6301 50.1256 76.5566 49.9881 76.4832 49.8505V49.8458L76.4921 49.8411L76.8916 49.6348C76.942 49.7356 76.9971 49.8368 77.0522 49.933C78.2223 52.0763 79.8333 53.5446 81.2606 54.8433C83.4633 56.8486 85.3725 58.5882 84.5006 61.9247C85.1662 62.6407 90.0124 67.4823 99.0898 67.4823C101.192 67.4823 102.619 67.0004 103.326 66.055C104.078 65.0408 103.734 63.8339 103.729 63.8198L103.72 63.7557C103.72 62.645 104.073 61.741 104.766 61.0711C106.404 59.4969 109.47 59.6118 111.117 59.6712C111.301 59.6802 111.466 59.6849 111.604 59.6896C116.037 59.7677 119.323 59.0013 120.636 57.5877C120.975 57.2207 121.163 56.8166 121.195 56.3898C121.205 56.2843 121.205 56.1788 121.195 56.0685L121.65 56.0271C121.655 56.0826 121.66 56.133 121.66 56.1881Z" fill="#160B1C"/>
<path d="M100.719 24.6874C100.256 25.1557 99.7785 25.573 99.2919 25.9494C98.9659 26.2066 98.6357 26.445 98.3008 26.6607C95.8089 28.2991 93.2435 28.9369 91.4398 29.1757C91.0587 29.2261 90.7148 29.2628 90.4119 29.2812C89.54 29.3453 89.012 29.3086 89.012 29.3086C94.8634 26.5919 98.2593 24.0308 98.2593 24.0308C99.8746 23.4481 100.719 24.6874 100.719 24.6874Z" fill="#160B1C"/>
<path d="M116.511 29.3082C116.511 29.3082 115.818 29.3633 114.73 29.221C114.505 29.1979 114.258 29.1612 113.996 29.1108C112.472 28.8352 110.444 28.1932 108.461 26.7428C108.218 26.5638 107.979 26.3758 107.736 26.1737C107.222 25.7376 106.717 25.2467 106.231 24.687C106.231 24.687 106.97 23.4481 108.388 24.0309C108.388 24.0309 111.371 26.5915 116.511 29.3082Z" fill="#160B1C"/>
<path d="M100.122 18.6711C99.3693 18.3315 98.6533 18.8822 98.0202 19.2449C97.3687 19.658 96.7215 20.0984 96.0375 20.4932C94.6837 21.269 93.1051 21.8884 91.5172 21.7184C93.0821 21.521 94.4726 20.8649 95.8081 20.0937C96.9141 19.5751 98.9246 17.8265 100.122 18.6711Z" fill="#160B1C"/>
<path d="M113.789 21.7179C112.353 21.8875 110.944 21.2407 109.769 20.4696C108.883 19.9095 108.121 19.1798 107.194 18.7073C106.9 18.5514 106.547 18.4963 106.23 18.6706C107.258 17.8217 109.099 19.5882 110.021 20.0885C111.178 20.8459 112.385 21.5162 113.789 21.7179Z" fill="#160B1C"/>
<mask id="mask4_1460_7798" style="mask-type:luminance" maskUnits="userSpaceOnUse" x="88" y="26" width="15" height="14">
<path d="M88.8288 32.4384C89.682 27.8831 97.8694 25.609 99.0972 26.3426C100.745 27.3264 104.159 34.5121 100.722 37.136C93.9109 42.3364 88.1068 36.2944 88.8288 32.4384Z" fill="white"/>
</mask>
<g mask="url(#mask4_1460_7798)">
<path d="M97.2654 41.9915C94.266 41.9915 91.8253 39.5513 91.8253 36.5514C91.8253 33.552 94.2655 31.1113 97.2654 31.1113C100.265 31.1113 102.705 33.5515 102.705 36.5514C102.705 39.5513 100.265 41.9915 97.2654 41.9915ZM97.2654 31.3412C94.3924 31.3412 92.0552 33.6784 92.0552 36.5514C92.0552 39.4244 94.3924 41.7616 97.2654 41.7616C100.138 41.7616 102.476 39.4244 102.476 36.5514C102.476 33.6784 100.138 31.3412 97.2654 31.3412Z" fill="#160B1C"/>
</g>
<mask id="mask5_1460_7798" style="mask-type:luminance" maskUnits="userSpaceOnUse" x="106" y="26" width="11" height="12">
<path d="M106.876 35.5244C105.93 30.4629 107.601 26.0545 108.734 26.0635C109.478 26.0695 114.618 27.9898 115.651 31.0875C116.684 34.1852 115.824 36.2264 114.707 37.1205C113.59 38.0151 107.543 39.0874 106.876 35.5244Z" fill="white"/>
</mask>
<g mask="url(#mask5_1460_7798)">
<path d="M111.399 41.9915C108.874 41.9915 106.819 39.5513 106.819 36.5514C106.819 33.552 108.874 31.1113 111.399 31.1113C113.925 31.1113 115.979 33.5515 115.979 36.5514C115.979 39.5513 113.925 41.9915 111.399 41.9915ZM111.399 31.3412C109 31.3412 107.049 33.6784 107.049 36.5514C107.049 39.4244 109 41.7616 111.399 41.7616C113.798 41.7616 115.749 39.4244 115.749 36.5514C115.749 33.6784 113.798 31.3412 111.399 31.3412Z" fill="#160B1C"/>
</g>
<path d="M102.187 34.0772C102.21 35.3162 101.696 36.661 100.631 37.377C100.351 37.6064 99.9103 37.9003 99.6031 38.102C97.4829 39.4652 94.6052 39.8595 92.3107 38.6296C90.1353 37.4868 88.309 34.9718 88.8272 32.4385C88.5611 35.7382 91.6541 38.6202 94.7979 38.8957C96.3948 39.0517 98.0058 38.5792 99.4237 37.7944C99.7313 37.6154 100.172 37.3539 100.456 37.1472C101.522 36.482 102.054 35.3072 102.187 34.0772Z" fill="#160B1C"/>
<path d="M102.187 34.0772C101.962 31.4934 100.897 28.9007 99.2084 26.9957C98.9192 26.7065 98.7586 26.6424 98.3271 26.6561C98.3181 26.6561 98.3087 26.6561 98.2998 26.6608C96.2026 26.8582 93.4672 27.7117 91.4388 29.1758C90.2183 30.0477 89.2545 31.1401 88.8273 32.4388C88.9695 31.2456 89.5569 30.1853 90.4105 29.2813C92.3975 27.1658 95.8121 25.8897 98.3224 25.7568C98.5749 25.7658 98.8227 25.7658 99.1392 25.876C99.1943 25.8991 99.2448 25.9217 99.2909 25.9495C99.5113 26.0687 99.6442 26.211 99.8232 26.3857C101.577 28.5102 102.518 31.3511 102.187 34.0772Z" fill="#160B1C"/>
<path d="M114.523 37.5004C113 38.198 111.255 38.3634 109.613 38.0648C108.319 37.84 106.983 36.922 106.878 35.5224C107.658 38.2621 111.237 38.0054 113.445 37.4222C116.194 36.7891 116.281 33.3471 115.652 31.0889C116.524 33.1403 116.657 36.165 114.523 37.5004Z" fill="#160B1C"/>
<path d="M115.652 31.0851C115.252 30.2866 114.665 29.6488 113.995 29.1118C113.468 28.6803 112.884 28.3086 112.302 27.969C111.196 27.3769 109.947 26.7528 108.731 26.5186C108.635 26.5785 108.543 26.6562 108.46 26.7434C108.015 27.2116 107.767 28.0006 107.556 28.5927C106.859 30.8279 106.735 33.1634 106.877 35.5225C106.17 33.228 106.106 30.6899 106.726 28.345C106.923 27.6977 107.226 26.7617 107.735 26.1743C108.139 25.7018 108.676 25.4536 109.392 25.7428C111.315 26.4174 113.463 27.5281 114.729 29.2216C115.147 29.777 115.463 30.3964 115.652 31.0851Z" fill="#160B1C"/>
<path d="M82.7334 21.3184C80.9024 23.0396 79.3098 25.0539 78.3507 27.3488L77.9329 27.1609C79.0667 24.8522 80.8016 22.9289 82.7334 21.3184Z" fill="#160B1C"/>
<path d="M118.985 44.5039L118.526 44.5175C118.521 44.3983 118.512 44.2787 118.503 44.1689C118.42 43.2833 118.154 42.6361 117.874 41.9568C117.383 40.7726 116.828 39.4282 117.149 36.5919C117.654 32.0486 117.612 24.4028 115.919 21.6401C114.794 19.7997 110.949 16.1833 105.621 13.6227C105.616 13.618 105.611 13.618 105.607 13.618C105.575 13.5996 105.543 13.5859 105.51 13.5722C102.546 12.1586 99.1266 11.0803 95.4688 10.8048C85.4136 10.052 70.9714 16.3209 65.7441 23.6962C60.7052 30.8144 60.3151 38.3499 64.6748 44.38C65.721 45.8256 65.5924 48.0377 65.4596 50.3827C65.2853 53.4804 65.1016 56.6793 67.8917 57.7759C68.6307 58.0652 68.8969 57.7255 69.6996 56.514C70.5442 55.2473 71.8245 53.3244 74.7889 51.2132C75.4268 50.759 75.9911 50.3092 76.4824 49.8504C76.4824 49.8457 76.4871 49.8414 76.4914 49.8414C79.6809 46.8539 79.8095 43.5405 77.4966 36.5052C76.4367 33.2836 76.5832 30.1398 77.9328 27.1613L78.3506 27.3493C77.0519 30.2223 76.9096 33.2512 77.9328 36.3625C80.232 43.3564 80.1265 46.8766 77.0514 49.9328C76.9365 50.043 76.822 50.1533 76.7028 50.2588C76.221 50.7086 75.6703 51.1444 75.0551 51.5848C72.1595 53.65 70.9112 55.5271 70.0803 56.7707C69.4655 57.6978 69.043 58.3309 68.3317 58.3309C68.1527 58.3309 67.9506 58.2894 67.7259 58.2023C64.6235 56.9818 64.8162 53.6132 64.9999 50.3592C65.1285 48.0967 65.2524 45.9628 64.3023 44.6457C59.8187 38.4503 60.2087 30.7174 65.3669 23.4297C70.6719 15.9445 85.3209 9.58852 95.5 10.3455C99.2219 10.6211 102.696 11.7267 105.716 13.1681C106.519 13.5534 107.294 13.9619 108.029 14.3886C112.297 16.8391 115.321 19.7903 116.308 21.4008C118.157 24.4161 118.079 32.3506 117.602 36.6419C117.299 39.3633 117.804 40.5932 118.295 41.7817C118.616 42.5528 118.914 43.2778 118.974 44.3424C118.98 44.3936 118.985 44.4487 118.985 44.5039Z" fill="#160B1C"/>
<path d="M121.444 45.2109C121.43 45.2844 121.412 45.3579 121.389 45.4314L120.949 45.2981C120.972 45.2246 120.99 45.1468 121.008 45.0687C121.288 43.8524 120.972 42.4025 120.605 40.7363C120.389 39.7542 120.146 38.6435 119.994 37.4503C119.834 36.1836 119.948 34.4444 120.072 32.5993C120.279 29.4555 120.513 25.8943 119.526 23.4254C118.122 19.901 115.547 16.9776 108.03 14.3891C107.277 14.1277 106.479 13.8752 105.621 13.6227C105.616 13.618 105.611 13.618 105.607 13.618C105.575 13.6043 105.538 13.5949 105.506 13.586L105.511 13.5723L105.635 13.1455C105.662 13.1545 105.69 13.1639 105.717 13.1686C115.323 16.0001 118.356 19.2537 119.953 23.2511C120.977 25.8212 120.738 29.4375 120.532 32.6318C120.408 34.4538 120.297 36.1699 120.449 37.3956C120.596 38.5657 120.839 39.667 121.055 40.6355C121.435 42.3747 121.765 43.8891 121.444 45.2109Z" fill="#160B1C"/>
<path d="M84.2982 62.2091C84.2568 62.218 84.2111 62.2274 84.1696 62.2411C77.8179 63.797 73.3758 72.1951 70.6587 79.4645C70.5118 79.8729 70.3648 80.2723 70.2225 80.6713C70.2225 80.676 70.2178 80.6803 70.2178 80.685C69.8231 81.8278 70.5528 83.1034 71.526 83.6955C71.6225 83.7596 71.7233 83.8104 71.8241 83.8562L71.6405 84.2735C71.6037 84.2552 71.5623 84.2368 71.5255 84.2184C70.2725 83.599 69.272 81.9696 69.7906 80.5197C69.7953 80.506 69.7996 80.4966 69.8043 80.4829C72.503 72.8692 77.1608 63.489 84.0538 61.7955C84.0996 61.7819 84.1457 61.7682 84.1914 61.7588L84.2982 62.2091Z" fill="#160B1C"/>
<path d="M84.7852 80.3279L84.4823 80.6722C84.4549 80.6449 84.4225 80.6218 84.3904 80.5941C82.3206 78.8365 77.782 77.9048 74.1977 78.5153C73.8491 78.5751 73.4727 78.6575 73.0916 78.763C72.9173 78.8134 72.7383 78.8686 72.5683 78.9326C71.6182 79.277 70.7142 79.8182 70.2187 80.6859C70.214 80.6949 70.2097 80.6996 70.205 80.709L69.8055 80.4843C70.0166 80.1079 70.3011 79.7683 70.6591 79.4654C71.467 78.7908 72.6371 78.3136 74.1195 78.0611C77.6991 77.46 82.201 78.3457 84.4592 80.0622C84.5741 80.1489 84.6844 80.236 84.7852 80.3279Z" fill="#160B1C"/>
<path d="M86.3131 68.8408L85.6847 74.4351L85.2301 74.3706L86.3131 68.8408Z" fill="#160B1C"/>
<path d="M96.0973 98.1841C95.6659 98.1426 95.2485 98.1016 94.9041 98.0922C95.8128 98.8539 97.5751 100.387 97.7677 100.956C97.9053 101.36 97.8643 102.259 97.341 102.989C97.0197 103.439 96.4092 103.962 95.3173 104.017C95.2532 104.439 95.0327 105.371 94.2937 105.857C93.752 106.21 93.0637 106.257 92.2422 105.995C92.0816 106.247 91.7283 106.692 91.1088 106.912C90.87 106.995 90.618 107.036 90.3561 107.036C89.8511 107.036 89.2962 106.885 88.6994 106.577C86.2762 105.329 84.482 100.763 84.2752 100.226C83.8941 99.8357 81.439 97.2886 78.7817 94.3375C78.6395 94.1768 78.4925 94.0162 78.3502 93.8556C75.0966 90.2162 71.7003 86.1137 71.5581 84.7043C71.5397 84.539 71.5307 84.3784 71.526 84.2178C71.517 84.0388 71.517 83.8645 71.526 83.6944C71.5628 82.4325 71.8977 81.2666 72.2788 79.9542C72.3706 79.624 72.4714 79.2844 72.568 78.9306C72.6047 78.7973 72.6415 78.6598 72.6782 78.5175L73.1233 78.6367C73.1144 78.6781 73.1003 78.7192 73.0913 78.7606C72.9674 79.2241 72.8435 79.6599 72.7196 80.0824C72.2377 81.7575 71.8567 83.0793 72.013 84.6578C72.2151 86.6725 80.3611 95.5345 84.6383 99.9356L84.6887 100.018C84.7071 100.068 86.5475 104.951 88.9108 106.168C89.6956 106.571 90.3839 106.677 90.9486 106.48C91.4442 106.305 91.7334 105.938 91.8526 105.745C91.903 105.672 91.9214 105.626 91.9261 105.621L92.0132 105.424L92.2106 105.497C92.2243 105.502 92.2337 105.506 92.2473 105.511H92.252C93.0001 105.777 93.5969 105.764 94.0373 105.474C94.6752 105.057 94.8358 104.166 94.8725 103.873C94.8815 103.813 94.8815 103.776 94.8815 103.776L94.8952 103.56H95.1246C95.143 103.56 95.166 103.56 95.1844 103.556C95.9782 103.547 96.575 103.267 96.9697 102.721C97.3734 102.156 97.4426 101.417 97.3324 101.101C97.1854 100.664 95.313 99.0124 94.1702 98.0764L93.7938 97.7688L94.2668 97.6723C94.7166 97.5804 95.4095 97.6539 96.1439 97.7274C97.0983 97.8239 98.2872 97.9478 98.6909 97.6219C98.7691 97.5531 98.8101 97.4702 98.8242 97.3647C98.8563 97.0203 98.746 96.7038 98.4893 96.4009C97.0022 94.6387 91.3989 94.2072 91.3438 94.2025L91.2246 94.1931L84.1663 82.3667L84.1752 82.2885C84.1752 82.2748 84.2577 81.6276 84.391 80.5903C84.414 80.425 84.4367 80.246 84.4598 80.058C84.6524 78.5619 84.9322 76.4785 85.2309 74.3672L85.6854 74.4313C85.1578 78.1164 84.7127 81.696 84.6435 82.265L91.495 93.7518C92.358 93.8253 97.3418 94.3255 98.8426 96.1061C99.1775 96.5009 99.3245 96.9366 99.2788 97.4048C99.2557 97.6389 99.1549 97.8269 98.9806 97.9739C98.4333 98.4271 97.2448 98.3032 96.0973 98.1841Z" fill="#160B1C"/>
<path d="M95.2576 103.618L94.9636 103.967C94.9316 103.935 94.8996 103.907 94.8718 103.875C93.9678 102.99 93.2014 102.026 92.4534 101.039C93.3163 101.934 94.2156 102.811 95.1841 103.559C95.2072 103.581 95.2349 103.6 95.2576 103.618Z" fill="#160B1C"/>
<path d="M92.2839 105.541L91.9857 105.89C91.94 105.844 91.8938 105.798 91.8524 105.747C91.1133 104.967 90.5443 104.077 90.012 103.154C90.6818 104.013 91.4072 104.861 92.2467 105.513H92.2514C92.2612 105.523 92.2749 105.532 92.2839 105.541Z" fill="#160B1C"/>
<path d="M111.293 107.703L111.288 107.868L111.127 107.918C111.114 107.923 111.008 107.955 110.806 108.006C110.687 108.038 110.535 108.074 110.352 108.116C108.81 108.483 105.037 109.217 99.778 109.217C94.1056 109.217 86.7123 108.364 78.5022 105.275C78.3509 105.22 78.204 105.165 78.0523 105.105C77.9742 105.073 77.8917 105.045 77.8135 105.013L77.6576 104.949L77.6713 104.78C77.676 104.729 78.0797 99.5985 78.3505 93.8573C78.3505 93.8252 78.3552 93.7932 78.3552 93.7607L78.8093 93.7838C78.8004 93.9675 78.791 94.1555 78.782 94.3392C78.5432 99.3093 78.2083 103.733 78.1395 104.647C95.432 111.329 109.2 107.965 110.833 107.525C110.856 105.684 110.856 102.417 110.856 100.65V99.4336H111.315C111.316 99.4879 111.32 105.174 111.293 107.703Z" fill="#160B1C"/>
<path d="M96.717 117.418L96.3043 122.558V122.571L96.0885 122.544L95.8497 122.512L96.717 117.418Z" fill="#160B1C"/>
<path d="M96.3043 122.572C96.1988 123.393 96.0886 124.274 95.9694 125.206C94.8587 133.802 93.1652 146.436 92.1373 151.36L92.1006 151.534L91.9216 151.543C91.9032 151.543 91.4444 151.557 90.6502 151.562H90.1914C87.9793 151.562 83.8905 151.47 79.4159 150.937C79.2647 150.924 79.113 150.905 78.9618 150.882C77.6862 150.726 76.3827 150.529 75.084 150.286L74.882 150.245L74.8956 150.042C74.914 149.804 76.2037 131.708 77.2316 117.041C77.2547 116.674 77.2773 116.316 77.3051 115.958V115.953C77.5298 112.732 77.7366 109.712 77.9156 107.119C77.9292 106.94 77.9386 106.766 77.9523 106.596C77.9843 106.077 78.0211 105.582 78.0531 105.104C78.0578 105.054 78.0578 105.004 78.0621 104.953L78.5209 104.985C78.5162 105.082 78.5073 105.178 78.5026 105.274C77.6033 118.542 75.5655 147.16 75.3681 149.868C82.8396 151.236 90.467 151.116 91.7242 151.089C92.8623 145.504 94.7946 130.827 95.8498 122.511L96.0886 122.543L96.3043 122.572Z" fill="#160B1C"/>
<path d="M113.335 149.18L113.142 149.225C113.05 149.249 112.513 149.377 111.655 149.547C111.504 149.574 111.343 149.607 111.173 149.639C109.159 150.02 105.882 150.524 102.637 150.524C101.953 150.524 101.274 150.501 100.609 150.451C100.458 150.442 100.301 150.428 100.15 150.409C99.1175 150.313 98.1264 150.143 97.222 149.877L97.0661 149.831L95.9694 125.205L95.8502 122.553L96.089 122.544L96.3048 122.535V122.571L97.5074 149.483C102.877 150.965 111.449 149.139 112.84 148.822C110.747 125.692 110.389 110.254 110.353 108.116C110.348 107.96 110.348 107.873 110.348 107.863L110.807 107.858V108.005C110.839 109.671 111.165 125.316 113.317 148.983L113.335 149.18Z" fill="#160B1C"/>
<path d="M85.3587 109.584C83.4358 112.989 80.4804 113.237 79.6726 113.237C79.5393 113.237 79.4662 113.228 79.4615 113.228C79.3376 113.219 79.2458 113.104 79.2552 112.98C79.2688 112.852 79.3791 112.764 79.5077 112.774C79.6409 112.788 82.8762 113.049 84.9597 109.355C85.0195 109.245 85.1618 109.208 85.2716 109.268C85.3818 109.331 85.4228 109.474 85.3587 109.584Z" fill="#160B1C"/>
<path d="M52.1048 124.312C50.8886 128.148 51.9395 132.65 55.2345 137.708C58.3416 130.778 64.8766 126.294 64.9454 126.248L65.4871 125.881L65.2897 126.505C65.0787 127.185 64.9271 127.85 64.8309 128.327C65.9092 127.308 67.084 126.496 68.3187 125.643C71.1502 123.678 74.3628 121.457 77.3046 115.959V115.954C77.3135 115.941 77.3182 115.927 77.3276 115.913L77.736 116.129C77.5664 116.445 77.4011 116.748 77.2311 117.042C74.3718 122.012 71.3066 124.133 68.5805 126.019C67.1669 126.996 65.8272 127.923 64.6383 129.163L64.138 129.681L64.2482 128.97C64.2529 128.928 64.3815 128.071 64.666 127.019C63.014 128.267 57.9704 132.421 55.4875 138.277L55.3221 138.667L55.0833 138.313C51.5268 132.994 50.3793 128.235 51.6644 124.174C53.8717 117.216 62.4766 113.907 67.6168 111.934L67.9286 111.81C69.9203 111.044 72.0268 109.851 74.0646 108.694C75.4368 107.914 76.7402 107.175 77.9518 106.597C77.9932 106.574 78.0342 106.555 78.0757 106.537L78.2683 106.95C78.1534 107.005 78.0342 107.06 77.915 107.12C76.7859 107.675 75.5701 108.368 74.294 109.093C72.2379 110.259 70.1176 111.461 68.094 112.241L67.7821 112.36C62.7197 114.307 54.2434 117.565 52.1048 124.312Z" fill="#160B1C"/>
<path d="M108.989 71.4427L108.544 71.5713C108.112 69.7907 107.621 68.0191 107.057 66.2705C107.763 67.9687 108.401 69.6942 108.989 71.4427Z" fill="#160B1C"/>
<path d="M111.311 99.4329C111.104 100.025 110.948 100.447 110.856 100.649C110.838 100.695 110.824 100.727 110.81 100.75C110.352 101.585 108.222 105.114 106.891 105.775C106.528 105.959 106.185 106.051 105.863 106.051C105.675 106.051 105.492 106.019 105.322 105.954C104.876 105.798 104.597 105.468 104.459 105.257C103.913 105.459 103.431 105.449 103.027 105.22C102.421 104.876 102.187 104.142 102.1 103.765C101.563 103.788 100.984 103.481 100.599 102.944C100.14 102.31 100.094 101.553 100.484 100.92C100.814 100.383 102.347 99.0937 103.123 98.4554C102.802 98.4371 102.471 98.4418 102.15 98.4418C101.333 98.4465 100.627 98.4554 100.282 98.0701C100.126 97.8911 100.062 97.6523 100.099 97.3588C100.305 95.6884 103.068 95.1053 104.55 94.7934C104.839 94.7293 105.165 94.6605 105.275 94.6191C105.624 93.9351 108.469 86.0326 110.342 80.7596C110.186 78.2583 109.58 75.17 108.543 71.5721L108.988 71.4435C109.763 74.1511 110.3 76.5742 110.59 78.6808C110.613 78.8367 110.635 78.9927 110.649 79.1443C110.723 79.7134 110.773 80.2593 110.805 80.778L110.81 80.8237L110.792 80.8651C108.965 86.019 105.858 94.6926 105.606 94.9498C105.5 95.0553 105.289 95.1057 104.647 95.239C103.371 95.5098 100.718 96.0695 100.557 97.4143C100.525 97.6531 100.603 97.7356 100.626 97.7629C100.833 97.9923 101.471 97.9876 102.145 97.9834C102.646 97.9787 103.206 97.974 103.733 98.0615L104.242 98.144L103.839 98.4653C103.127 99.039 101.2 100.636 100.874 101.159C100.585 101.632 100.621 102.197 100.97 102.678C101.292 103.119 101.792 103.371 102.196 103.293C102.209 103.293 102.219 103.293 102.232 103.288L102.485 103.224L102.512 103.482C102.512 103.482 102.517 103.527 102.535 103.596C102.586 103.867 102.765 104.546 103.256 104.821C103.559 104.996 103.958 104.977 104.43 104.776C104.435 104.776 104.435 104.771 104.44 104.771C104.449 104.771 104.454 104.766 104.463 104.762L104.674 104.665L104.766 104.876C104.771 104.876 104.793 104.931 104.848 105.009C104.949 105.165 105.156 105.413 105.477 105.528C105.826 105.647 106.23 105.597 106.689 105.367C107.726 104.849 109.654 101.912 110.406 100.53C111.099 99.2586 116.133 83.3066 115.807 81.4111C115.734 80.9933 115.523 80.1995 115.192 79.167C115.142 78.9974 115.087 78.8226 115.027 78.6436C113.338 73.5727 109.208 63.9259 104.311 62.7143C104.247 62.6959 104.178 62.6823 104.113 62.6686L104.205 62.2188C104.292 62.2371 104.384 62.2555 104.471 62.2786C111.222 64.0135 116.009 79.8877 116.257 81.3333C116.584 83.219 112.743 95.3394 111.311 99.4329Z" fill="#160B1C"/>
<path d="M106.621 102.416C106.148 103.366 105.652 104.297 104.849 105.009C104.794 105.069 104.739 105.114 104.684 105.16L104.432 104.775C104.436 104.775 104.436 104.77 104.441 104.77C105.336 104.229 106.024 103.288 106.621 102.416Z" fill="#160B1C"/>
<path d="M104.56 101.186C104.032 102.081 103.353 102.907 102.536 103.595C102.5 103.632 102.458 103.664 102.417 103.696L102.156 103.319C102.169 103.31 102.183 103.301 102.197 103.292C103.087 102.75 103.89 102.021 104.56 101.186Z" fill="#160B1C"/>
<path d="M92.6513 165.565C91.1321 166.381 88.4796 165.588 87.9106 165.399C86.9604 165.978 85.974 166.175 85.0696 166.175C83.436 166.175 82.0775 165.527 81.6827 165.321C80.5536 165.858 78.6585 165.766 77.3735 165.096C76.4558 164.614 75.9188 163.908 75.8223 163.045C75.5698 160.791 76.5566 158.199 77.511 155.688C78.1672 153.949 78.7961 152.301 78.9614 150.884C78.9704 150.81 78.9798 150.737 78.9845 150.663L79.4433 150.705C79.4386 150.783 79.4296 150.86 79.4159 150.939C79.2463 152.407 78.6081 154.082 77.9382 155.849C77.0065 158.309 76.0384 160.852 76.2815 162.995C76.3781 163.88 77.0432 164.404 77.5849 164.688C78.7367 165.289 80.4899 165.381 81.4811 164.904C81.5131 164.89 81.5452 164.876 81.5776 164.858L81.6921 164.799L81.8023 164.863C81.807 164.863 81.8485 164.89 81.9262 164.931C82.5273 165.234 85.2764 166.469 87.6811 165C87.7085 164.987 87.7316 164.973 87.7593 164.954L87.8559 164.895L87.9614 164.931C87.9661 164.931 88.0255 164.955 88.1357 164.987C88.7966 165.193 91.1509 165.849 92.436 165.161C94.8591 163.862 94.6113 161.568 94.2486 160.315C94.079 159.746 93.5326 158.97 92.9038 158.075C91.6187 156.253 90.0265 154 90.1914 151.563C90.1961 151.481 90.2051 151.394 90.2145 151.311L90.6686 151.361C90.6596 151.43 90.6549 151.499 90.6502 151.563C90.4849 153.853 92.0271 156.042 93.2754 157.814C93.9316 158.741 94.5007 159.544 94.6844 160.186C95.3726 162.545 94.6335 164.504 92.6513 165.565Z" fill="#160B1C"/>
<path d="M88.1353 164.986C88.1263 165.054 88.1169 165.123 88.1079 165.192L87.6581 165.1C87.6671 165.068 87.6765 165.031 87.6812 164.999C88.0071 163.696 88.1998 162.337 88.1861 160.975C88.3416 162.296 88.3096 163.65 88.1353 164.986Z" fill="#160B1C"/>
<path d="M82.4215 160.975C82.169 162.287 81.9994 163.609 81.9259 164.931C81.9212 164.981 81.9212 165.036 81.917 165.086L81.4581 165.036C81.4671 164.99 81.4718 164.949 81.4812 164.903C81.7055 163.568 82.0267 162.26 82.4215 160.975Z" fill="#160B1C"/>
<path d="M126.162 157.84C126.166 159.061 125.514 160.126 124.679 160.3C124.436 160.865 123.293 163.049 120.599 163.003C120.379 163.508 119.507 164.917 116.63 164.917C112.683 164.917 101.348 158.116 100.709 155.918C100.196 154.16 100.149 151.227 100.149 150.41V150.199L100.608 150.204V150.452C100.613 151.305 100.668 154.137 101.15 155.789C101.641 157.487 112.701 164.458 116.629 164.458C119.484 164.458 120.117 163.004 120.214 162.747C120.214 162.738 120.218 162.728 120.218 162.719C120.223 162.714 120.223 162.71 120.223 162.71L120.273 162.535L120.452 162.54C120.531 162.545 120.608 162.545 120.682 162.545C123.261 162.535 124.17 160.361 124.285 160.053C124.294 160.035 124.298 160.026 124.298 160.021L124.349 159.879L124.496 159.865C124.564 159.86 124.633 159.842 124.702 159.815C125.257 159.604 125.702 158.754 125.702 157.841C125.698 157.309 125.5 155.556 123.036 155.368C118.502 155.014 112.375 152.885 111.59 152.288C110.948 151.802 111.077 150.324 111.173 149.641C111.196 149.475 111.218 149.351 111.228 149.306L111.682 149.393C111.673 149.443 111.664 149.494 111.655 149.549C111.512 150.366 111.462 151.614 111.87 151.921C112.494 152.399 118.511 154.556 123.073 154.909C125.34 155.082 126.157 156.537 126.162 157.84Z" fill="#160B1C"/>
<path d="M120.682 162.545C120.682 162.632 120.682 162.714 120.673 162.797L120.214 162.747C120.214 162.738 120.219 162.728 120.219 162.719C120.435 161.366 119.508 160.104 118.273 159.608C117.851 159.424 117.401 159.31 116.942 159.223C117.406 159.273 117.869 159.351 118.315 159.498C119.636 159.91 120.682 161.136 120.682 162.545Z" fill="#160B1C"/>
<path d="M124.744 160.103L124.289 160.089C124.289 160.076 124.289 160.066 124.284 160.052C124.197 158.111 122.004 156.927 120.214 156.877C122.054 156.785 124.349 157.849 124.702 159.814C124.721 159.91 124.734 160.006 124.744 160.103Z" fill="#160B1C"/>
<path d="M115.446 78.7671L115.29 79.1986C115.285 79.1986 115.253 79.1849 115.193 79.1665C114.73 79.0243 112.701 78.4873 110.65 79.1435C110.59 79.1571 110.535 79.1802 110.476 79.1986L110.324 78.7671C110.411 78.735 110.503 78.7073 110.59 78.6799C112.449 78.1062 114.239 78.4368 115.028 78.6432C115.271 78.7073 115.423 78.7577 115.446 78.7671Z" fill="#160B1C"/>
<path d="M110.921 40.3776L110.659 40.7587C109.209 39.6573 107.928 38.3356 106.933 36.8164C108.039 38.2253 109.411 39.4275 110.921 40.3776Z" fill="#160B1C"/>
</svg>
