<svg width="303" height="283" viewBox="0 0 303 283" fill="none" xmlns="http://www.w3.org/2000/svg">
<path d="M86.9283 76.3811C86.4711 75.6647 85.8028 75.1078 85.0157 74.7873C84.2698 74.4397 83.4343 74.3327 82.6249 74.4813C82.2057 74.5809 81.8106 74.763 81.4625 75.0169C81.1144 75.2708 80.8204 75.5916 80.5976 75.9604C80.3295 76.405 80.1741 76.9083 80.1449 77.4267C79.7647 77.1548 79.3294 76.9698 78.8698 76.8848C78.4407 76.8103 78.0009 76.8233 77.577 76.9229C77.153 77.0226 76.7535 77.207 76.4026 77.4649C75.7561 77.9766 75.2839 78.6759 75.051 79.4668C74.7869 80.2639 74.7735 81.1228 75.0127 81.9277C75.3383 82.9512 75.9814 83.8444 76.8488 84.4779C77.8005 85.0799 78.8827 85.445 80.0047 85.5425C81.8471 85.7593 84.2443 85.9888 84.2443 85.9888C84.2443 85.9888 85.309 84.0762 86.3609 82.527C87.0272 81.6179 87.4646 80.5617 87.636 79.4477C87.7364 78.376 87.4882 77.3005 86.9283 76.3811Z" fill="#E0E0E0"/>
<path d="M222.584 126.109C222.425 125.283 222.015 124.526 221.411 123.941C220.844 123.343 220.103 122.937 219.294 122.781C218.605 122.669 217.898 122.786 217.282 123.114C216.666 123.442 216.174 123.964 215.883 124.598C215.628 124.205 215.288 123.874 214.889 123.629C214.517 123.402 214.104 123.253 213.673 123.191C213.242 123.13 212.803 123.157 212.383 123.272C211.593 123.507 210.897 123.984 210.394 124.636C209.856 125.283 209.531 126.08 209.463 126.919C209.39 127.988 209.663 129.052 210.241 129.953C210.909 130.861 211.783 131.597 212.791 132.102C214.423 132.975 216.578 134.059 216.578 134.059C216.578 134.059 218.274 132.65 219.81 131.611C220.762 131.006 221.556 130.182 222.125 129.208C222.606 128.251 222.767 127.164 222.584 126.109Z" fill="#E0E0E0"/>
<path d="M166.429 33.4812C166.437 32.4 166.117 31.3418 165.511 30.4465C164.951 29.5568 164.129 28.8621 163.159 28.4574C162.32 28.1372 161.399 28.1024 160.538 28.3582C159.677 28.614 158.924 29.1463 158.396 29.8727C158.174 29.3111 157.83 28.8059 157.389 28.3936C156.977 28.015 156.494 27.7232 155.967 27.5359C155.44 27.3486 154.881 27.2695 154.322 27.3034C153.268 27.401 152.272 27.8269 151.473 28.5211C150.631 29.1983 150.017 30.1173 149.713 31.1542C149.351 32.483 149.424 33.8932 149.923 35.177C150.531 36.4899 151.442 37.6394 152.582 38.5305C154.424 40.0478 156.853 41.9668 156.853 41.9668C156.853 41.9668 159.353 40.6216 161.558 39.7035C162.907 39.1811 164.112 38.3439 165.071 37.2618C165.92 36.1808 166.396 34.8548 166.429 33.4812Z" fill="#E0E0E0"/>
<path d="M257.776 80.5888C257.671 78.3012 256.868 76.1006 255.474 74.2835C254.174 72.4557 252.335 71.0803 250.214 70.3499C249.083 69.998 247.891 69.8792 246.712 70.0009C245.533 70.1225 244.391 70.482 243.355 71.0576C242.118 71.7479 241.069 72.7307 240.301 73.9202C239.534 72.2511 238.255 70.8695 236.651 69.9754C235.046 69.0814 233.198 68.7213 231.375 68.9474C229.157 69.2811 227.098 70.3023 225.491 71.8673C223.789 73.397 222.601 75.4139 222.086 77.6434C221.47 80.508 221.794 83.4952 223.011 86.1609C224.318 88.864 226.626 91.1655 229.042 92.9443C233.116 95.9343 238.497 99.7022 238.497 99.7022C238.497 99.7022 243.597 96.5527 248.168 94.3532C250.871 93.0399 253.555 91.1656 255.328 88.7748C257.002 86.38 257.86 83.5096 257.776 80.5888Z" fill="#F5F5F5"/>
<path d="M72.826 21.2596C71.8185 19.2055 70.2052 17.5099 68.2038 16.4015C66.2889 15.2433 64.0598 14.7127 61.8284 14.8842C59.9305 15.074 58.1482 15.8847 56.758 17.1908C55.3678 18.4968 54.4475 20.2251 54.1397 22.1075C52.7698 20.8901 51.0484 20.1395 49.2241 19.9642C47.3997 19.7888 45.5669 20.1978 43.9901 21.1321C42.0875 22.3189 40.6065 24.0743 39.7569 26.1495C38.8057 28.2333 38.5186 30.5592 38.9345 32.8118C39.5099 35.6715 40.9922 38.2695 43.1613 40.22C45.4373 42.1836 48.4657 43.3694 51.3983 44.0452C56.3265 45.1609 62.7593 46.4806 62.7593 46.4806C62.7593 46.4806 66.202 41.5333 69.498 37.7081C71.4553 35.4257 73.1766 32.6715 73.8397 29.7388C74.4219 26.8769 74.0665 23.9036 72.826 21.2596Z" fill="#F5F5F5"/>
<path d="M210.592 9.79663C210.429 7.73099 209.634 5.76552 208.316 4.16717C207.089 2.54962 205.385 1.35863 203.445 0.762717C201.786 0.294931 200.02 0.386818 198.419 1.02415C196.818 1.66149 195.472 2.80873 194.589 4.2883C194.067 3.2522 193.323 2.34435 192.409 1.62977C191.555 0.980326 190.58 0.509555 189.54 0.245569C188.501 -0.0184175 187.419 -0.070204 186.359 0.0933028C184.362 0.462291 182.532 1.4478 181.125 2.91122C179.631 4.34774 178.614 6.2081 178.211 8.24104C177.742 10.8421 178.125 13.5249 179.301 15.8915C180.685 18.3022 182.626 20.3462 184.963 21.8525C188.737 24.4026 193.716 27.6859 193.716 27.6859C193.716 27.6859 198.262 24.6831 202.31 22.5856C204.803 21.36 206.966 19.5567 208.622 17.326C210.073 15.0945 210.765 12.4532 210.592 9.79663Z" fill="#F5F5F5"/>
<path d="M57.5888 148.04C57.5116 147.074 57.14 146.155 56.5241 145.407C55.9504 144.651 55.1546 144.094 54.2481 143.813C53.4752 143.594 52.6515 143.636 51.9047 143.932C51.1578 144.228 50.5295 144.762 50.1169 145.452C49.769 144.762 49.2116 144.199 48.5244 143.845C47.8372 143.491 47.0556 143.364 46.2917 143.482C45.3488 143.653 44.4848 144.12 43.8244 144.814C43.1274 145.484 42.6533 146.352 42.4664 147.301C42.2483 148.515 42.4271 149.767 42.9765 150.871C43.6209 151.997 44.526 152.953 45.6159 153.657C47.3818 154.862 49.7089 156.379 49.7089 156.379C49.7089 156.379 51.8255 154.977 53.719 153.982C54.8837 153.41 55.8955 152.568 56.6708 151.528C57.3399 150.492 57.6615 149.271 57.5888 148.04Z" fill="#F5F5F5"/>
<path d="M123.191 7.49516C123.228 6.34749 122.91 5.21647 122.28 4.25646C121.703 3.29415 120.837 2.53798 119.806 2.09521C119.254 1.87699 118.663 1.77296 118.069 1.78939C117.475 1.80583 116.89 1.94239 116.351 2.19084C115.703 2.48707 115.138 2.9381 114.706 3.50417C114.482 2.90259 114.127 2.35823 113.667 1.91032C113.237 1.49988 112.728 1.18048 112.171 0.971246C111.615 0.76201 111.022 0.667244 110.428 0.692627C109.308 0.77884 108.243 1.21107 107.381 1.92945C106.475 2.6319 105.808 3.59556 105.468 4.68999C105.054 6.09186 105.103 7.58979 105.608 8.96149C106.224 10.3709 107.171 11.6109 108.369 12.5763C110.281 14.2276 112.831 16.3123 112.831 16.3123C112.831 16.3123 115.516 14.9288 117.868 14.0044C119.316 13.4697 120.615 12.5951 121.655 11.4543C122.577 10.3323 123.115 8.94501 123.191 7.49516Z" fill="#F5F5F5"/>
<path d="M45.6924 95.4499C45.7516 93.5706 45.2307 91.7185 44.2005 90.1456C43.2448 88.5639 41.8148 87.3236 40.1139 86.6009C38.6701 86.0269 37.0779 85.9418 35.5811 86.3586C34.0843 86.7754 32.7653 87.6712 31.8259 88.9088C31.2963 87.4969 30.3315 86.29 29.0708 85.4625C27.8102 84.6351 26.3191 84.23 24.813 84.3057C22.9764 84.4445 21.229 85.1533 19.8147 86.3331C18.3293 87.4828 17.2322 89.0605 16.6717 90.8533C15.9938 93.155 16.0742 95.6137 16.9012 97.8662C17.9146 100.174 19.4642 102.207 21.4213 103.795C24.609 106.498 28.7466 109.916 28.7466 109.916C28.7466 109.916 33.1393 107.652 36.9964 106.129C39.3662 105.27 41.4956 103.855 43.206 102.004C44.7202 100.145 45.5924 97.8456 45.6924 95.4499Z" fill="#F5F5F5"/>
<path d="M284.361 116.125C284.397 114.928 284.066 113.749 283.411 112.746C282.803 111.744 281.898 110.956 280.823 110.489C279.9 110.115 278.879 110.057 277.92 110.324C276.961 110.59 276.116 111.166 275.518 111.962C275.184 111.062 274.571 110.291 273.768 109.764C272.965 109.236 272.015 108.979 271.056 109.029C269.885 109.108 268.77 109.555 267.868 110.305C266.922 111.038 266.223 112.043 265.866 113.186C265.431 114.65 265.482 116.216 266.013 117.649C266.656 119.119 267.642 120.413 268.888 121.423C270.896 123.145 273.555 125.319 273.555 125.319C273.555 125.319 276.347 123.878 278.808 122.909C280.315 122.359 281.67 121.459 282.761 120.282C283.728 119.105 284.289 117.647 284.361 116.125Z" fill="#F5F5F5"/>
<path d="M241.984 36.8474C242.018 35.7968 241.726 34.7614 241.149 33.8829C240.622 33.0054 239.832 32.3161 238.892 31.9129C238.087 31.5869 237.198 31.5351 236.361 31.7656C235.525 31.9961 234.787 32.496 234.263 33.1879C234.048 32.6474 233.715 32.1618 233.288 31.7662C232.897 31.3922 232.435 31.1012 231.929 30.9105C231.422 30.7199 230.883 30.6336 230.342 30.6569C229.32 30.7313 228.348 31.1261 227.563 31.7854C226.737 32.4242 226.127 33.3009 225.816 34.2973C225.436 35.5732 225.481 36.9379 225.943 38.1862C226.507 39.4688 227.368 40.5986 228.455 41.4823C230.209 42.9805 232.529 44.8868 232.529 44.8868C232.529 44.8868 234.965 43.6117 237.113 42.7829C238.43 42.3042 239.612 41.5172 240.562 40.4878C241.416 39.4592 241.915 38.1823 241.984 36.8474Z" fill="#F5F5F5"/>
<path d="M47.2161 247.758C54.229 257.321 66.7694 265.845 77.8179 270.135C88.8664 274.426 97.2182 276.511 108.828 278.978C131.97 283.919 162.037 282.344 187.36 278.181C212.683 274.018 238.324 266.068 255.391 246.942L47.2161 247.758Z" fill="#EBEBEB"/>
<path d="M233.721 248.338L233.383 248.625C233.141 248.81 232.803 249.084 232.363 249.434C231.477 250.148 230.126 251.149 228.347 252.386C226.568 253.623 224.324 255.051 221.634 256.562C218.588 258.261 215.456 259.8 212.249 261.171C203.871 264.701 195.119 267.268 186.161 268.822C176.069 270.664 164.784 271.493 152.958 271.57C141.132 271.646 129.841 271.257 119.66 269.944C114.839 269.332 110.061 268.423 105.353 267.222C101.253 266.173 97.2347 264.828 93.3292 263.199C87.6563 260.865 82.3215 257.781 77.4672 254.031C75.765 252.686 74.5027 251.564 73.6803 250.78L72.7431 249.881C72.5327 249.677 72.4371 249.562 72.4371 249.562L72.7686 249.855L73.7249 250.729C74.5665 251.5 75.8352 252.603 77.5501 253.916C82.4227 257.616 87.7599 260.659 93.4248 262.969C97.3253 264.581 101.337 265.909 105.43 266.941C110.129 268.121 114.896 269.011 119.704 269.606C129.86 270.881 141.138 271.225 152.958 271.206C164.778 271.187 176.031 270.314 186.11 268.49C195.052 266.954 203.792 264.415 212.166 260.923C215.368 259.572 218.498 258.057 221.544 256.383C224.235 254.885 226.473 253.47 228.27 252.265C230.068 251.06 231.426 250.059 232.325 249.358L233.358 248.574C233.594 248.421 233.721 248.338 233.721 248.338Z" fill="white"/>
<path d="M193.397 246.82C193.397 246.82 193.346 246.871 193.225 246.961L192.709 247.337C192.256 247.668 191.561 248.127 190.649 248.695C188.057 250.264 185.323 251.585 182.482 252.641C178.267 254.202 173.903 255.326 169.458 255.995C164.017 256.808 158.523 257.209 153.022 257.193C147.526 257.267 142.03 257.032 136.561 256.492C132.083 256.044 127.676 255.06 123.434 253.559C120.574 252.533 117.856 251.149 115.343 249.441C114.464 248.803 113.813 248.3 113.38 247.936L112.902 247.509L112.742 247.362C112.806 247.396 112.866 247.436 112.921 247.483L113.424 247.885C113.864 248.236 114.527 248.727 115.414 249.332C117.938 250.985 120.652 252.327 123.497 253.33C127.732 254.787 132.123 255.741 136.58 256.173C142.04 256.695 147.524 256.921 153.009 256.849C158.492 256.865 163.969 256.475 169.394 255.682C173.824 255.029 178.177 253.931 182.387 252.405C185.224 251.381 187.961 250.1 190.566 248.58C191.485 248.038 192.192 247.598 192.658 247.305L193.193 246.954L193.397 246.82Z" fill="white"/>
<path d="M287.982 247.254C287.982 247.343 226.141 247.42 149.923 247.42C73.7058 247.42 11.8519 247.343 11.8519 247.254C11.8519 247.165 73.6548 247.088 149.923 247.088C226.192 247.088 287.982 247.158 287.982 247.254Z" fill="#263238"/>
<path d="M301.677 190.156C300.883 190.237 300.12 190.503 299.447 190.933C298.775 191.362 298.213 191.944 297.807 192.63C302.091 185.955 303.181 176.921 300.656 169.124C300.159 167.613 299.42 166.006 298.055 165.413C297.595 165.246 297.092 165.235 296.624 165.381C296.157 165.528 295.75 165.823 295.467 166.223C295.83 163.945 295.843 161.625 295.505 159.344C295.352 158.324 295.072 157.221 294.3 156.615C293.236 155.774 291.661 156.328 290.845 157.425C290.029 158.522 289.767 159.975 289.57 161.39C285.343 150.552 275.544 142.532 264.929 141.168C262.819 140.894 260.466 140.932 258.853 142.379C257.24 143.826 256.909 147.116 258.758 148.308C256.756 147.575 254.658 146.906 252.58 147.18C250.501 147.454 248.436 148.914 247.964 151.145C247.326 154.04 249.532 156.787 251.789 158.49C254.869 160.798 258.388 162.27 261.658 164.227C264.929 166.185 268.078 168.83 269.596 172.56C271.508 177.316 270.393 182.888 268.244 187.447C264.234 195.97 256.698 202.359 248.136 204.482L255.111 219.891C263.934 225.909 287.829 221.007 294.778 212.795C295.875 211.52 296.895 209.894 296.787 208.109C296.678 206.324 294.874 204.615 293.433 205.4C298.183 202.193 303.742 192.343 301.677 190.156Z" fill="#0077B6"/>
<g opacity="0.6">
<path d="M247.951 151.126C247.314 154.02 249.52 156.768 251.776 158.471C254.856 160.778 258.375 162.251 261.646 164.208C263.025 165.027 264.327 165.97 265.535 167.026C266.867 165.86 267.371 163.673 267.052 161.754C266.688 159.548 265.49 157.616 264.323 155.761C265.836 157.696 267.725 159.306 269.876 160.491C270.66 160.919 271.566 161.288 272.382 160.963C273.701 160.428 273.912 158.413 273.389 156.947C272.866 155.48 271.859 154.263 271.476 152.765C272.608 153.914 273.896 154.899 275.302 155.691C275.982 156.074 276.739 156.3 277.518 156.353C278.296 156.406 279.077 156.284 279.803 155.997C281.435 155.238 282.461 153.351 282.665 151.413C282.694 151.125 282.707 150.835 282.703 150.546C277.871 145.446 271.566 141.99 264.942 141.142C262.831 140.868 260.479 140.906 258.866 142.354C257.253 143.801 256.921 147.09 258.77 148.283C256.768 147.549 254.671 146.88 252.593 147.154C250.514 147.428 248.404 148.895 247.951 151.126Z" fill="white"/>
</g>
<path d="M245.401 183.124L226.504 172.923C226.504 172.923 214.971 166.427 209.157 160.778C198.835 150.75 196.406 142.041 196.406 142.041L140.686 167.619L129.369 171.208C130.785 177.131 130.995 188.333 134.795 199.789C135.847 202.977 138.951 205.91 139.092 204.845C139.2 203.959 139.092 205.432 139.092 205.432C141.062 210.634 143.338 217.385 150.089 222.084C155.145 229.734 165.951 234.108 170.369 236.633C176.904 240.362 201.704 247.681 201.704 247.681L220.99 249.154L269.328 210.793C269.328 210.793 266.44 194.039 245.401 183.124Z" fill="#0077B6"/>
<path d="M179.843 225.233C183.146 228.128 184.414 232.699 184.867 237.06C185.32 241.42 185.116 245.883 186.212 250.129C184.038 249.492 181.628 251.239 181.15 253.457C180.672 255.676 181.832 258.016 183.624 259.405C185.49 260.725 187.714 261.445 189.999 261.471C193.824 261.681 197.949 260.617 200.576 257.792C202.986 255.204 203.827 251.576 204.784 248.166C206.416 242.326 208.609 236.652 210.292 230.825C211.975 224.998 213.103 218.903 212.517 212.865L214.162 213.439C216.195 214.032 214.251 207.217 212.217 204.15" fill="#0077B6"/>
<path d="M212.204 204.15C212.367 204.368 212.516 204.596 212.651 204.832C213.048 205.521 213.402 206.234 213.709 206.968C214.207 208.146 214.6 209.367 214.882 210.615C214.969 210.997 215.031 211.385 215.067 211.775C215.126 212.201 215.103 212.634 214.997 213.05C214.969 213.173 214.908 213.285 214.82 213.375C214.732 213.465 214.621 213.529 214.5 213.56C214.375 213.583 214.248 213.583 214.123 213.56L213.798 213.445L212.472 212.993L212.6 212.884C212.879 215.898 212.802 218.935 212.37 221.931C211.829 225.576 210.999 229.172 209.89 232.686C208.749 236.511 207.34 240.471 205.988 244.691C205.306 246.795 204.713 248.982 204.076 251.2C203.497 253.503 202.451 255.662 201.003 257.544C198.992 259.763 196.235 261.166 193.257 261.484C191.836 261.679 190.397 261.696 188.973 261.535C187.577 261.394 186.216 261.015 184.95 260.413C183.713 259.814 182.662 258.891 181.909 257.741C181.167 256.631 180.819 255.305 180.92 253.974C181.15 251.334 183.86 249.294 186.25 249.983L186.078 250.148C185.116 246.259 185.16 242.587 184.943 239.399C184.852 236.642 184.387 233.91 183.56 231.277C183.024 229.587 182.186 228.008 181.086 226.617C180.798 226.252 180.487 225.905 180.155 225.578C179.932 225.361 179.818 225.233 179.818 225.233C180.308 225.631 180.756 226.077 181.156 226.566C182.287 227.948 183.152 229.528 183.707 231.226C184.56 233.871 185.043 236.622 185.141 239.399C185.377 242.587 185.358 246.259 186.32 250.091L186.378 250.327L186.148 250.263C183.962 249.626 181.386 251.538 181.195 254.012C181.1 255.277 181.434 256.537 182.145 257.588C182.868 258.69 183.88 259.572 185.071 260.139C186.303 260.724 187.628 261.091 188.985 261.222C190.382 261.384 191.794 261.367 193.187 261.171C196.107 260.863 198.809 259.485 200.773 257.302C202.191 255.452 203.215 253.333 203.783 251.073C204.42 248.873 205 246.667 205.695 244.564C207.034 240.337 208.475 236.358 209.629 232.571C210.745 229.073 211.583 225.491 212.134 221.861C212.576 218.885 212.673 215.869 212.421 212.872V212.719L212.568 212.77L213.894 213.235C214.091 213.334 214.311 213.383 214.531 213.375C214.621 213.349 214.701 213.299 214.764 213.231C214.827 213.162 214.87 213.078 214.889 212.986C214.99 212.595 215.016 212.188 214.965 211.788C214.929 211.404 214.871 211.023 214.793 210.647C214.523 209.405 214.148 208.19 213.671 207.013C213.377 206.278 213.043 205.561 212.67 204.864C212.542 204.635 212.44 204.462 212.37 204.329C212.309 204.275 212.253 204.215 212.204 204.15Z" fill="#263238"/>
<path d="M188.794 252.252C188.794 252.303 188.322 252.514 187.627 253.005C186.716 253.632 185.949 254.446 185.375 255.392C184.801 256.339 184.435 257.396 184.299 258.494C184.185 259.335 184.223 259.871 184.172 259.877C184.037 259.42 184 258.94 184.064 258.468C184.14 257.318 184.492 256.203 185.09 255.218C185.688 254.232 186.515 253.405 187.5 252.807C187.887 252.532 188.328 252.342 188.794 252.252Z" fill="#263238"/>
<path d="M193.557 252.558C193.588 252.603 193.097 252.915 192.447 253.559C191.594 254.387 190.927 255.387 190.49 256.492C190.059 257.602 189.864 258.79 189.916 259.979C189.961 260.891 190.101 261.452 190.05 261.465C189.832 261.003 189.708 260.502 189.687 259.992C189.557 258.762 189.726 257.519 190.179 256.368C190.631 255.217 191.355 254.193 192.288 253.381C192.65 253.023 193.082 252.743 193.557 252.558Z" fill="#263238"/>
<path d="M146.455 219.438C148.514 223.735 150.816 227.369 151.262 231.73C151.709 236.091 151.517 240.553 152.607 244.799C150.433 244.162 148.03 245.915 147.552 248.127C147.074 250.34 148.228 252.692 150.019 254.082C151.888 255.395 154.11 256.113 156.394 256.141C160.22 256.358 164.345 255.287 166.971 252.463C169.381 249.874 171.351 240.911 172.072 237.442" fill="#0077B6"/>
<path d="M172.084 237.442C172.09 237.506 172.09 237.57 172.084 237.634C172.059 237.774 172.027 237.959 171.989 238.188C171.893 238.673 171.753 239.393 171.549 240.311C171 242.901 170.298 245.456 169.445 247.962C169.171 248.759 168.807 249.575 168.45 250.416C168.052 251.299 167.507 252.107 166.837 252.807C165.298 254.295 163.383 255.337 161.297 255.822C159 256.385 156.609 256.453 154.284 256.02C153.053 255.8 151.868 255.369 150.784 254.745C149.656 254.094 148.727 253.148 148.094 252.01C147.623 251.177 147.357 250.244 147.316 249.288C147.272 248.339 147.526 247.401 148.043 246.604C148.541 245.835 149.249 245.224 150.083 244.844C150.487 244.66 150.917 244.542 151.358 244.493C151.797 244.46 152.239 244.501 152.665 244.615L152.467 244.806C151.53 241.051 151.549 237.436 151.345 234.261C151.297 232.762 151.126 231.269 150.835 229.798C150.546 228.55 150.147 227.329 149.643 226.151C148.725 223.997 147.845 222.326 147.297 221.191C147.016 220.611 146.799 220.171 146.659 219.865C146.595 219.725 146.544 219.61 146.506 219.515C146.468 219.419 146.455 219.4 146.462 219.394C146.489 219.429 146.512 219.468 146.532 219.508C146.576 219.598 146.634 219.706 146.71 219.84C146.87 220.159 147.099 220.592 147.386 221.115C147.966 222.256 148.871 223.888 149.821 226.049C150.354 227.234 150.78 228.462 151.096 229.722C151.399 231.192 151.58 232.685 151.638 234.184C151.868 237.372 151.868 240.968 152.799 244.672L152.869 244.946L152.601 244.863C151.045 244.398 149.248 245.284 148.323 246.725C147.871 247.496 147.639 248.375 147.651 249.269C147.664 250.162 147.92 251.035 148.393 251.793C148.994 252.877 149.875 253.779 150.943 254.407C151.994 255.013 153.141 255.432 154.335 255.644C156.605 256.066 158.938 256.005 161.182 255.465C163.218 255.003 165.09 253.998 166.601 252.558C167.254 251.882 167.786 251.099 168.176 250.244C168.555 249.455 168.891 248.646 169.183 247.821C170.056 245.313 170.792 242.759 171.389 240.171C171.602 239.27 171.768 238.569 171.887 238.067C171.938 237.838 171.982 237.659 172.014 237.519C172.036 237.492 172.059 237.466 172.084 237.442Z" fill="#263238"/>
<path d="M155.196 246.922C155.196 246.973 154.724 247.184 154.023 247.675C153.113 248.304 152.346 249.118 151.773 250.064C151.2 251.01 150.832 252.066 150.695 253.164C150.58 254.012 150.625 254.547 150.567 254.547C150.432 254.093 150.395 253.615 150.459 253.145C150.539 251.995 150.893 250.881 151.491 249.895C152.088 248.909 152.913 248.08 153.895 247.477C154.286 247.205 154.729 247.016 155.196 246.922Z" fill="#263238"/>
<path d="M159.971 247.254C159.971 247.299 159.518 247.605 158.862 248.249C158.014 249.083 157.348 250.084 156.904 251.188C156.476 252.296 156.282 253.481 156.337 254.669C156.375 255.587 156.522 256.141 156.465 256.154C156.245 255.695 156.122 255.196 156.101 254.688C155.974 253.461 156.143 252.222 156.595 251.075C157.046 249.928 157.767 248.906 158.696 248.096C159.057 247.729 159.492 247.442 159.971 247.254Z" fill="#263238"/>
<path d="M176.808 239.17C176.622 239.144 176.439 239.101 176.26 239.043C175.909 238.947 175.38 238.819 174.717 238.609C172.836 238.016 170.999 237.29 169.222 236.435C166.589 235.155 164.092 233.613 161.769 231.832C158.927 229.637 156.374 227.093 154.169 224.258C153.621 223.582 153.156 222.862 152.652 222.18L152.926 221.988C153.175 222.295 153.35 222.655 153.436 223.04C153.447 223.177 153.404 223.312 153.315 223.416C153.229 223.507 153.114 223.565 152.99 223.582C152.792 223.608 152.591 223.597 152.397 223.55C151.689 223.401 151.018 223.108 150.427 222.69C148.095 221.176 146.075 219.228 144.479 216.952C143.2 215.165 142.094 213.261 141.176 211.265C140.405 209.582 139.901 208.205 139.544 207.249C139.372 206.777 139.264 206.401 139.181 206.146C139.137 206.02 139.101 205.893 139.073 205.763C139.14 205.877 139.193 205.999 139.232 206.126C139.34 206.401 139.474 206.764 139.653 207.21C140.01 208.154 140.564 209.518 141.368 211.176C142.302 213.148 143.418 215.028 144.702 216.792C146.295 219.028 148.295 220.942 150.599 222.435C151.152 222.814 151.774 223.082 152.429 223.225C152.754 223.289 153.137 223.283 153.066 223.059C152.984 222.737 152.832 222.436 152.62 222.18L152.888 221.988C153.385 222.664 153.851 223.378 154.399 224.048C156.583 226.86 159.108 229.392 161.916 231.583C165.779 234.598 170.119 236.946 174.756 238.533C175.393 238.762 175.935 238.909 176.279 239.023C176.46 239.057 176.637 239.106 176.808 239.17Z" fill="#263238"/>
<path d="M263.973 202.971L245.93 216.856C240.626 217.615 237.005 221.242 233.39 225.182C228.627 230.346 229.705 235.517 228.29 240.681C227.915 241.702 227.454 242.689 226.912 243.633C225.835 245.947 223.004 245.258 221.525 245.705C219.759 246.234 218.975 247.075 218.146 248.733C217.748 249.581 217.605 250.528 217.735 251.456C217.865 252.384 218.263 253.255 218.88 253.961C219.957 255.096 221.768 255.312 223.298 255.65C227.563 256.581 231.968 257.525 236.252 256.683C240.537 255.842 244.687 252.73 245.325 248.395C248.366 249.167 251.583 248.835 254.403 247.458C257.2 246.061 259.664 244.078 261.626 241.644C266.089 236.358 269.334 229.626 269.755 222.722C270.176 215.817 267.772 208.753 263.973 202.971Z" fill="#0077B6"/>
<path d="M249.864 216.856C249.812 216.848 249.763 216.831 249.717 216.805L249.303 216.627C248.771 216.393 248.224 216.197 247.664 216.04C245.615 215.461 243.461 215.357 241.365 215.734C239.921 215.987 238.521 216.446 237.209 217.098C235.705 217.855 234.327 218.837 233.122 220.012C230.383 222.735 228.454 226.165 227.55 229.919C226.664 233.69 226.488 237.592 227.034 241.427C227.218 242.31 227.161 243.226 226.868 244.079C226.681 244.488 226.377 244.832 225.994 245.067C225.632 245.281 225.231 245.424 224.815 245.488C224.012 245.628 223.234 245.616 222.513 245.698C221.822 245.764 221.152 245.97 220.544 246.304C219.609 246.801 218.853 247.576 218.379 248.522C217.905 249.467 217.737 250.537 217.898 251.583C218.016 252.354 218.282 253.094 218.682 253.763C218.55 253.609 218.436 253.44 218.344 253.26C218.057 252.745 217.863 252.184 217.77 251.602C217.612 250.677 217.702 249.727 218.032 248.848C218.393 247.927 219 247.122 219.787 246.522C220.574 245.922 221.51 245.549 222.494 245.443C223.24 245.354 224.012 245.361 224.777 245.22C225.166 245.18 225.539 245.042 225.862 244.819C226.184 244.596 226.444 244.296 226.619 243.945C226.882 243.138 226.924 242.275 226.74 241.446C226.175 237.577 226.346 233.636 227.244 229.83C228.157 226.002 230.13 222.509 232.937 219.751C234.17 218.562 235.579 217.571 237.113 216.812C238.453 216.159 239.882 215.706 241.353 215.466C243.481 215.103 245.664 215.242 247.728 215.874C248.478 216.113 249.195 216.442 249.864 216.856Z" fill="#263238"/>
<path d="M222.59 255.191C222.257 254.848 222.02 254.424 221.901 253.961C221.525 252.855 221.556 251.65 221.99 250.565C222.424 249.48 223.231 248.586 224.267 248.045C224.672 247.789 225.139 247.648 225.618 247.636C225.618 247.687 225.102 247.809 224.388 248.274C223.442 248.835 222.707 249.693 222.298 250.714C221.888 251.735 221.828 252.863 222.125 253.923C222.341 254.713 222.641 255.159 222.59 255.191Z" fill="#263238"/>
<path d="M229.463 256.498C229.32 256.459 229.187 256.389 229.074 256.294C228.747 256.071 228.456 255.797 228.213 255.485C227.79 254.971 227.483 254.371 227.315 253.727C227.146 253.083 227.119 252.41 227.236 251.754C227.353 251.099 227.611 250.477 227.992 249.931C228.373 249.385 228.869 248.929 229.444 248.593C229.781 248.384 230.149 248.227 230.534 248.127C230.673 248.078 230.821 248.061 230.967 248.076C230.485 248.281 230.019 248.519 229.571 248.79C229.047 249.13 228.599 249.573 228.253 250.093C227.908 250.613 227.673 251.198 227.563 251.813C227.453 252.427 227.47 253.058 227.614 253.665C227.757 254.273 228.024 254.844 228.398 255.344C228.726 255.753 229.082 256.138 229.463 256.498Z" fill="#263238"/>
<path d="M269.755 222.709C269.691 222.709 269.889 221.58 269.978 219.751C270.034 218.689 270.034 217.625 269.978 216.563C269.889 215.258 269.725 213.96 269.487 212.674C269.031 210.337 268.343 208.052 267.434 205.852C267.09 205.004 266.797 204.322 266.574 203.863C266.449 203.625 266.349 203.375 266.274 203.117C266.434 203.333 266.573 203.563 266.688 203.806C266.943 204.252 267.275 204.915 267.651 205.757C268.63 207.952 269.355 210.251 269.812 212.61C270.057 213.911 270.215 215.228 270.284 216.55C270.334 217.628 270.317 218.707 270.233 219.782C270.183 220.51 270.089 221.234 269.953 221.95C269.91 222.208 269.844 222.462 269.755 222.709Z" fill="#263238"/>
<path d="M230.776 199.362C230.656 199.297 230.545 199.218 230.444 199.126C230.234 198.96 229.941 198.699 229.584 198.355C228.613 197.391 227.773 196.305 227.085 195.123L227.346 195.001C227.882 196.548 228.074 198.193 227.907 199.821C227.852 200.35 227.758 200.874 227.627 201.39L227.531 201.766L227.327 201.434C226.001 199.298 224.84 197.405 224.024 196.034L223.087 194.421C222.962 194.231 222.857 194.028 222.775 193.816C222.933 193.979 223.07 194.161 223.183 194.357L224.222 195.919C225.089 197.258 226.281 199.107 227.62 201.262L227.321 201.307C227.445 200.808 227.534 200.301 227.588 199.789C227.749 198.207 227.578 196.609 227.085 195.097L227.352 194.976C228.013 196.151 228.809 197.244 229.724 198.234C230.374 198.954 230.801 199.33 230.776 199.362Z" fill="#263238"/>
<g opacity="0.3">
<path d="M230.674 222.071C227.124 225.334 224.612 229.568 223.451 234.248C223.242 235.536 222.824 236.78 222.214 237.933C220.728 240.235 217.585 240.815 214.85 240.554L207.448 239.871L204.841 247.917C209.616 248.555 217.974 248.918 217.974 248.918C219.103 246.597 220.773 245.507 223.24 245.437C223.933 245.41 224.621 245.312 225.293 245.144C225.723 244.986 226.099 244.71 226.377 244.346C226.654 243.982 226.823 243.547 226.862 243.091C226.925 242.176 226.841 241.257 226.613 240.369C225.508 233.973 226.967 227.399 230.674 222.071Z" fill="black"/>
</g>
<path opacity="0.3" d="M163.414 232.03L184.739 239.355L185.23 242.472C185.23 242.472 165.071 236.511 163.414 232.03Z" fill="black"/>
<g opacity="0.6">
<path d="M186.18 145.873L130.823 174.779C134.393 193.905 140.915 205.642 155.795 218.182C157.37 219.508 164.198 224.169 166.085 224.997C167.96 225.904 170.115 226.044 172.091 225.386C174.513 224.456 176.062 222.09 177.127 219.725C180.085 213.184 180.525 205.833 180.921 198.686C182.007 200.069 182.728 201.702 183.018 203.436C187.302 197.698 179.677 178.024 180.047 170.877C180.691 158.439 188.469 158.113 186.18 145.873Z" fill="white"/>
</g>
<path d="M130.88 174.932C130.88 174.932 119.405 147.9 119.245 136.112C119.086 124.324 129.057 115.583 129.057 115.583C130.608 108.105 132.805 100.776 135.623 93.6775C139.997 83.0752 153.207 66.7606 156.898 67.9337C160.589 69.1068 162.285 71.1214 162.304 80.6845C162.324 90.2475 163.516 95.7686 163.516 95.7686C163.516 95.7686 172.205 97.6812 174.991 100.805C174.991 100.805 176.961 100.627 179.403 98.4973C181.845 96.3679 199.167 81.2327 204.133 84.8285C209.1 88.4242 207.41 105.625 203.547 112.969C199.683 120.314 193.346 129.775 193.136 130.648C192.925 131.522 195.507 142.481 194.086 148.123C192.664 153.765 188.577 160.874 181.705 166.197C174.832 171.521 154.291 184.176 144.498 181.792C134.705 179.407 130.88 174.932 130.88 174.932Z" fill="#0077B6"/>
<path opacity="0.6" d="M130.88 174.932C130.88 174.932 119.405 147.9 119.245 136.112C119.086 124.324 129.057 115.583 129.057 115.583C130.608 108.105 132.805 100.776 135.623 93.6775C139.997 83.0752 153.207 66.7606 156.898 67.9337C160.589 69.1068 162.285 71.1214 162.304 80.6845C162.324 90.2475 163.516 95.7686 163.516 95.7686C163.516 95.7686 172.205 97.6812 174.991 100.805C174.991 100.805 176.961 100.627 179.403 98.4973C181.845 96.3679 199.167 81.2327 204.133 84.8285C209.1 88.4242 207.41 105.625 203.547 112.969C199.683 120.314 193.346 129.775 193.136 130.648C192.925 131.522 195.507 142.481 194.086 148.123C192.664 153.765 188.577 160.874 181.705 166.197C174.832 171.521 154.291 184.176 144.498 181.792C134.705 179.407 130.88 174.932 130.88 174.932Z" fill="white"/>
<path d="M203.534 112.989C207.397 105.644 209.061 88.4433 204.121 84.8476C199.18 81.2519 181.839 96.3616 179.39 98.5164C176.942 100.671 174.979 100.824 174.979 100.824C174.679 100.494 174.345 100.194 173.984 99.9318C171.035 102.107 168.402 104.682 166.162 107.582C163.246 111.33 161.402 115.798 160.825 120.512C160.609 122.622 160.723 124.86 161.788 126.702C163.114 128.991 165.671 130.272 168.202 131.031C176.981 133.67 193.652 127.206 189.055 147.518C189.055 147.518 185.46 156.819 182.113 162.583C181.252 164.068 180.697 167.326 180.2 168.958C180.774 168.544 183.713 169.398 184.172 169.041C191.051 163.73 200.863 157.132 199.007 151.617C196.043 142.806 192.874 131.522 193.11 130.655C193.346 129.788 199.67 120.327 203.534 112.989Z" fill="#0077B6"/>
<g opacity="0.6">
<path d="M202.967 88.1883C201.787 87.3914 200.2 87.8121 198.899 88.3859C191.827 91.6001 185.788 96.7165 181.456 103.164C181.527 109.921 183.553 116.513 187.29 122.144C187.87 123.011 188.705 123.954 189.738 123.814C190.108 123.711 190.454 123.535 190.756 123.298C191.058 123.06 191.31 122.766 191.497 122.43C197.987 113.639 202.941 103.464 204.159 92.6001C204.337 91.0062 204.293 89.0872 202.967 88.1883Z" fill="white"/>
</g>
<path d="M152.136 116.514C155.024 112.651 157.657 108.589 160.819 104.949C163.265 102.027 166.201 99.5522 169.496 97.6365C167.545 96.8964 165.547 96.2873 163.516 95.8132C163.516 95.8132 162.324 90.3303 162.304 80.729C162.285 71.1277 160.583 69.1258 156.898 67.9783C153.213 66.8307 139.997 83.1198 135.623 93.7221C133.18 99.8416 131.211 106.14 129.733 112.561L129.854 112.619C132.57 114.531 134.718 117.132 137.37 119.122C140.022 121.111 143.51 122.488 146.64 121.391C148.973 120.524 150.65 118.497 152.136 116.514Z" fill="#0077B6"/>
<path d="M152.627 128.876C151.125 127.766 149.44 126.931 147.647 126.409C146.551 126.045 145.212 125.809 144.351 126.581C144.03 126.919 143.814 127.343 143.732 127.802C143.649 128.261 143.703 128.734 143.886 129.163C144.267 130.016 144.839 130.77 145.556 131.369C146.233 132.096 147.078 132.645 148.017 132.969C149.598 133.402 150.389 133.109 151.842 132.37C152.515 132.032 153.137 131.603 153.691 131.095C154.093 130.706 154.15 129.673 152.627 128.876Z" fill="#263238"/>
<path d="M159.416 136.839C156.822 138.847 156.127 141.703 155.317 144.885C154.507 148.066 153.94 151.394 152.18 154.161C150.421 156.928 147.035 159.012 143.892 158.075C143.043 157.791 142.258 157.341 141.583 156.753C140.908 156.164 140.356 155.448 139.959 154.645C139.174 153.032 138.763 151.262 138.754 149.468C138.649 146.719 139.14 143.98 140.195 141.439C141.249 138.898 142.841 136.615 144.861 134.748C145.758 134.884 146.63 135.15 147.45 135.538C148.177 136.023 152.27 138.458 155.247 137.731C158.224 137.005 159.416 136.839 159.416 136.839Z" fill="#0077B6"/>
<path d="M145.901 147.32C145.808 146.761 145.808 146.19 145.901 145.63C146.048 144.269 146.41 142.939 146.972 141.691C147.525 140.436 148.269 139.275 149.178 138.248C149.538 137.806 149.969 137.427 150.453 137.126C150.491 137.17 150.013 137.604 149.362 138.401C148.525 139.448 147.826 140.598 147.284 141.824C146.736 143.043 146.352 144.33 146.143 145.65C145.945 146.676 145.945 147.32 145.901 147.32Z" fill="#263238"/>
<path d="M164.064 133.9C164.014 134.014 163.95 134.121 163.873 134.218C163.672 134.507 163.439 134.773 163.178 135.009C162.188 135.865 161.025 136.496 159.767 136.858C158.914 137.127 158.048 137.353 157.172 137.534C156.173 137.794 155.145 137.929 154.112 137.935C151.72 137.921 149.394 137.153 147.463 135.742C146.986 135.386 146.445 135.126 145.869 134.977C145.308 134.862 144.702 134.977 144.09 134.856C143.511 134.75 142.962 134.519 142.482 134.179C142.002 133.838 141.602 133.397 141.31 132.886C140.751 131.992 140.457 130.957 140.462 129.902C140.472 128.991 140.672 128.092 141.049 127.263C141.586 126.063 142.447 125.036 143.535 124.298C143.833 124.104 144.146 123.936 144.472 123.795C144.583 123.743 144.698 123.703 144.817 123.674C144.817 123.674 144.351 123.884 143.612 124.407C142.581 125.161 141.77 126.178 141.266 127.352C140.921 128.158 140.741 129.025 140.737 129.902C140.747 130.902 141.033 131.88 141.565 132.727C141.836 133.193 142.204 133.597 142.644 133.909C143.084 134.221 143.586 134.436 144.115 134.537C144.664 134.633 145.269 134.537 145.907 134.652C146.526 134.811 147.108 135.088 147.622 135.468C149.5 136.842 151.76 137.597 154.087 137.629C155.098 137.63 156.107 137.508 157.089 137.266C158.027 137.068 158.9 136.871 159.671 136.628C160.909 136.298 162.064 135.714 163.063 134.913C163.415 134.594 163.749 134.256 164.064 133.9Z" fill="#263238"/>
<g opacity="0.6">
<path d="M134.348 109.565C140.496 104.673 147.142 100.442 154.176 96.9417C155.211 96.51 156.153 95.8822 156.949 95.0928C157.867 94.0409 158.186 92.6192 158.473 91.2676C159.537 86.2374 160.602 80.9714 159.225 76.0177C158.741 74.2772 157.638 72.371 155.833 72.2371C154.692 72.1478 153.647 72.8109 152.735 73.5122C146.238 78.4977 142.42 86.1227 138.811 93.4799C136.382 98.4399 133.902 103.578 133.634 109.1" fill="white"/>
</g>
<path d="M146.621 135.092C146.209 134.618 145.993 134.005 146.015 133.377C145.947 132.751 146.113 132.122 146.481 131.611C146.583 131.649 146.309 132.408 146.347 133.358C146.385 134.308 146.717 135.047 146.621 135.092Z" fill="#263238"/>
<g opacity="0.6">
<path d="M171.561 112.338C170.081 112.023 168.544 112.093 167.099 112.542C166.829 112.601 166.576 112.718 166.356 112.884C166.136 113.05 165.954 113.262 165.824 113.505C165.524 114.302 166.257 115.105 166.971 115.571C168.336 116.447 169.894 116.977 171.51 117.113C172.083 117.184 172.664 117.139 173.219 116.979C173.495 116.899 173.751 116.761 173.971 116.576C174.19 116.39 174.369 116.161 174.494 115.902C174.634 115.488 174.648 115.042 174.535 114.62C174.421 114.198 174.185 113.819 173.857 113.53C173.193 112.957 172.421 112.524 171.587 112.255" fill="white"/>
</g>
<g opacity="0.6">
<path d="M150.083 105.536C148.602 105.219 147.065 105.289 145.62 105.74C145.345 105.794 145.085 105.909 144.859 106.075C144.634 106.242 144.447 106.456 144.313 106.702C144.007 107.499 144.74 108.303 145.454 108.768C146.819 109.644 148.377 110.174 149.994 110.311C150.566 110.382 151.147 110.336 151.702 110.177C151.978 110.096 152.233 109.958 152.453 109.772C152.673 109.587 152.851 109.358 152.977 109.099C153.115 108.685 153.129 108.239 153.015 107.818C152.902 107.396 152.667 107.017 152.34 106.728C151.677 106.153 150.905 105.72 150.07 105.453" fill="white"/>
</g>
<path d="M151.377 82.4249C151.422 82.4696 150.625 83.2856 149.592 84.7966C148.99 85.6784 148.453 86.6032 147.985 87.5635C146.835 89.9247 146.116 92.4723 145.862 95.0864C145.761 96.1458 145.736 97.2111 145.786 98.2741C145.881 100.097 146.13 101.213 146.066 101.226C145.968 100.975 145.898 100.714 145.856 100.448C145.785 100.143 145.729 99.8345 145.69 99.5237C145.646 99.1603 145.569 98.7459 145.55 98.2869C145.461 97.207 145.461 96.1217 145.55 95.0418C145.776 92.3913 146.509 89.8091 147.711 87.436C148.197 86.4688 148.762 85.5434 149.401 84.6691C149.662 84.2865 149.936 83.9678 150.166 83.6872C150.365 83.4419 150.578 83.2078 150.803 82.986C150.973 82.7784 151.166 82.5902 151.377 82.4249Z" fill="#263238"/>
<path d="M170.044 123.355C170.033 123.925 169.852 124.479 169.526 124.946C169.2 125.414 168.742 125.774 168.211 125.981C167.68 126.189 167.099 126.234 166.542 126.111C165.985 125.988 165.478 125.703 165.083 125.291C164.688 124.88 164.425 124.36 164.325 123.799C164.226 123.237 164.296 122.659 164.525 122.137C164.754 121.615 165.134 121.173 165.614 120.867C166.095 120.56 166.656 120.403 167.226 120.416C167.604 120.423 167.977 120.505 168.324 120.657C168.67 120.809 168.983 121.028 169.245 121.301C169.507 121.574 169.712 121.896 169.849 122.248C169.986 122.601 170.053 122.977 170.044 123.355Z" fill="#263238"/>
<path d="M148.106 115.698C148.095 116.268 147.915 116.822 147.588 117.289C147.262 117.757 146.804 118.117 146.273 118.324C145.742 118.532 145.161 118.577 144.604 118.454C144.048 118.331 143.54 118.046 143.145 117.634C142.751 117.223 142.487 116.703 142.388 116.142C142.288 115.581 142.358 115.002 142.587 114.48C142.817 113.958 143.196 113.516 143.677 113.21C144.158 112.903 144.719 112.746 145.289 112.759C146.052 112.776 146.777 113.095 147.305 113.646C147.834 114.197 148.122 114.935 148.106 115.698Z" fill="#263238"/>
<path d="M202.38 93.0336C202.298 93.1337 202.209 93.2275 202.112 93.3141L201.315 94.0791C200.62 94.7167 199.626 95.7112 198.446 96.9608C195.362 100.23 192.611 103.799 190.235 107.614L190.05 107.914L189.935 107.582C189.884 107.423 189.821 107.251 189.763 107.079C189.209 105.497 188.679 103.961 188.176 102.52H188.475C187.008 105.717 186.176 109.168 186.027 112.682C185.984 113.707 185.997 114.733 186.065 115.755C186.106 116.124 186.125 116.494 186.123 116.865C186.09 116.775 186.071 116.68 186.065 116.584C186.065 116.399 185.989 116.125 185.951 115.768C185.844 114.741 185.801 113.708 185.823 112.676C185.904 109.122 186.707 105.621 188.182 102.386L188.348 102.023L188.482 102.399L190.076 106.957L190.248 107.461L189.954 107.429C192.338 103.593 195.13 100.025 198.281 96.7887C199.486 95.5582 200.506 94.6083 201.226 93.9708C201.583 93.652 201.864 93.4161 202.068 93.2503C202.162 93.165 202.267 93.0922 202.38 93.0336Z" fill="#263238"/>
<path d="M156.949 184.201C156.999 184.376 157.027 184.556 157.032 184.737C157.07 185.088 157.108 185.61 157.14 186.267C157.206 188.1 157.128 189.936 156.904 191.756L156.873 192.005L156.675 191.845C154.569 190.209 152.765 188.218 151.345 185.961C151.192 185.719 151.052 185.477 150.912 185.241L151.218 185.119L152.882 192.005L153.003 192.502L152.646 192.139C151.35 190.825 150.289 189.298 149.509 187.625C149.292 187.158 149.1 186.679 148.935 186.191C148.868 186.02 148.821 185.843 148.795 185.661C148.886 185.819 148.961 185.986 149.018 186.159C149.158 186.484 149.362 186.962 149.656 187.549C150.476 189.172 151.553 190.653 152.843 191.935L152.607 192.069C152.104 190.048 151.517 187.708 150.892 185.196L150.625 184.112L151.199 185.075C151.339 185.311 151.479 185.547 151.626 185.783C153.027 188.008 154.792 189.982 156.847 191.622L156.618 191.718C156.861 189.913 156.98 188.094 156.975 186.273C156.975 185.636 156.975 185.139 156.975 184.743C156.949 184.564 156.941 184.382 156.949 184.201Z" fill="#263238"/>
<path d="M60.343 237.659C57.3848 239.744 54.3119 241.797 50.8245 242.759C47.3372 243.722 43.308 243.397 40.5028 241.127C36.9071 238.195 36.2568 232.948 36.6776 228.319C37.4872 218.896 41.4718 209.556 39.6549 200.267C38.9692 196.914 37.5536 193.753 35.5086 191.008C33.4635 188.263 30.8393 186.003 27.8222 184.386C24.7848 182.819 21.4397 181.939 18.0241 181.809C14.6086 181.679 11.2062 182.302 8.05849 183.634C4.15038 185.324 0.490915 188.562 0.0255127 192.789C1.30059 196.716 7.14681 199.961 11.0294 201.339C14.912 202.716 19.2282 204.22 21.1663 207.854C22.8494 211.01 22.2118 214.829 21.8038 218.386C21.1556 224.423 21.3875 230.522 22.4923 236.492C23.3211 240.955 24.711 245.488 27.7138 248.905C32.4061 254.248 40.2031 255.848 47.2734 255.089C54.3437 254.331 61.0188 251.596 67.8277 249.562L60.343 237.659Z" fill="#0077B6"/>
<g opacity="0.5">
<path d="M39.0874 203.666C39.3793 202.888 39.6178 202.091 39.8015 201.281C39.7505 200.945 39.6931 200.608 39.6293 200.267C38.9437 196.914 37.5281 193.753 35.483 191.008C33.438 188.263 30.8138 186.003 27.7966 184.386C24.7593 182.819 21.4142 181.939 17.9986 181.809C14.583 181.679 11.1807 182.302 8.03298 183.634C4.12487 185.324 0.465403 188.562 0 192.789C1.27508 196.716 7.1213 199.961 11.0039 201.339C14.8865 202.716 19.2026 204.22 21.1408 207.854C22.2756 209.984 22.3521 212.413 22.1672 214.867C22.8749 214.962 23.5902 214.988 24.3029 214.944C30.8186 214.542 36.7668 209.799 39.0874 203.666Z" fill="white"/>
</g>
<path d="M108.815 246.98C110.728 245.762 115.05 245.443 117.294 245.188C119.538 244.933 121.98 245.571 123.472 247.267C124.964 248.963 125.219 251.787 123.695 253.451C121.955 255.363 118.008 255.325 115.407 255.325C108.394 255.325 104.295 255.191 97.8684 255.325" fill="#0077B6"/>
<path d="M97.8875 255.325C98.0495 255.296 98.2138 255.281 98.3784 255.281L99.7938 255.223C101.018 255.191 102.79 255.153 104.983 255.147H112.691C114.138 255.147 115.662 255.147 117.23 255.147C118.842 255.161 120.445 254.907 121.974 254.394C122.72 254.11 123.372 253.622 123.854 252.985C124.289 252.342 124.532 251.588 124.556 250.811C124.584 250.075 124.448 249.34 124.158 248.662C123.868 247.984 123.431 247.379 122.879 246.891C121.847 246.018 120.576 245.477 119.232 245.335C118.049 245.248 116.86 245.295 115.688 245.475C113.968 245.614 112.262 245.891 110.587 246.304C110.137 246.426 109.695 246.582 109.268 246.769C109.124 246.851 108.975 246.921 108.821 246.98C108.821 246.98 108.853 246.948 108.923 246.903C108.993 246.859 109.095 246.789 109.236 246.712C109.656 246.494 110.096 246.315 110.549 246.177C112.218 245.715 113.925 245.404 115.649 245.246C116.839 245.045 118.048 244.983 119.251 245.061C120.659 245.196 121.992 245.754 123.077 246.661C123.667 247.178 124.134 247.82 124.445 248.54C124.756 249.26 124.903 250.04 124.875 250.824C124.852 251.665 124.588 252.481 124.116 253.177C123.598 253.866 122.895 254.395 122.088 254.7C120.527 255.23 118.886 255.491 117.237 255.472C115.649 255.472 114.132 255.472 112.678 255.472L104.977 255.383H99.7874H98.3721C98.2094 255.376 98.0474 255.356 97.8875 255.325Z" fill="#263238"/>
<path d="M82.0766 153.816C82.0766 154.671 76.9763 167.064 64.3403 177.106C51.7043 187.147 41.2551 198.903 41.4718 214.504C41.6886 230.104 51.3027 247.203 51.3027 247.203L61.2419 255.026L97.8875 255.325C97.8875 255.325 114.77 251.264 116.905 237.372C119.041 223.48 114.77 216.856 114.77 216.856L115.407 202.964C115.407 202.964 125.448 184.374 126.092 178.394C126.736 172.413 121.177 150.61 121.177 150.61L82.0766 153.816Z" fill="#0077B6"/>
<path d="M102.593 194.147C102.288 195.502 102.216 196.899 102.382 198.278C102.598 199.769 103.046 201.216 103.708 202.569C104.515 204.23 105.514 205.79 106.686 207.217C107.929 208.747 109.236 210.124 110.351 211.399C111.467 212.674 112.5 213.86 113.265 214.912C113.882 215.733 114.438 216.598 114.929 217.5C115.107 217.819 115.216 218.08 115.299 218.252C115.382 218.425 115.413 218.52 115.401 218.527C115.184 218.219 114.989 217.897 114.814 217.564C114.286 216.693 113.707 215.854 113.08 215.052C112.296 214.026 111.282 212.872 110.128 211.609C108.974 210.347 107.68 208.97 106.424 207.427C105.24 205.975 104.234 204.387 103.428 202.696C102.77 201.312 102.34 199.831 102.153 198.31C102.03 197.284 102.073 196.244 102.28 195.231C102.332 194.956 102.404 194.685 102.497 194.421C102.517 194.326 102.549 194.234 102.593 194.147Z" fill="#263238"/>
<path d="M116.319 222.486C116.385 222.607 116.438 222.736 116.478 222.868C116.567 223.123 116.72 223.506 116.861 223.997C117.279 225.392 117.575 226.821 117.747 228.268C118.007 230.419 118.007 232.594 117.747 234.745C117.6 236.019 117.351 237.279 117.001 238.513C116.64 239.833 116.151 241.114 115.541 242.339C114.927 243.572 114.197 244.744 113.361 245.839C112.571 246.849 111.702 247.793 110.759 248.663C109.156 250.125 107.371 251.374 105.449 252.38C104.161 253.062 102.817 253.633 101.432 254.088C100.948 254.26 100.559 254.356 100.297 254.433C100.168 254.478 100.033 254.508 99.8958 254.522C100.018 254.459 100.146 254.407 100.278 254.369C100.533 254.267 100.916 254.158 101.394 253.967C102.751 253.464 104.07 252.864 105.34 252.169C107.227 251.148 108.979 249.895 110.555 248.44C111.476 247.573 112.328 246.638 113.106 245.641C113.924 244.561 114.639 243.406 115.241 242.192C115.845 240.977 116.33 239.707 116.689 238.399C117.038 237.19 117.292 235.956 117.447 234.707C117.722 232.577 117.743 230.422 117.511 228.287C117.368 226.847 117.107 225.42 116.733 224.022C116.618 223.525 116.485 223.149 116.414 222.887C116.373 222.756 116.341 222.622 116.319 222.486Z" fill="#263238"/>
<path d="M61.8794 255C61.5611 254.893 61.252 254.761 60.955 254.605C60.5951 254.443 60.244 254.262 59.9031 254.063C59.5014 253.833 59.0296 253.591 58.5515 253.26C58.0733 252.928 57.525 252.622 56.9831 252.182C56.4412 251.742 55.8738 251.302 55.2809 250.811C52.7671 248.6 50.6742 245.952 49.1032 242.995C48.7589 242.307 48.421 241.656 48.166 241.019C47.911 240.381 47.6687 239.795 47.4774 239.247C47.2862 238.698 47.1459 238.188 47.012 237.748C46.8992 237.369 46.8056 236.983 46.7315 236.594C46.6469 236.27 46.5894 235.94 46.5594 235.606C46.6886 235.917 46.7889 236.239 46.859 236.569C46.9355 236.881 47.0439 237.264 47.1905 237.697C47.3372 238.131 47.4774 238.635 47.7006 239.17C47.9237 239.706 48.1277 240.298 48.421 240.911C48.7143 241.523 49.0585 242.186 49.3709 242.823C50.1722 244.271 51.0845 245.654 52.0996 246.961C53.1319 248.25 54.2638 249.457 55.4849 250.569C56.0651 251.066 56.6006 251.551 57.1489 251.946C57.6972 252.342 58.2008 252.73 58.679 253.056C59.1571 253.381 59.6034 253.642 59.9923 253.891C60.3812 254.139 60.7255 254.324 61.0124 254.477C61.3167 254.625 61.6069 254.8 61.8794 255Z" fill="#263238"/>
<path d="M78.9144 210.984C78.6887 210.863 78.4752 210.72 78.2769 210.557C77.888 210.264 77.3333 209.811 76.6639 209.212C74.8666 207.584 73.2719 205.745 71.9143 203.736L72.2012 203.602L73.4252 207.535L74.3497 210.481L74.4963 210.965L74.0946 210.659C71.9651 209.015 70.3106 206.835 69.3004 204.341C69.0089 203.616 68.7786 202.867 68.6118 202.104C68.5544 201.836 68.5289 201.625 68.5034 201.466C68.4779 201.307 68.5034 201.249 68.5034 201.243C68.5961 201.508 68.6727 201.778 68.7329 202.053C68.9399 202.799 69.1998 203.53 69.5107 204.239C70.5572 206.662 72.2079 208.776 74.305 210.379L74.05 210.557C73.7567 209.614 73.4529 208.634 73.1383 207.618C72.7112 206.241 72.3032 204.909 71.9206 203.685L71.6019 202.633L72.2075 203.544C73.5391 205.544 75.0871 207.392 76.8233 209.053C77.4608 209.69 78.0027 210.143 78.3725 210.462C78.5681 210.62 78.7494 210.795 78.9144 210.984Z" fill="#263238"/>
<g opacity="0.3">
<path d="M102.28 194.931C102.369 194.294 103.39 194.294 103.74 194.848C104.003 195.423 104.077 196.066 103.951 196.685C103.734 200.357 106.023 203.697 108.413 206.483C110.804 209.27 113.45 212.132 114.215 215.728C112.302 213.528 110.058 211.673 107.961 209.665C105.863 207.657 103.887 205.432 102.746 202.76C101.604 200.089 101.388 196.895 102.746 194.338" fill="black"/>
</g>
<g opacity="0.3">
<path d="M101.955 253.865C104.888 253.974 107.916 253.68 110.524 252.329C113.131 250.977 115.241 248.421 115.433 245.494L113.233 245.59C110.414 249.269 106.593 252.056 102.229 253.617" fill="black"/>
</g>
<path d="M106.73 103.923C106.73 103.923 90.7917 106.396 87.3873 107.748C83.9828 109.1 70.0335 116.316 67.8404 123.189C67.8404 123.189 66.7502 130.935 70.1738 140.466C71.417 143.941 81.5347 155.697 83.9382 157.042C86.3417 158.388 121.553 152.133 121.553 152.133C123.67 149.264 129.758 139.293 129.707 131.821C129.643 122.443 126.283 111.898 126.283 111.898L106.73 103.923Z" fill="#0077B6"/>
<path d="M119.003 87.7293C118.659 87.6719 114.425 87.7293 111.206 95.0163C109.231 99.4623 106.95 103.765 104.378 107.895L126.373 112.995C126.373 112.995 125.142 101.111 123.925 96.9608C122.707 92.8105 121.464 88.1309 119.003 87.7293Z" fill="#0077B6"/>
<g opacity="0.6">
<path d="M112.207 132.956C105.098 130.17 96.9057 131.407 89.9757 134.556C86.1058 136.31 82.3252 138.847 80.5784 142.73C77.7541 149.105 81.5921 156.647 86.9538 161.059C92.3155 165.471 99.067 167.861 104.881 171.699C110.696 175.537 115.841 181.779 115.082 188.696L115.426 202.913C116 201.849 125.461 184.195 126.086 178.394C126.628 173.293 122.669 156.685 121.496 151.91C122.006 151.273 122.809 149.94 123.765 148.678C123.874 141.786 118.722 135.519 112.207 132.956Z" fill="white"/>
</g>
<path d="M104.849 130.228C104.894 130.068 104.903 129.901 104.876 129.738C104.85 129.574 104.788 129.419 104.695 129.281C104.602 129.144 104.481 129.029 104.339 128.944C104.197 128.858 104.039 128.805 103.874 128.787C102.068 128.561 100.234 128.814 98.557 129.52C98.3678 129.574 98.1925 129.668 98.0429 129.795C97.8933 129.923 97.7729 130.081 97.6899 130.259C97.6537 130.459 97.6673 130.665 97.7296 130.859C97.7918 131.052 97.9008 131.227 98.0469 131.369C98.4765 131.885 99.0294 132.285 99.6545 132.532C100.28 132.778 100.957 132.863 101.623 132.779C102.29 132.694 102.924 132.443 103.468 132.048C104.012 131.654 104.448 131.128 104.735 130.521C104.78 130.426 104.818 130.328 104.849 130.228Z" fill="#263238"/>
<path d="M105.411 138.158C105.185 138.472 104.9 138.738 104.572 138.942C104.244 139.145 103.879 139.282 103.498 139.344C103.13 139.463 102.741 139.507 102.356 139.473C101.97 139.439 101.596 139.328 101.254 139.147C101.979 139.182 102.705 139.141 103.421 139.025C104.112 138.805 104.779 138.515 105.411 138.158Z" fill="#263238"/>
<path d="M68.242 124.643C68.242 124.643 60.7382 98.6375 63.9387 96.4443C67.1391 94.2512 70.0845 96.846 70.0845 96.846L86.6541 109.418L68.242 124.643Z" fill="#0077B6"/>
<g opacity="0.6">
<path d="M70.314 119.389C73.1467 115.466 76.9018 112.3 81.2478 110.171L69.8678 101.245C69.6394 101.007 69.3622 100.821 69.0551 100.7C68.7481 100.579 68.4186 100.526 68.089 100.544C67.7919 100.648 67.5278 100.829 67.3239 101.069C67.1199 101.308 66.9835 101.598 66.9287 101.908C66.5079 103.483 66.9287 106.039 67.2602 107.646C68.1783 111.847 69.1729 115.877 70.314 119.415" fill="white"/>
</g>
<g opacity="0.6">
<path d="M122.605 109.597C118.56 107.28 114.009 105.991 109.35 105.842C111.501 101.723 113.647 97.6047 115.79 93.4863C116.083 92.9188 116.459 92.2941 117.065 92.1665C117.366 92.1396 117.668 92.1934 117.942 92.3222C118.215 92.4511 118.449 92.6504 118.62 92.8997C119.621 94.1174 120.272 96.5209 120.603 98.0638C121.464 102.112 122.203 106.033 122.592 109.597" fill="white"/>
</g>
<path d="M124.76 146.682C124.72 146.816 124.669 146.946 124.607 147.071C124.479 147.352 124.314 147.709 124.103 148.161C123.45 149.485 122.654 150.733 121.731 151.885C120.326 153.577 118.61 154.986 116.676 156.035C116.128 156.316 115.547 156.583 114.948 156.826C114.323 157.075 113.685 157.288 113.035 157.463C112.374 157.636 111.703 157.774 111.027 157.878C110.325 157.971 109.619 158.028 108.911 158.05C107.654 158.087 106.398 157.991 105.162 157.763L105.257 157.45C107.008 158.2 108.588 159.295 109.905 160.67L110.141 160.919H109.797C107.082 160.932 104.384 160.502 101.808 159.644C101.085 159.404 100.374 159.128 99.679 158.815C99.4368 158.706 99.2519 158.611 99.1308 158.553C99.0669 158.525 99.0069 158.489 98.9522 158.445C99.2108 158.525 99.4642 158.621 99.7109 158.732C100.202 158.923 100.929 159.191 101.859 159.478C104.43 160.266 107.108 160.646 109.797 160.606L109.688 160.855C108.394 159.519 106.844 158.459 105.13 157.737L103.708 157.138L105.226 157.425C106.439 157.646 107.672 157.738 108.904 157.699C109.605 157.699 110.3 157.603 110.976 157.533C111.642 157.435 112.302 157.299 112.953 157.125C113.584 156.965 114.205 156.769 114.814 156.539C115.401 156.303 115.975 156.041 116.516 155.767C118.424 154.747 120.125 153.38 121.534 151.738C122.462 150.611 123.277 149.396 123.969 148.11C124.199 147.677 124.384 147.326 124.524 147.052C124.591 146.922 124.67 146.798 124.76 146.682Z" fill="#263238"/>
<path d="M115.158 186.764C115.217 187.007 115.252 187.255 115.26 187.504C115.305 187.982 115.35 188.677 115.401 189.531C115.496 191.246 115.579 193.612 115.617 196.225C115.656 198.839 115.617 201.205 115.617 202.92C115.617 203.774 115.566 204.469 115.535 204.947C115.537 205.198 115.509 205.448 115.452 205.693C115.406 205.447 115.389 205.197 115.401 204.947C115.401 204.399 115.401 203.717 115.401 202.92C115.401 201.128 115.356 198.801 115.331 196.225C115.305 193.65 115.241 191.329 115.209 189.544C115.209 188.741 115.209 188.065 115.171 187.51C115.138 187.263 115.133 187.013 115.158 186.764Z" fill="#263238"/>
<path d="M90.8746 128.729C90.8746 129.3 90.7055 129.857 90.3885 130.331C90.0716 130.805 89.6212 131.174 89.0943 131.392C88.5673 131.61 87.9876 131.667 87.4284 131.555C86.8693 131.443 86.3558 131.168 85.9531 130.765C85.5503 130.361 85.2764 129.847 85.1659 129.288C85.0554 128.728 85.1134 128.149 85.3325 127.622C85.5516 127.096 85.9219 126.646 86.3966 126.33C86.8714 126.014 87.4291 125.846 87.9993 125.848C88.7625 125.849 89.4938 126.154 90.0329 126.694C90.5719 127.234 90.8746 127.966 90.8746 128.729Z" fill="#263238"/>
<path d="M115.235 124.324C115.236 124.894 115.068 125.452 114.752 125.927C114.437 126.401 113.987 126.772 113.46 126.991C112.934 127.21 112.354 127.268 111.795 127.157C111.236 127.047 110.722 126.773 110.318 126.37C109.914 125.967 109.639 125.454 109.527 124.895C109.416 124.336 109.472 123.756 109.69 123.229C109.908 122.702 110.278 122.252 110.752 121.935C111.226 121.618 111.783 121.449 112.353 121.449C113.116 121.449 113.848 121.751 114.389 122.29C114.929 122.829 115.233 123.561 115.235 124.324Z" fill="#263238"/>
<path d="M110.466 130.961C110.497 131.291 110.476 131.625 110.402 131.949C110.266 132.848 109.961 133.713 109.503 134.499C109.351 134.768 109.16 135.013 108.936 135.226C108.684 135.444 108.403 135.626 108.101 135.768C107.419 136.086 106.641 136.131 105.927 135.895C105.545 135.784 105.183 135.612 104.856 135.385C104.511 135.169 104.181 134.93 103.868 134.671C103.206 134.128 102.609 133.509 102.089 132.829L102.382 132.771L102.331 132.943C102.125 133.766 101.753 134.537 101.236 135.21C100.719 135.882 100.07 136.441 99.3284 136.852C98.659 137.196 97.9028 137.336 97.1544 137.253C96.5151 137.177 95.9009 136.959 95.3565 136.616C94.5855 136.101 93.9527 135.405 93.514 134.588C93.3987 134.369 93.2965 134.144 93.208 133.912C93.1506 133.753 93.1251 133.664 93.1379 133.664C93.1506 133.664 93.2973 133.983 93.6288 134.525C94.0864 135.3 94.7224 135.956 95.484 136.437C95.9991 136.761 96.5812 136.964 97.1863 137.03C97.8777 137.094 98.573 136.957 99.1881 136.635C99.8858 136.235 100.496 135.699 100.981 135.058C101.466 134.417 101.817 133.685 102.012 132.905L102.057 132.739L102.153 132.421L102.35 132.682C102.858 133.338 103.435 133.936 104.072 134.467C104.374 134.72 104.691 134.954 105.022 135.168C105.322 135.384 105.656 135.548 106.01 135.653C106.617 135.853 107.273 135.84 107.872 135.618C108.471 135.396 108.977 134.976 109.306 134.429C109.764 133.675 110.092 132.85 110.275 131.987C110.415 131.311 110.441 130.961 110.466 130.961Z" fill="#263238"/>
<g opacity="0.6">
<path d="M97.8111 105.427L93.7691 106.192C94.0532 107.877 94.6477 109.494 95.5223 110.961C95.8283 111.477 96.2937 112.039 96.893 111.994C97.0688 111.972 97.2371 111.909 97.3843 111.811C97.5316 111.712 97.6537 111.581 97.7409 111.426C97.9174 111.118 98.0322 110.778 98.0788 110.426C98.3697 108.761 98.2782 107.051 97.8111 105.427Z" fill="white"/>
</g>
<path d="M135.062 135.251C134.787 135.227 134.516 135.171 134.253 135.086L132.079 134.544C130.243 134.091 127.692 133.536 124.843 133.077C121.993 132.618 119.398 132.37 117.511 132.229L115.28 132.07C115.003 132.065 114.728 132.035 114.457 131.981C114.729 131.935 115.005 131.92 115.28 131.936C115.809 131.936 116.555 131.936 117.524 131.993C122.465 132.229 127.365 133.007 132.136 134.314C133.054 134.569 133.787 134.786 134.291 134.952C134.558 135.024 134.816 135.125 135.062 135.251Z" fill="#263238"/>
<path d="M137.268 130.036C136.983 130.077 136.695 130.087 136.408 130.068H134.074C132.098 130.068 129.376 130.068 126.366 130.126C123.357 130.183 120.629 130.361 118.665 130.483L116.338 130.629C116.052 130.654 115.764 130.654 115.477 130.629C115.753 130.548 116.038 130.499 116.325 130.483C116.873 130.412 117.664 130.323 118.652 130.228C120.616 130.043 123.344 129.858 126.36 129.775C129.376 129.692 132.098 129.737 134.081 129.819C135.062 129.858 135.866 129.902 136.414 129.947C136.701 129.949 136.987 129.979 137.268 130.036Z" fill="#263238"/>
<path d="M137.02 142.691C136.733 142.571 136.458 142.426 136.197 142.258C135.681 141.952 134.922 141.525 133.991 140.983C131.555 139.638 129.048 138.425 126.481 137.349C123.906 136.3 121.278 135.388 118.608 134.614C117.587 134.314 116.752 134.085 116.172 133.925C115.869 133.861 115.572 133.769 115.286 133.651C115.596 133.671 115.904 133.722 116.204 133.804C116.791 133.919 117.638 134.117 118.671 134.391C124.08 135.832 129.269 137.996 134.1 140.823C135.024 141.365 135.764 141.831 136.255 142.162C136.525 142.315 136.781 142.492 137.02 142.691Z" fill="#263238"/>
<path d="M86.737 139C86.5208 139.18 86.2856 139.336 86.0357 139.465L84.104 140.658C82.4464 141.659 80.1768 143.074 77.7286 144.731C75.2805 146.389 73.1256 147.977 71.5827 149.143L69.7211 150.552C69.5067 150.735 69.2738 150.896 69.0262 151.03C69.218 150.815 69.4316 150.621 69.6638 150.45C70.0718 150.093 70.6774 149.589 71.4297 148.977C72.9407 147.76 75.0828 146.14 77.5373 144.476C79.9919 142.812 82.287 141.423 83.9765 140.473C84.8244 139.995 85.5129 139.618 85.9975 139.376C86.2319 139.228 86.4794 139.102 86.737 139Z" fill="#263238"/>
<path d="M86.2844 136.75C86.2026 136.813 86.1125 136.864 86.0166 136.903L85.2197 137.279L82.2806 138.611C79.8006 139.74 76.377 141.321 72.6411 143.138C68.9051 144.955 65.5453 146.67 63.1226 147.919L60.2537 149.405L59.4695 149.8C59.3799 149.852 59.2833 149.89 59.1826 149.915C59.2597 149.846 59.3454 149.788 59.4377 149.743L60.19 149.29C60.8275 148.907 61.8157 148.365 63.0142 147.715C65.405 146.408 68.7521 144.661 72.4944 142.838C76.2368 141.015 79.6795 139.472 82.185 138.375C83.4601 137.833 84.461 137.413 85.1687 137.132L85.9847 136.813C86.0805 136.776 86.1817 136.754 86.2844 136.75Z" fill="#263238"/>
<path d="M82.746 135.8C82.4155 135.929 82.0741 136.029 81.726 136.099C81.0884 136.265 80.113 136.514 78.9399 136.832C76.5938 137.47 73.3678 138.445 69.8933 139.74C66.4187 141.034 63.3394 142.417 61.1462 143.469C60.0497 143.998 59.1635 144.438 58.5578 144.744C58.2491 144.916 57.9272 145.063 57.5952 145.184C57.8812 144.975 58.184 144.789 58.5005 144.629C59.087 144.285 59.954 143.82 61.0506 143.259C66.7336 140.382 72.7214 138.151 78.9017 136.609C80.0875 136.316 81.0502 136.099 81.7196 135.972C82.0575 135.892 82.4004 135.834 82.746 135.8Z" fill="#263238"/>
<path d="M116.95 97.5729C117.02 97.7792 117.065 97.9933 117.084 98.2104C117.141 98.6503 117.205 99.2815 117.243 100.072C117.34 102.159 117.19 104.249 116.797 106.301L116.714 106.741L116.491 106.345C116.351 106.103 116.204 105.835 116.051 105.574L113.775 101.526L114.043 101.487C113.76 102.658 113.595 103.854 113.552 105.058C113.52 105.931 113.552 106.435 113.507 106.441C113.468 106.324 113.447 106.201 113.443 106.078C113.403 105.739 113.381 105.399 113.38 105.058C113.362 103.835 113.49 102.615 113.762 101.424L113.845 101.06L114.03 101.385L116.338 105.408L116.778 106.186L116.472 106.237C116.86 104.208 117.044 102.144 117.02 100.078C117.001 98.5356 116.899 97.5793 116.95 97.5729Z" fill="#263238"/>
<path d="M75.1785 111.796C74.3752 110.589 73.4525 109.466 72.4243 108.443L72.6729 108.354C72.5582 109.437 72.4243 110.649 72.284 111.943C72.284 112.115 72.2458 112.287 72.2267 112.447L72.1629 113.046L71.9143 112.498C71.0536 110.585 70.2949 108.889 69.7658 107.652C69.4524 106.998 69.1861 106.323 68.9688 105.631C69.3544 106.241 69.6912 106.881 69.9761 107.544C70.5563 108.755 71.3469 110.451 72.2139 112.351L71.9015 112.402L71.9589 111.892C72.1055 110.617 72.2522 109.386 72.3797 108.309V108.009L72.5964 108.22C73.3595 108.963 74.0295 109.795 74.5919 110.7C74.8412 111.034 75.0389 111.404 75.1785 111.796Z" fill="#263238"/>
<path d="M139.57 41.3548C138.331 38.5696 136.265 36.2327 133.653 34.6606C131.155 33.0204 128.205 32.2064 125.219 32.3336C122.697 32.5076 120.302 33.5052 118.403 35.1732C116.503 36.8411 115.204 39.0869 114.706 41.5652C112.941 39.8722 110.682 38.7853 108.258 38.462C105.833 38.1388 103.369 38.596 101.222 39.7673C98.633 41.2581 96.5771 43.5237 95.3438 46.2447C93.9776 48.9709 93.4834 52.0515 93.9285 55.0682C94.5526 58.8932 96.3872 62.4172 99.1627 65.1222C102.102 67.8445 106.074 69.585 109.943 70.605C116.446 72.3391 124.945 74.3984 124.945 74.3984C124.945 74.3984 129.771 68.023 134.342 63.0629C137.064 60.1239 139.493 56.5346 140.513 52.6647C141.42 48.8911 141.09 44.9259 139.57 41.3548Z" fill="#0077B6"/>
<path d="M201.539 67.2835C202.01 65.7788 202.01 64.1659 201.539 62.6613C201.132 61.1583 200.265 59.8205 199.058 58.8361C198.407 58.3435 197.664 57.9869 196.872 57.7875C196.08 57.5882 195.256 57.5502 194.449 57.6758C193.488 57.8347 192.581 58.2241 191.803 58.8106C191.728 57.9292 191.458 57.0755 191.013 56.3114C190.598 55.6077 190.045 54.9948 189.388 54.5095C188.731 54.0243 187.982 53.6765 187.188 53.4871C185.671 53.1806 184.097 53.3567 182.687 53.9908C181.223 54.5809 179.977 55.607 179.116 56.9298C178.038 58.6396 177.544 60.653 177.707 62.6677C177.997 64.7644 178.786 66.7608 180.009 68.4884C181.921 71.3892 184.535 75.1061 184.535 75.1061C184.535 75.1061 188.603 74.2773 192.071 73.9266C194.18 73.7744 196.222 73.1185 198.026 72.014C199.678 70.8588 200.91 69.1989 201.539 67.2835Z" fill="#0077B6"/>
</svg>
