<svg width="316" height="303" viewBox="0 0 316 303" fill="none" xmlns="http://www.w3.org/2000/svg">
<path opacity="0.7" d="M34.7841 94.2829C34.7841 94.2829 15.7327 143.483 42.5058 193.025C69.279 242.567 124.424 268.739 168.561 291.118C212.698 313.497 258.529 302.598 280.307 265.944C302.085 229.29 272.216 203.125 272.175 150.856C272.134 98.588 280 84.7504 251.675 40.5932C223.351 -3.56405 153.917 -13.3426 101.409 19.4097C48.9019 52.1621 34.7841 94.2829 34.7841 94.2829Z" fill="white"/>
<path d="M149.031 4.51226C233.765 -3.00445 233.936 44.7813 272.128 89.3348C310.319 133.888 318.485 154.081 304.067 205.441C289.648 256.8 241.2 297.056 181.162 274.246C121.124 251.436 86.7656 273.337 48.9156 253.062C11.0656 232.788 -3.01801 193.674 24.7118 147.548C52.4416 101.423 44.5217 13.8193 149.031 4.51226Z" fill="#0077B6"/>
<path opacity="0.7" d="M149.031 4.51226C233.765 -3.00445 233.936 44.7813 272.128 89.3348C310.319 133.888 318.485 154.081 304.067 205.441C289.648 256.8 241.2 297.056 181.162 274.246C121.124 251.436 86.7656 273.337 48.9156 253.062C11.0656 232.788 -3.01801 193.674 24.7118 147.548C52.4416 101.423 44.5217 13.8193 149.031 4.51226Z" fill="white"/>
<path d="M205.457 24.9616L72.2701 39.7832L92.8742 224.932L226.061 210.11L205.457 24.9616Z" fill="white" stroke="#263238" stroke-linecap="round" stroke-linejoin="round"/>
<path d="M205.457 24.9625L72.2696 39.7842L75.1204 65.4015L208.307 50.5799L205.457 24.9625Z" fill="#BFBFBF" stroke="#263238" stroke-linecap="round" stroke-linejoin="round"/>
<path d="M168.452 36.766L110.956 43.162C110.689 43.1753 110.427 43.2429 110.187 43.3608C109.947 43.4786 109.733 43.6442 109.559 43.8474C109.385 44.0505 109.254 44.2871 109.175 44.5425C109.095 44.7979 109.069 45.0668 109.096 45.3329C109.124 45.5989 109.206 45.8565 109.337 46.0898C109.468 46.3232 109.645 46.5274 109.857 46.69C110.07 46.8527 110.313 46.9703 110.572 47.0358C110.832 47.1012 111.102 47.1131 111.366 47.0707L168.862 40.6746C169.365 40.5986 169.819 40.3306 170.129 39.927C170.438 39.5234 170.58 39.0155 170.523 38.5099C170.467 38.0043 170.216 37.5402 169.825 37.2151C169.434 36.8899 168.932 36.729 168.424 36.766H168.452Z" fill="white"/>
<path d="M154.969 46.3874L126.228 49.5854C126.1 49.5981 125.975 49.6363 125.862 49.6977C125.749 49.7591 125.648 49.8425 125.568 49.9431C125.487 50.0436 125.427 50.1592 125.391 50.2832C125.356 50.4072 125.345 50.537 125.36 50.6651C125.388 50.9241 125.517 51.1616 125.719 51.3255C125.922 51.4895 126.181 51.5665 126.44 51.5397L155.188 48.3417C155.44 48.3037 155.667 48.1697 155.821 47.9679C155.976 47.7661 156.047 47.5122 156.019 47.2594C155.99 47.0065 155.865 46.7745 155.67 46.6119C155.474 46.4494 155.223 46.3689 154.969 46.3874Z" fill="white"/>
<path opacity="0.3" d="M176.453 68.5407L101.116 76.9184C100.923 76.9402 100.746 77.0377 100.625 77.1896C100.504 77.3414 100.448 77.5352 100.47 77.7282C100.492 77.9212 100.589 78.0977 100.741 78.2188C100.893 78.3399 101.087 78.3957 101.28 78.374L176.597 69.9963C176.79 69.9745 176.966 69.877 177.088 69.7251C177.209 69.5733 177.264 69.3795 177.243 69.1865C177.221 68.9935 177.123 68.817 176.972 68.6959C176.82 68.5748 176.626 68.519 176.433 68.5407H176.453Z" fill="black"/>
<path opacity="0.3" d="M177.034 73.7686L90.4146 83.4036C90.2216 83.4254 90.0451 83.5229 89.924 83.6748C89.8029 83.8266 89.7471 84.0204 89.7688 84.2134C89.7906 84.4064 89.8881 84.5829 90.04 84.704C90.1918 84.8251 90.3856 84.8809 90.5786 84.8591L177.198 75.2241C177.297 75.2182 177.393 75.1923 177.482 75.1481C177.57 75.1039 177.648 75.0423 177.712 74.9669C177.776 74.8916 177.824 74.8041 177.853 74.7097C177.882 74.6153 177.892 74.516 177.882 74.4177C177.871 74.3186 177.84 74.2226 177.791 74.1357C177.742 74.0487 177.676 73.9726 177.597 73.9119C177.518 73.8512 177.427 73.8073 177.33 73.7826C177.234 73.758 177.133 73.7532 177.034 73.7686Z" fill="black"/>
<path opacity="0.3" d="M155.01 81.5107L90.9955 88.6311C90.8025 88.6528 90.626 88.7504 90.5049 88.9022C90.3838 89.0541 90.328 89.2478 90.3497 89.4408C90.3715 89.6339 90.469 89.8103 90.6209 89.9314C90.7727 90.0525 90.9665 90.1083 91.1595 90.0866L155.168 82.9662C155.266 82.9603 155.363 82.9345 155.451 82.8903C155.539 82.8461 155.618 82.7844 155.682 82.7091C155.745 82.6337 155.793 82.5462 155.823 82.4518C155.852 82.3574 155.861 82.2581 155.851 82.1599C155.84 82.0614 155.809 81.9661 155.761 81.8796C155.712 81.7932 155.647 81.7174 155.569 81.6569C155.49 81.5963 155.4 81.5521 155.304 81.527C155.209 81.5019 155.109 81.4964 155.01 81.5107Z" fill="black"/>
<path opacity="0.3" d="M195.555 65.7649L187.914 66.6152C186.887 66.7296 186.146 67.6554 186.261 68.6831L187.111 76.3235C187.225 77.3512 188.151 78.0916 189.179 77.9773L196.819 77.127C197.847 77.0126 198.587 76.0868 198.473 75.0591L197.623 67.4187C197.508 66.391 196.583 65.6506 195.555 65.7649Z" stroke="#263238" stroke-linecap="round" stroke-linejoin="round"/>
<path d="M189.273 71.6367L191.788 74.0079L195.095 68.9443" stroke="#0077B6" stroke-width="3" stroke-linecap="round" stroke-linejoin="round"/>
<path opacity="0.3" d="M179.207 93.3054L103.89 101.683C103.697 101.705 103.52 101.802 103.399 101.954C103.278 102.106 103.222 102.3 103.244 102.493C103.266 102.686 103.363 102.862 103.515 102.983C103.667 103.105 103.861 103.16 104.054 103.139L179.371 94.7609C179.467 94.7501 179.559 94.7206 179.644 94.6741C179.728 94.6276 179.802 94.5649 179.862 94.4898C179.922 94.4146 179.966 94.3283 179.993 94.2359C180.02 94.1435 180.028 94.0467 180.017 93.9511C180.006 93.8556 179.977 93.7631 179.93 93.6789C179.884 93.5947 179.821 93.5205 179.746 93.4606C179.671 93.4006 179.584 93.356 179.492 93.3294C179.4 93.3028 179.303 93.2946 179.207 93.3054Z" fill="black"/>
<path opacity="0.3" d="M179.788 98.5329L93.1684 108.168C93.0729 108.179 92.9804 108.208 92.8962 108.255C92.812 108.301 92.7378 108.364 92.6779 108.439C92.6179 108.514 92.5733 108.601 92.5467 108.693C92.5201 108.785 92.5119 108.882 92.5227 108.978C92.5335 109.073 92.563 109.166 92.6095 109.25C92.656 109.334 92.7186 109.408 92.7938 109.468C92.869 109.528 92.9553 109.573 93.0477 109.599C93.1401 109.626 93.2369 109.634 93.3325 109.623L179.952 99.9884C180.145 99.9667 180.322 99.8692 180.443 99.7173C180.564 99.5654 180.62 99.3717 180.598 99.1787C180.576 98.9857 180.479 98.8092 180.327 98.6881C180.175 98.567 179.981 98.5112 179.788 98.5329Z" fill="black"/>
<path opacity="0.3" d="M157.764 106.275L93.7494 113.396C93.5564 113.417 93.3799 113.515 93.2588 113.667C93.1377 113.819 93.0819 114.012 93.1036 114.205C93.1254 114.399 93.2229 114.575 93.3747 114.696C93.5266 114.817 93.7204 114.873 93.9134 114.851L157.922 107.731C158.02 107.725 158.116 107.699 158.205 107.655C158.293 107.611 158.372 107.549 158.436 107.474C158.499 107.398 158.547 107.311 158.576 107.216C158.606 107.122 158.615 107.023 158.605 106.925C158.594 106.826 158.563 106.731 158.515 106.644C158.466 106.558 158.401 106.482 158.322 106.422C158.244 106.361 158.154 106.317 158.058 106.292C157.962 106.267 157.862 106.261 157.764 106.275Z" fill="black"/>
<path opacity="0.3" d="M198.311 90.5227L190.671 91.373C189.643 91.4874 188.903 92.4132 189.017 93.4409L189.867 101.081C189.982 102.109 190.907 102.849 191.935 102.735L199.575 101.885C200.603 101.77 201.344 100.845 201.229 99.8169L200.379 92.1765C200.265 91.1488 199.339 90.4084 198.311 90.5227Z" stroke="#263238" stroke-linecap="round" stroke-linejoin="round"/>
<path d="M192.034 96.4013L194.542 98.7725L197.849 93.709" stroke="#0077B6" stroke-width="3" stroke-linecap="round" stroke-linejoin="round"/>
<path opacity="0.3" d="M181.961 118.069L106.644 126.447C106.463 126.482 106.302 126.583 106.193 126.732C106.084 126.88 106.035 127.064 106.056 127.247C106.076 127.43 106.165 127.598 106.305 127.718C106.444 127.839 106.624 127.902 106.808 127.895L182.125 119.504C182.221 119.493 182.313 119.464 182.397 119.417C182.482 119.371 182.556 119.308 182.616 119.233C182.676 119.158 182.72 119.071 182.747 118.979C182.774 118.887 182.782 118.79 182.771 118.694C182.76 118.599 182.731 118.506 182.684 118.422C182.638 118.338 182.575 118.264 182.5 118.204C182.425 118.144 182.338 118.099 182.246 118.073C182.153 118.046 182.057 118.038 181.961 118.049V118.069Z" fill="black"/>
<path opacity="0.3" d="M182.549 123.297L95.9222 132.932C95.8265 132.941 95.7336 132.97 95.6491 133.016C95.5646 133.062 95.4902 133.124 95.4303 133.199C95.3703 133.274 95.3262 133.361 95.3003 133.453C95.2745 133.546 95.2676 133.643 95.2799 133.738C95.2901 133.834 95.3191 133.927 95.3652 134.011C95.4112 134.095 95.4735 134.17 95.5484 134.23C95.6233 134.291 95.7094 134.335 95.8017 134.362C95.8939 134.389 95.9907 134.398 96.0862 134.388L182.706 124.752C182.805 124.746 182.901 124.719 182.99 124.674C183.078 124.629 183.157 124.567 183.22 124.491C183.284 124.415 183.332 124.327 183.361 124.232C183.39 124.138 183.4 124.038 183.389 123.939C183.379 123.841 183.348 123.746 183.299 123.66C183.251 123.574 183.185 123.498 183.107 123.438C183.028 123.378 182.938 123.335 182.842 123.31C182.746 123.286 182.647 123.282 182.549 123.297Z" fill="black"/>
<path opacity="0.3" d="M160.518 131.038L96.5031 138.159C96.3101 138.181 96.1336 138.278 96.0125 138.43C95.8914 138.582 95.8356 138.776 95.8573 138.969C95.8791 139.162 95.9766 139.338 96.1284 139.459C96.2803 139.58 96.4741 139.636 96.6671 139.614L160.675 132.487C160.868 132.466 161.045 132.37 161.167 132.218C161.289 132.067 161.345 131.874 161.324 131.681C161.304 131.488 161.207 131.311 161.056 131.189C160.904 131.067 160.711 131.011 160.518 131.032V131.038Z" fill="black"/>
<path opacity="0.3" d="M201.067 115.283L193.426 116.133C192.399 116.247 191.658 117.173 191.772 118.201L192.623 125.841C192.737 126.869 193.663 127.609 194.691 127.495L202.331 126.645C203.359 126.53 204.099 125.604 203.985 124.577L203.135 116.936C203.02 115.909 202.094 115.168 201.067 115.283Z" stroke="#263238" stroke-linecap="round" stroke-linejoin="round"/>
<path d="M194.787 121.165L197.295 123.536L200.609 118.466" stroke="#0077B6" stroke-width="3" stroke-linecap="round" stroke-linejoin="round"/>
<path opacity="0.3" d="M184.715 142.834L109.398 151.211C109.217 151.246 109.056 151.348 108.947 151.496C108.838 151.645 108.789 151.829 108.81 152.011C108.83 152.194 108.919 152.363 109.059 152.483C109.198 152.603 109.378 152.666 109.562 152.66L184.879 144.282C184.98 144.279 185.079 144.254 185.17 144.211C185.26 144.167 185.341 144.105 185.407 144.029C185.473 143.953 185.522 143.863 185.552 143.767C185.582 143.671 185.591 143.569 185.58 143.469C185.569 143.369 185.537 143.272 185.486 143.185C185.436 143.098 185.368 143.022 185.286 142.962C185.205 142.903 185.113 142.86 185.014 142.838C184.916 142.816 184.814 142.814 184.715 142.834Z" fill="black"/>
<path opacity="0.3" d="M185.303 148.061L98.6761 157.696C98.5804 157.705 98.4875 157.734 98.403 157.78C98.3185 157.826 98.2441 157.888 98.1841 157.963C98.1242 158.038 98.08 158.125 98.0542 158.218C98.0284 158.31 98.0214 158.407 98.0338 158.502C98.044 158.598 98.073 158.691 98.119 158.775C98.1651 158.859 98.2274 158.934 98.3023 158.994C98.3772 159.055 98.4632 159.1 98.5555 159.127C98.6478 159.153 98.7445 159.162 98.8401 159.152L185.46 149.517C185.654 149.494 185.831 149.396 185.952 149.244C186.074 149.091 186.13 148.897 186.109 148.703C186.087 148.512 185.989 148.336 185.838 148.216C185.687 148.096 185.495 148.04 185.303 148.061Z" fill="black"/>
<path opacity="0.3" d="M163.299 155.803L99.2843 162.923C99.1886 162.933 99.0957 162.961 99.0112 163.007C98.9267 163.053 98.8522 163.115 98.7923 163.19C98.7324 163.266 98.6882 163.352 98.6624 163.445C98.6365 163.537 98.6296 163.634 98.642 163.73C98.6522 163.825 98.6811 163.918 98.7272 164.002C98.7733 164.087 98.8356 164.161 98.9105 164.221C98.9854 164.282 99.0714 164.327 99.1637 164.354C99.256 164.381 99.3527 164.389 99.4483 164.379L163.456 157.258C163.552 157.248 163.645 157.219 163.729 157.173C163.814 157.127 163.888 157.065 163.948 156.99C164.009 156.915 164.054 156.829 164.081 156.737C164.108 156.644 164.116 156.548 164.106 156.452C164.096 156.356 164.068 156.263 164.022 156.178C163.976 156.093 163.914 156.018 163.839 155.958C163.764 155.898 163.677 155.853 163.585 155.826C163.492 155.799 163.395 155.792 163.299 155.803Z" fill="black"/>
<path opacity="0.3" d="M203.823 140.047L196.182 140.897C195.155 141.012 194.414 141.938 194.529 142.965L195.379 150.606C195.493 151.633 196.419 152.374 197.447 152.26L205.087 151.409C206.115 151.295 206.855 150.369 206.741 149.341L205.891 141.701C205.776 140.673 204.851 139.933 203.823 140.047Z" stroke="#263238" stroke-linecap="round" stroke-linejoin="round"/>
<path d="M197.541 145.922L200.049 148.293L203.363 143.229" stroke="#0077B6" stroke-width="3" stroke-linecap="round" stroke-linejoin="round"/>
<path opacity="0.3" d="M187.476 167.591L112.158 175.968C112.063 175.979 111.97 176.008 111.886 176.054C111.802 176.1 111.727 176.162 111.667 176.237C111.607 176.312 111.562 176.398 111.535 176.49C111.508 176.582 111.499 176.679 111.509 176.775C111.52 176.87 111.549 176.963 111.595 177.047C111.641 177.131 111.703 177.206 111.778 177.266C111.853 177.326 111.939 177.371 112.031 177.398C112.123 177.425 112.22 177.434 112.316 177.424L187.633 169.046C187.729 169.036 187.821 169.007 187.906 168.961C187.99 168.915 188.065 168.852 188.125 168.778C188.185 168.703 188.23 168.617 188.257 168.524C188.284 168.432 188.293 168.335 188.282 168.24C188.26 168.047 188.163 167.872 188.012 167.75C187.861 167.629 187.669 167.571 187.476 167.591Z" fill="black"/>
<path opacity="0.3" d="M188.057 172.804L101.43 182.44C101.329 182.443 101.23 182.467 101.139 182.511C101.049 182.555 100.968 182.616 100.902 182.693C100.836 182.769 100.787 182.858 100.757 182.955C100.727 183.051 100.718 183.152 100.729 183.252C100.74 183.353 100.772 183.449 100.823 183.537C100.873 183.624 100.941 183.7 101.023 183.759C101.104 183.819 101.197 183.861 101.295 183.884C101.393 183.906 101.495 183.907 101.594 183.888L188.214 174.253C188.315 174.251 188.415 174.227 188.506 174.184C188.598 174.142 188.68 174.08 188.746 174.004C188.813 173.928 188.863 173.839 188.894 173.742C188.924 173.646 188.934 173.544 188.923 173.443C188.912 173.343 188.881 173.245 188.83 173.158C188.78 173.07 188.712 172.994 188.63 172.934C188.549 172.874 188.456 172.831 188.357 172.809C188.258 172.787 188.156 172.785 188.057 172.804Z" fill="black"/>
<path opacity="0.3" d="M166.033 180.568L102.018 187.688C101.825 187.71 101.648 187.807 101.527 187.959C101.406 188.111 101.35 188.305 101.372 188.498C101.394 188.691 101.491 188.867 101.643 188.988C101.795 189.109 101.989 189.165 102.182 189.144L166.197 182.023C166.389 181.999 166.564 181.9 166.685 181.748C166.805 181.596 166.86 181.403 166.839 181.21C166.829 181.115 166.8 181.022 166.754 180.938C166.707 180.854 166.645 180.78 166.57 180.72C166.495 180.661 166.409 180.616 166.317 180.59C166.224 180.564 166.128 180.556 166.033 180.568Z" fill="black"/>
<path opacity="0.3" d="M206.579 164.813L198.939 165.663C197.911 165.777 197.171 166.703 197.285 167.731L198.135 175.371C198.249 176.399 199.175 177.139 200.203 177.025L207.843 176.175C208.871 176.06 209.612 175.135 209.497 174.107L208.647 166.467C208.533 165.439 207.607 164.698 206.579 164.813Z" stroke="#263238" stroke-linecap="round" stroke-linejoin="round"/>
<path d="M200.295 170.686L202.803 173.058L206.117 167.994" stroke="#0077B6" stroke-width="3" stroke-linecap="round" stroke-linejoin="round"/>
<path opacity="0.3" d="M189.574 186.472L114.256 194.863C114.063 194.885 113.887 194.983 113.766 195.134C113.644 195.286 113.589 195.48 113.61 195.673C113.632 195.866 113.73 196.043 113.882 196.164C114.033 196.285 114.227 196.341 114.42 196.319L189.738 187.941C189.833 187.932 189.926 187.903 190.011 187.858C190.095 187.812 190.17 187.749 190.229 187.674C190.289 187.599 190.334 187.512 190.359 187.42C190.385 187.327 190.392 187.23 190.38 187.135C190.371 187.038 190.344 186.944 190.298 186.858C190.253 186.772 190.191 186.696 190.116 186.634C190.041 186.572 189.954 186.526 189.861 186.498C189.768 186.471 189.67 186.462 189.574 186.472Z" fill="black"/>
<path opacity="0.3" d="M190.154 191.72L103.535 201.355C103.433 201.358 103.334 201.381 103.242 201.424C103.151 201.467 103.069 201.528 103.002 201.604C102.936 201.681 102.885 201.77 102.855 201.866C102.824 201.963 102.814 202.064 102.825 202.165C102.836 202.266 102.868 202.363 102.918 202.451C102.969 202.538 103.037 202.615 103.118 202.675C103.2 202.735 103.293 202.777 103.392 202.799C103.49 202.822 103.593 202.823 103.692 202.804L190.318 193.169C190.499 193.134 190.66 193.032 190.769 192.884C190.878 192.736 190.927 192.552 190.907 192.369C190.886 192.186 190.797 192.017 190.657 191.897C190.518 191.777 190.338 191.714 190.154 191.72Z" fill="black"/>
<path opacity="0.3" d="M168.124 199.455L104.115 206.575C104.02 206.585 103.927 206.614 103.843 206.66C103.758 206.707 103.684 206.769 103.624 206.844C103.563 206.919 103.518 207.005 103.491 207.097C103.464 207.189 103.456 207.286 103.466 207.382C103.489 207.575 103.587 207.752 103.739 207.874C103.891 207.995 104.086 208.052 104.279 208.031L168.288 200.91C168.383 200.9 168.476 200.87 168.56 200.824C168.644 200.777 168.718 200.714 168.778 200.639C168.838 200.564 168.883 200.478 168.909 200.385C168.936 200.293 168.944 200.196 168.933 200.101C168.923 200.005 168.893 199.912 168.847 199.828C168.8 199.744 168.737 199.67 168.662 199.61C168.587 199.55 168.501 199.505 168.408 199.479C168.316 199.452 168.219 199.444 168.124 199.455Z" fill="black"/>
<path opacity="0.3" d="M208.683 183.699L201.043 184.55C200.015 184.664 199.275 185.59 199.389 186.618L200.239 194.258C200.354 195.286 201.28 196.026 202.307 195.912L209.948 195.062C210.975 194.947 211.716 194.021 211.601 192.994L210.751 185.353C210.637 184.326 209.711 183.585 208.683 183.699Z" stroke="#263238" stroke-linecap="round" stroke-linejoin="round"/>
<path d="M202.393 189.581L204.901 191.952L208.215 186.889" stroke="#0077B6" stroke-width="3" stroke-linecap="round" stroke-linejoin="round"/>
<path d="M126.953 138.14C127.019 137.355 126.824 136.569 126.399 135.906L125.559 134.416L123.891 135.359L124.8 136.958C125.251 137.758 125.067 138.25 124.506 138.564C123.946 138.878 123.427 138.796 122.976 137.997L121.028 134.539L118.937 134.949L121.165 138.878C122.183 140.675 123.659 141.188 125.388 140.245C125.663 140.087 125.917 139.897 126.146 139.678C126.049 139.452 126.032 139.201 126.098 138.965C126.164 138.728 126.309 138.522 126.509 138.379C126.643 138.276 126.793 138.195 126.953 138.14Z" fill="#0077B6"/>
<path d="M117.864 133.055L118.261 133.739H120.564L119.559 131.962C119.108 131.163 119.286 130.657 119.846 130.342C120.406 130.028 120.933 130.124 121.384 130.93L122.067 132.126L123.727 131.183L123.112 130.096C122.094 128.306 120.618 127.787 118.889 128.771C118.493 128.985 118.14 129.272 117.851 129.618C118.243 129.744 118.655 129.802 119.067 129.789L117.427 130.404C117.307 130.852 117.284 131.32 117.359 131.777C117.435 132.234 117.607 132.67 117.864 133.055Z" fill="#0077B6"/>
<path d="M130.636 125.771C130.855 125.661 131.084 125.572 131.319 125.504C132.201 125.108 132.399 123.837 132.324 122.942L131.415 121.814L128.969 123.181L130.499 125.873C130.539 125.832 130.585 125.798 130.636 125.771Z" fill="#0077B6"/>
<path d="M141.057 131.122L142.717 130.179L136.369 118.986L134.791 119.875C135.296 119.998 135.658 120.237 135.672 120.606C135.18 120.674 134.579 120.606 134.046 120.701L137.244 128.99L133.198 123.947C133.209 124.059 133.193 124.172 133.15 124.275C133.107 124.379 133.039 124.471 132.952 124.542C132.768 124.672 132.501 124.672 132.358 124.843C132.214 125.013 132.235 125.218 132.112 125.369C131.989 125.519 131.798 125.56 131.647 125.669C131.497 125.779 131.333 126.059 131.162 126.243C131.08 126.33 130.976 126.394 130.861 126.428L135.358 134.355L136.888 133.48L132.399 125.567L138.166 132.756L139.834 131.813L136.465 123.114L141.057 131.122Z" fill="#0077B6"/>
<path d="M145.259 121.378C145.381 121.439 145.489 121.523 145.577 121.626C145.665 121.73 145.731 121.85 145.772 121.979C145.916 121.135 145.732 120.267 145.259 119.553L144.432 118.091C143.414 116.301 142 115.815 140.237 116.813L137.647 118.282L144.002 129.482L145.649 128.546C145.116 128.211 144.521 127.924 144.016 127.562C143.778 127.41 143.583 127.201 143.448 126.954C143.385 126.829 143.358 126.688 143.373 126.549C143.387 126.409 143.442 126.277 143.53 126.168C143.646 126.07 143.787 126.008 143.937 125.987C144.087 125.967 144.24 125.989 144.378 126.052L143.373 124.275L144.207 123.804C144.665 123.555 145.064 123.21 145.375 122.792C145.027 122.239 144.419 121.064 145.259 121.378ZM143.298 122.239L142.464 122.71L140.312 118.918L141.146 118.446C141.706 118.132 142.157 118.214 142.608 119.013L143.565 120.695C144.016 121.46 143.858 121.89 143.298 122.239Z" fill="#0077B6"/>
<path d="M154.683 123.42L153.781 121.821L150.883 123.461L146.647 115.992L146.455 116.143C146.331 116.258 146.181 116.34 146.018 116.382C145.936 116.4 145.849 116.388 145.775 116.348C145.701 116.308 145.644 116.242 145.615 116.163C145.591 116.058 145.591 115.948 145.615 115.842C145.616 115.206 145.415 114.586 145.041 114.072L143.674 114.865L150.022 126.058L154.683 123.42Z" fill="#0077B6"/>
<path d="M153.89 119.505C154.081 119.006 154.676 118.822 155.011 118.371C155.04 118.324 155.068 118.276 155.093 118.227L154.409 117.079L156.138 116.102C156.106 115.993 156.05 115.892 155.974 115.808C155.726 115.687 155.461 115.604 155.188 115.562C155.146 115.477 155.125 115.383 155.126 115.288C155.128 115.194 155.152 115.1 155.197 115.017C155.241 114.933 155.306 114.861 155.384 114.808C155.462 114.754 155.552 114.72 155.646 114.708C155.762 114.708 155.899 114.708 155.988 114.653C156.05 114.579 156.082 114.484 156.077 114.387L155.919 114.113L153.5 115.48L151.737 112.364L154.771 110.635L153.863 109.036L149.079 111.769L153.781 120.058C153.789 119.869 153.826 119.683 153.89 119.505Z" fill="#0077B6"/>
<path d="M160.252 120.263L159.343 118.664L156.302 120.386L155.393 118.821L154.273 119.874L153.883 120.249L155.455 123.017L160.252 120.263Z" fill="#0077B6"/>
<path d="M157.99 107.259C157.99 107.498 157.819 107.765 157.587 107.785C157.469 107.784 157.351 107.765 157.238 107.731C157.027 107.735 156.816 107.714 156.61 107.669C156.565 107.651 156.523 107.625 156.487 107.594L154.478 108.735L155.386 110.341L157.225 109.296L162.691 118.862L164.447 117.865L158.981 108.298L160.826 107.252L159.917 105.653L158.031 106.719C157.997 106.897 158.01 107.081 157.99 107.259Z" fill="#0077B6"/>
<path d="M165.664 114.039L167.03 116.451L168.875 115.405C168.919 115.284 168.974 115.168 169.039 115.057C169.446 114.463 169.993 113.98 170.632 113.649L171.479 113.123L170.919 112.125L167.878 113.854L166.019 110.574L168.438 109.207L167.529 107.608L165.11 108.975L163.347 105.839L166.388 104.117L165.479 102.518L160.696 105.251L164.147 111.339C164.98 110.895 165.397 112.494 165.664 114.039Z" fill="#0077B6"/>
<path d="M130.274 136.152C130.561 136.2 130.732 136.487 130.957 136.678C131.039 136.754 131.134 136.814 131.237 136.856C131.368 136.804 131.496 136.744 131.62 136.678C133.342 135.701 133.704 134.143 132.693 132.346L132.59 132.168L130.226 132.106L130.998 133.473C131.449 134.273 131.271 134.778 130.711 135.093C130.151 135.407 129.625 135.304 129.174 134.505L125.757 128.457C125.299 127.658 125.484 127.159 126.044 126.838C126.604 126.517 127.124 126.626 127.581 127.426L129.898 131.526C130.609 131.349 131.338 131.258 132.071 131.252L129.399 126.544C128.388 124.754 126.864 124.269 125.135 125.246C123.406 126.223 123.044 127.788 124.062 129.578L127.363 135.4C127.571 135.849 127.883 136.242 128.273 136.547C128.662 136.852 129.118 137.061 129.604 137.156C129.6 137.115 129.6 137.074 129.604 137.033C129.522 136.589 129.85 136.07 130.274 136.152Z" fill="#0077B6"/>
<path d="M153.869 104.014L159.234 100.973C157.696 101.396 156.343 102.681 154.758 102.503C154.471 102.428 154.17 102.428 153.883 102.503C153.704 102.619 153.575 102.798 153.522 103.004C153.468 103.211 153.495 103.429 153.596 103.617C153.665 103.763 153.758 103.897 153.869 104.014Z" fill="#0077B6"/>
<path d="M140.415 111.646C140.403 111.528 140.427 111.409 140.483 111.305C140.615 111.35 140.753 111.373 140.893 111.373L142.745 110.327C143.035 109.999 143.365 109.71 143.729 109.466C144.08 109.279 144.451 109.132 144.836 109.029L145.246 108.906L148.662 106.979C148.698 106.909 148.747 106.847 148.806 106.794C148.859 106.759 148.916 106.732 148.977 106.712L145.451 105.646L144.501 106.179L144.398 106.931L140.333 109.104C139.93 109.356 139.482 109.525 139.014 109.603C138.839 109.623 138.662 109.623 138.488 109.603L132.693 112.89C132.739 113.164 132.817 113.433 132.925 113.689C132.585 113.626 132.262 113.493 131.975 113.3L130.786 113.983C131.634 114.544 132.467 115.118 133.281 115.726L140.415 111.646Z" fill="#0077B6"/>
<path d="M165.22 97.5834L162.418 96.0117L161.092 96.7634C161.873 97.5667 162.882 98.1105 163.983 98.3214L165.22 97.5834Z" fill="#0077B6"/>
<path d="M180.287 114.127L169.709 95.4792C169.298 94.758 168.618 94.229 167.818 94.0075C167.017 93.786 166.162 93.8901 165.438 94.297L164.167 95.0213L164.653 95.4928C165.158 95.9985 165.678 96.511 166.149 97.0509L166.791 96.6887C166.88 96.639 166.985 96.6261 167.084 96.653C167.182 96.6798 167.266 96.7442 167.318 96.8322L177.902 115.487C177.952 115.577 177.963 115.683 177.935 115.781C177.907 115.88 177.841 115.963 177.752 116.013L163.354 124.213C164.598 124.289 165.855 124.111 167.099 124.254C167.547 124.311 167.992 124.391 168.431 124.494L179.105 118.439C179.468 118.236 179.786 117.962 180.042 117.634C180.298 117.306 180.487 116.931 180.596 116.53C180.706 116.129 180.736 115.71 180.683 115.298C180.63 114.885 180.495 114.488 180.287 114.127Z" fill="#0077B6"/>
<path d="M115.466 137.86L110.491 129.072C110.466 129.028 110.449 128.979 110.442 128.928C110.435 128.877 110.439 128.825 110.452 128.776C110.466 128.726 110.489 128.68 110.52 128.639C110.551 128.599 110.59 128.565 110.635 128.539L124.985 120.394C124.937 120.284 124.875 120.175 124.834 120.066C125.037 120.057 125.24 120.08 125.436 120.134L131.237 116.847C131.046 116.786 130.861 116.711 130.677 116.642L127.944 115.556L125.757 116.799L128.135 118.255C127.308 117.749 125.62 117.681 124.165 117.701L109.316 126.154C108.593 126.564 108.063 127.244 107.841 128.045C107.62 128.846 107.725 129.702 108.134 130.425L112.452 138.037C112.651 137.983 112.856 137.935 113.054 137.901C113.601 137.822 114.155 137.795 114.707 137.819C114.961 137.817 115.214 137.831 115.466 137.86Z" fill="#0077B6"/>
<path d="M133.192 141.29C133.435 141.508 133.712 141.685 134.012 141.816C134.319 141.952 134.729 142.28 134.49 142.499C133.383 143.005 132.016 142.629 130.93 143.182C130.335 143.469 129.761 144.037 129.126 143.866C129.894 144.332 130.586 144.916 131.176 145.595L158.311 130.206C158.311 130.097 158.345 129.987 158.366 129.871C158.366 129.656 158.416 129.444 158.511 129.251C158.606 129.058 158.744 128.889 158.914 128.757C159.084 128.626 159.281 128.534 159.492 128.49C159.703 128.447 159.92 128.451 160.129 128.504C160.481 128.489 160.833 128.526 161.174 128.614L164.557 126.694C164.093 125.894 163.543 125.147 162.917 124.466L133.192 141.29Z" fill="#0077B6"/>
<path d="M128.798 145.807C128.143 145.594 127.54 145.247 127.028 144.788L121.616 147.863C121.572 147.889 121.524 147.905 121.473 147.912C121.423 147.919 121.372 147.915 121.323 147.902C121.274 147.888 121.228 147.865 121.188 147.834C121.148 147.803 121.115 147.764 121.09 147.72L116.306 139.335C115.848 139.177 115.361 139.121 114.878 139.171C114.325 139.281 113.84 139.923 114.14 140.395C114.423 140.402 114.698 140.484 114.938 140.633C115.179 140.782 115.375 140.992 115.507 141.242C115.212 141.476 114.888 141.671 114.543 141.823L118.643 149.073C118.847 149.439 119.122 149.761 119.452 150.019C119.782 150.278 120.16 150.467 120.564 150.578C120.968 150.688 121.391 150.716 121.806 150.661C122.221 150.605 122.621 150.467 122.983 150.255L130.076 146.23L129.994 146.182C129.602 146.036 129.203 145.91 128.798 145.807Z" fill="#0077B6"/>
<g opacity="0.2">
<path d="M126.953 138.14C127.019 137.355 126.824 136.569 126.399 135.906L125.559 134.416L123.891 135.359L124.8 136.958C125.251 137.758 125.067 138.25 124.506 138.564C123.946 138.878 123.427 138.796 122.976 137.997L121.028 134.539L118.937 134.949L121.165 138.878C122.183 140.675 123.659 141.188 125.388 140.245C125.663 140.087 125.917 139.897 126.146 139.678C126.049 139.452 126.032 139.201 126.098 138.965C126.164 138.728 126.309 138.522 126.509 138.379C126.643 138.276 126.793 138.195 126.953 138.14Z" fill="black"/>
<path d="M117.864 133.055L118.261 133.739H120.564L119.559 131.962C119.108 131.163 119.286 130.657 119.846 130.342C120.406 130.028 120.933 130.124 121.384 130.93L122.067 132.126L123.727 131.183L123.112 130.096C122.094 128.306 120.618 127.787 118.889 128.771C118.493 128.985 118.14 129.272 117.851 129.618C118.243 129.744 118.655 129.802 119.067 129.789L117.427 130.404C117.307 130.852 117.284 131.32 117.359 131.777C117.435 132.234 117.607 132.67 117.864 133.055Z" fill="black"/>
<path d="M130.636 125.771C130.855 125.661 131.084 125.572 131.319 125.504C132.201 125.108 132.399 123.837 132.324 122.942L131.415 121.814L128.969 123.181L130.499 125.873C130.539 125.832 130.585 125.798 130.636 125.771Z" fill="black"/>
<path d="M141.057 131.122L142.717 130.179L136.369 118.986L134.791 119.875C135.296 119.998 135.658 120.237 135.672 120.606C135.18 120.674 134.579 120.606 134.046 120.701L137.244 128.99L133.198 123.947C133.209 124.059 133.193 124.172 133.15 124.275C133.107 124.379 133.039 124.471 132.952 124.542C132.768 124.672 132.501 124.672 132.358 124.843C132.214 125.013 132.235 125.218 132.112 125.369C131.989 125.519 131.798 125.56 131.647 125.669C131.497 125.779 131.333 126.059 131.162 126.243C131.08 126.33 130.976 126.394 130.861 126.428L135.358 134.355L136.888 133.48L132.399 125.567L138.166 132.756L139.834 131.813L136.465 123.114L141.057 131.122Z" fill="black"/>
<path d="M145.259 121.378C145.381 121.439 145.489 121.523 145.577 121.626C145.665 121.73 145.731 121.85 145.772 121.979C145.916 121.135 145.732 120.267 145.259 119.553L144.432 118.091C143.414 116.301 142 115.815 140.237 116.813L137.647 118.282L144.002 129.482L145.649 128.546C145.116 128.211 144.521 127.924 144.016 127.562C143.778 127.41 143.583 127.201 143.448 126.954C143.385 126.829 143.358 126.688 143.373 126.549C143.387 126.409 143.442 126.277 143.53 126.168C143.646 126.07 143.787 126.008 143.937 125.987C144.087 125.967 144.24 125.989 144.378 126.052L143.373 124.275L144.207 123.804C144.665 123.555 145.064 123.21 145.375 122.792C145.027 122.239 144.419 121.064 145.259 121.378ZM143.298 122.239L142.464 122.71L140.312 118.918L141.146 118.446C141.706 118.132 142.157 118.214 142.608 119.013L143.565 120.695C144.016 121.46 143.858 121.89 143.298 122.239Z" fill="black"/>
<path d="M154.683 123.42L153.781 121.821L150.883 123.461L146.647 115.992L146.455 116.143C146.331 116.258 146.181 116.34 146.018 116.382C145.936 116.4 145.849 116.388 145.775 116.348C145.701 116.308 145.644 116.242 145.615 116.163C145.591 116.058 145.591 115.948 145.615 115.842C145.616 115.206 145.415 114.586 145.041 114.072L143.674 114.865L150.022 126.058L154.683 123.42Z" fill="black"/>
<path d="M153.89 119.505C154.081 119.006 154.676 118.822 155.011 118.371C155.04 118.324 155.068 118.276 155.093 118.227L154.409 117.079L156.138 116.102C156.106 115.993 156.05 115.892 155.974 115.808C155.726 115.687 155.461 115.604 155.188 115.562C155.146 115.477 155.125 115.383 155.126 115.288C155.128 115.194 155.152 115.1 155.197 115.017C155.241 114.933 155.306 114.861 155.384 114.808C155.462 114.754 155.552 114.72 155.646 114.708C155.762 114.708 155.899 114.708 155.988 114.653C156.05 114.579 156.082 114.484 156.077 114.387L155.919 114.113L153.5 115.48L151.737 112.364L154.771 110.635L153.863 109.036L149.079 111.769L153.781 120.058C153.789 119.869 153.826 119.683 153.89 119.505Z" fill="black"/>
<path d="M160.252 120.263L159.343 118.664L156.302 120.386L155.393 118.821L154.273 119.874L153.883 120.249L155.455 123.017L160.252 120.263Z" fill="black"/>
<path d="M157.99 107.259C157.99 107.498 157.819 107.765 157.587 107.785C157.469 107.784 157.351 107.765 157.238 107.731C157.027 107.735 156.816 107.714 156.61 107.669C156.565 107.651 156.523 107.625 156.487 107.594L154.478 108.735L155.386 110.341L157.225 109.296L162.691 118.862L164.447 117.865L158.981 108.298L160.826 107.252L159.917 105.653L158.031 106.719C157.997 106.897 158.01 107.081 157.99 107.259Z" fill="black"/>
<path d="M165.664 114.039L167.03 116.451L168.875 115.405C168.919 115.284 168.974 115.168 169.039 115.057C169.446 114.463 169.993 113.98 170.632 113.649L171.479 113.123L170.919 112.125L167.878 113.854L166.019 110.574L168.438 109.207L167.529 107.608L165.11 108.975L163.347 105.839L166.388 104.117L165.479 102.518L160.696 105.251L164.147 111.339C164.98 110.895 165.397 112.494 165.664 114.039Z" fill="black"/>
<path d="M130.274 136.152C130.561 136.2 130.732 136.487 130.957 136.678C131.039 136.754 131.134 136.814 131.237 136.856C131.368 136.804 131.496 136.744 131.62 136.678C133.342 135.701 133.704 134.143 132.693 132.346L132.59 132.168L130.226 132.106L130.998 133.473C131.449 134.273 131.271 134.778 130.711 135.093C130.151 135.407 129.625 135.304 129.174 134.505L125.757 128.457C125.299 127.658 125.484 127.159 126.044 126.838C126.604 126.517 127.124 126.626 127.581 127.426L129.898 131.526C130.609 131.349 131.338 131.258 132.071 131.252L129.399 126.544C128.388 124.754 126.864 124.269 125.135 125.246C123.406 126.223 123.044 127.788 124.062 129.578L127.363 135.4C127.571 135.849 127.883 136.242 128.273 136.547C128.662 136.852 129.118 137.061 129.604 137.156C129.6 137.115 129.6 137.074 129.604 137.033C129.522 136.589 129.85 136.07 130.274 136.152Z" fill="black"/>
<path d="M153.869 104.014L159.234 100.973C157.696 101.396 156.343 102.681 154.758 102.503C154.471 102.428 154.17 102.428 153.883 102.503C153.704 102.619 153.575 102.798 153.522 103.004C153.468 103.211 153.495 103.429 153.596 103.617C153.665 103.763 153.758 103.897 153.869 104.014Z" fill="black"/>
<path d="M140.415 111.646C140.403 111.528 140.427 111.409 140.483 111.305C140.615 111.35 140.753 111.373 140.893 111.373L142.745 110.327C143.035 109.999 143.365 109.71 143.729 109.466C144.08 109.279 144.451 109.132 144.836 109.029L145.246 108.906L148.662 106.979C148.698 106.909 148.747 106.847 148.806 106.794C148.859 106.759 148.916 106.732 148.977 106.712L145.451 105.646L144.501 106.179L144.398 106.931L140.333 109.104C139.93 109.356 139.482 109.525 139.014 109.603C138.839 109.623 138.662 109.623 138.488 109.603L132.693 112.89C132.739 113.164 132.817 113.433 132.925 113.689C132.585 113.626 132.262 113.493 131.975 113.3L130.786 113.983C131.634 114.544 132.467 115.118 133.281 115.726L140.415 111.646Z" fill="black"/>
<path d="M165.22 97.5834L162.418 96.0117L161.092 96.7634C161.873 97.5667 162.882 98.1105 163.983 98.3214L165.22 97.5834Z" fill="black"/>
<path d="M180.287 114.127L169.709 95.4792C169.298 94.758 168.618 94.229 167.818 94.0075C167.017 93.786 166.162 93.8901 165.438 94.297L164.167 95.0213L164.653 95.4928C165.158 95.9985 165.678 96.511 166.149 97.0509L166.791 96.6887C166.88 96.639 166.985 96.6261 167.084 96.653C167.182 96.6798 167.266 96.7442 167.318 96.8322L177.902 115.487C177.952 115.577 177.963 115.683 177.935 115.781C177.907 115.88 177.841 115.963 177.752 116.013L163.354 124.213C164.598 124.289 165.855 124.111 167.099 124.254C167.547 124.311 167.992 124.391 168.431 124.494L179.105 118.439C179.468 118.236 179.786 117.962 180.042 117.634C180.298 117.306 180.487 116.931 180.596 116.53C180.706 116.129 180.736 115.71 180.683 115.298C180.63 114.885 180.495 114.488 180.287 114.127Z" fill="black"/>
<path d="M115.466 137.86L110.491 129.072C110.466 129.028 110.449 128.979 110.442 128.928C110.435 128.877 110.439 128.825 110.452 128.776C110.466 128.726 110.489 128.68 110.52 128.639C110.551 128.599 110.59 128.565 110.635 128.539L124.985 120.394C124.937 120.284 124.875 120.175 124.834 120.066C125.037 120.057 125.24 120.08 125.436 120.134L131.237 116.847C131.046 116.786 130.861 116.711 130.677 116.642L127.944 115.556L125.757 116.799L128.135 118.255C127.308 117.749 125.62 117.681 124.165 117.701L109.316 126.154C108.593 126.564 108.063 127.244 107.841 128.045C107.62 128.846 107.725 129.702 108.134 130.425L112.452 138.037C112.651 137.983 112.856 137.935 113.054 137.901C113.601 137.822 114.155 137.795 114.707 137.819C114.961 137.817 115.214 137.831 115.466 137.86Z" fill="black"/>
<path d="M133.192 141.29C133.435 141.508 133.712 141.685 134.012 141.816C134.319 141.952 134.729 142.28 134.49 142.499C133.383 143.005 132.016 142.629 130.93 143.182C130.335 143.469 129.761 144.037 129.126 143.866C129.894 144.332 130.586 144.916 131.176 145.595L158.311 130.206C158.311 130.097 158.345 129.987 158.366 129.871C158.366 129.656 158.416 129.444 158.511 129.251C158.606 129.058 158.744 128.889 158.914 128.757C159.084 128.626 159.281 128.534 159.492 128.49C159.703 128.447 159.92 128.451 160.129 128.504C160.481 128.489 160.833 128.526 161.174 128.614L164.557 126.694C164.093 125.894 163.543 125.147 162.917 124.466L133.192 141.29Z" fill="black"/>
<path d="M128.798 145.807C128.143 145.594 127.54 145.247 127.028 144.788L121.616 147.863C121.572 147.889 121.524 147.905 121.473 147.912C121.423 147.919 121.372 147.915 121.323 147.902C121.274 147.888 121.228 147.865 121.188 147.834C121.148 147.803 121.115 147.764 121.09 147.72L116.306 139.335C115.848 139.177 115.361 139.121 114.878 139.171C114.325 139.281 113.84 139.923 114.14 140.395C114.423 140.402 114.698 140.484 114.938 140.633C115.179 140.782 115.375 140.992 115.507 141.242C115.212 141.476 114.888 141.671 114.543 141.823L118.643 149.073C118.847 149.439 119.122 149.761 119.452 150.019C119.782 150.278 120.16 150.467 120.564 150.578C120.968 150.688 121.391 150.716 121.806 150.661C122.221 150.605 122.621 150.467 122.983 150.255L130.076 146.23L129.994 146.182C129.602 146.036 129.203 145.91 128.798 145.807Z" fill="black"/>
</g>
<path opacity="0.3" d="M98.027 121.404C102.195 124.466 105.68 139.171 105.995 152.653C106.309 166.136 112.828 188.87 113.607 192.594C114.386 196.318 114.099 201.69 118.937 194.214C123.775 186.738 137.927 173.762 143.824 178.073C149.721 182.385 139.793 196.879 134.415 204.683C129.037 212.486 128.49 226.228 122.046 234.831C115.602 243.435 109.78 256.425 103.466 256.227C97.1523 256.028 55.3321 287.052 55.3321 287.052L56.1521 244.589L93.7356 183.089L98.027 121.404Z" fill="black" fill-opacity="0.7"/>
<path d="M147.255 180.158C147.043 181.49 139.683 191.242 135.358 198.54C131.032 205.838 126.98 218.541 125.893 220.406C124.807 222.272 111.543 233.923 107.908 238.795C104.273 243.667 97.781 245.82 91.2961 250.412C87.1278 253.364 74.1375 268.595 65.384 279.112C60.5186 284.954 56.9584 289.362 56.9584 289.362L1 274.773C1 274.773 5.63302 270.953 11.7284 265.8H11.7694L11.8309 265.753C21.8486 257.245 35.8092 245.239 39.6632 240.708C45.8747 233.41 54.5258 224.739 54.5258 224.739C53.9996 214.605 55.0724 205.004 54.1226 201.355C53.6306 199.448 52.7559 188.604 52.0726 185.269C50.4121 176.748 43.1892 167.919 42.376 164.441C41.5629 160.963 32.0303 146.155 36.6838 143.422C37.5298 142.889 38.5354 142.669 39.5265 142.8C45.8132 143.668 50.9929 158.851 54.5599 162.719C56.0884 164.55 57.4729 166.497 58.701 168.541C61.5163 173.003 64.277 178.019 64.277 178.019C65.3567 173.694 57.5188 158.284 55.3526 143.688C53.1864 129.092 46.9749 121.254 55.3526 120.352C56.041 120.275 56.7378 120.335 57.4026 120.53C63.2998 122.252 65.8555 134.504 69.3815 146.394C69.7095 147.488 72.395 155.339 74.486 161.393C75.8527 165.357 76.9461 168.548 76.9461 168.548C77.2125 161.113 74.896 154.198 74.5134 147.46C74.3494 144.761 75.1967 133.944 74.1307 123.133C73.215 114.011 73.6319 110.314 77.1989 109.597C77.963 109.459 78.7418 109.422 79.5154 109.487C85.6996 109.877 87.8931 126.311 87.8931 132.721C87.8931 136.445 88.5286 143.716 89.0616 149.169C89.4511 153.111 89.7859 156.104 89.7859 156.104C89.7859 156.104 90.8656 147.05 90.0593 127.52C89.8748 123.243 90.1549 120.181 91.8359 118.945C92.7585 118.261 94.091 118.145 96.0043 118.664C101.41 120.127 103.166 140.155 103.166 147.727C103.166 155.298 107.491 168.268 108.304 178.477C109.118 188.686 112.657 201.232 112.657 201.232C112.657 201.232 114.659 202.045 116.006 201.779C117.352 201.512 126.686 187.722 126.686 187.722C131.032 178.286 139.492 175.422 144.098 176.482C146.216 176.967 147.583 178.272 147.255 180.158Z" fill="white"/>
<path opacity="0.4" d="M147.255 180.158C147.043 181.49 139.683 191.242 135.358 198.54C131.032 205.838 126.98 218.541 125.893 220.406C124.807 222.272 111.543 233.923 107.908 238.795C104.273 243.667 97.781 245.82 91.2961 250.412C87.1277 253.364 74.1375 268.595 65.384 279.112C66.3475 275.299 68.5068 270.427 74.1512 265.746C83.9502 257.607 84.5379 251.225 89.8064 245.82C95.0749 240.414 104.355 242.034 107.689 235.57C111.024 229.105 122.654 223.133 125.087 217.454C127.52 211.776 122.654 210.573 126.98 203.74C131.305 196.906 135.501 195.246 134.886 192.567C134.271 189.889 132.453 185.829 136.205 182.447C138.549 180.342 141.303 177.698 144.118 176.481C146.216 176.967 147.583 178.272 147.255 180.158Z" fill="#0077B6"/>
<path opacity="0.4" d="M77.1443 212.233C75.3471 211.331 76.7889 209.534 75.5248 208.038C74.2606 206.541 71.3769 216.204 70.7414 216.238C70.1059 216.272 68.1721 211.325 67.4067 210.833C66.6414 210.341 66.1904 212.411 65.1039 216.238C64.0174 220.064 60.0267 222.005 57.7102 224.738C55.3937 227.472 41.4604 242.334 38.0369 247.917C34.6134 253.5 13.471 264.55 11.831 265.739C21.8487 257.245 35.8092 245.239 39.6633 240.708C45.8748 233.41 54.5258 224.738 54.5258 224.738C53.9997 214.605 55.0725 205.004 54.1227 201.355C53.6307 199.448 52.756 188.604 52.0727 185.269C50.4122 176.748 43.1893 167.919 42.3761 164.441C41.5629 160.963 32.0304 146.155 36.6839 143.421C37.5299 142.889 38.5355 142.669 39.5266 142.8C38.4674 143.551 37.4356 144.631 38.3991 146.216C40.1143 148.991 42.0003 151.908 42.0003 154.977C42.0003 158.045 47.2278 162.363 49.2573 165.227C51.2868 168.09 49.394 167.078 50.747 171.001C52.1 174.923 53.7195 174.103 54.5258 178.067C55.3322 182.03 59.8422 184.558 59.1247 189.499C58.4072 194.439 61.284 201.314 61.284 201.314C61.284 201.314 63.6279 194.651 62.7737 191.064C61.9195 187.476 62.9104 182.952 62.0904 181.736C61.407 180.643 59.5347 173.222 58.6737 168.609C61.489 173.071 64.2497 178.087 64.2497 178.087C65.3294 173.762 57.4915 158.352 55.3253 143.756C53.1592 129.16 46.9476 121.322 55.3253 120.42C56.0137 120.343 56.7105 120.403 57.3753 120.598C60.9492 127.274 58.4619 132.215 57.6692 135.112C56.8013 138.269 61.9674 146.373 62.7327 151.956C63.416 157.17 64.8237 156.63 65.0082 156.535C64.8511 156.678 63.5186 158.038 64.3249 161.906C65.1654 166.006 71.1583 175.743 71.1583 178.463C71.1583 181.183 70.6663 185.658 70.6663 186.984C70.6663 188.31 75.4496 197.179 76.0236 199.503C76.5976 201.826 75.7981 195.027 77.1033 192.669C78.4085 190.312 79.0986 182.085 79.2695 182.529C81.5176 188.241 78.9483 213.122 77.1443 212.233Z" fill="#0077B6"/>
<path opacity="0.4" d="M81.0187 151.171C79.488 153.487 79.529 171.568 76.9187 171.63C75.6545 171.63 75.0395 167.086 74.527 161.38C75.8937 165.343 76.987 168.534 76.987 168.534C77.2535 161.1 74.937 154.184 74.5543 147.447C74.3903 144.748 75.2377 133.93 74.1717 123.12C73.256 113.997 73.6728 110.301 77.2398 109.583C77.9915 112.016 79.8365 114.886 80.308 117.551C80.9504 121.227 79.693 124.268 78.6134 124.726C77.5337 125.184 77.3492 127.555 78.7022 127.903C80.0552 128.252 78.7022 145.506 79.3308 147.72C79.9595 149.934 82.5562 148.889 81.0187 151.171Z" fill="#0077B6"/>
<path opacity="0.4" d="M95.0613 130.931C92.2527 132.168 92.1024 134.382 91.2619 137.559C90.4214 140.737 92.4646 145.377 91.2619 152.668C90.0592 159.959 94.4463 164.661 91.2619 172.82C88.0776 180.979 89.5741 165.986 89.0411 159.153C88.8574 155.825 88.8711 152.489 89.0821 149.162C89.4716 153.105 89.8064 156.098 89.8064 156.098C89.8064 156.098 90.8861 147.044 90.0797 127.514C89.8952 123.237 90.1754 120.175 91.8564 118.938C94.7401 121.556 97.4529 129.879 95.0613 130.931Z" fill="#0077B6"/>
<path d="M56.9585 289.369C56.9585 289.369 84.8044 255.038 91.2961 250.419C97.7878 245.799 104.28 243.66 107.908 238.802C111.537 233.943 124.814 222.306 125.893 220.413C126.973 218.52 131.032 205.817 135.358 198.546C139.683 191.276 147.043 181.463 147.255 180.165C148.198 174.213 133.062 173.946 126.707 187.736C126.707 187.736 117.379 201.519 116.026 201.792C114.673 202.066 112.678 201.246 112.678 201.246C112.678 201.246 109.138 188.706 108.325 178.49C107.512 168.275 103.186 155.291 103.186 147.74C103.186 140.189 101.43 120.14 96.0248 118.678C90.6196 117.216 89.7996 120.919 90.0798 127.561C90.8861 147.091 89.8065 156.145 89.8065 156.145C89.8065 156.145 87.9136 139.178 87.9136 132.762C87.9136 126.345 85.7201 109.911 79.5359 109.528C73.8574 109.166 73.0647 112.357 74.1512 123.195C75.2377 134.033 74.3699 144.822 74.5339 147.522C74.937 154.28 77.2672 161.188 76.9666 168.609C76.9666 168.609 69.935 148.253 69.3952 146.442C65.4797 133.172 62.7668 119.505 55.3321 120.325C46.9544 121.227 53.1728 129.065 55.3321 143.661C57.4915 158.257 65.3362 173.666 64.2565 177.992C64.2565 177.992 57.7716 166.218 54.5394 162.692C50.4394 158.257 44.2484 138.932 36.677 143.394C32.0235 146.128 41.5834 160.983 42.3897 164.462C43.1961 167.94 50.4258 176.762 52.0863 185.29C52.7696 188.624 53.6238 199.469 54.1363 201.375C55.0861 205.024 54.0133 214.625 54.5394 224.759C54.5394 224.759 45.8884 233.41 39.6769 240.708C33.4653 248.006 1.01368 274.773 1.01368 274.773" stroke="#263238" stroke-linecap="round" stroke-linejoin="round"/>
<path d="M112.678 201.238C113.925 204.317 113.925 207.76 112.678 210.839" stroke="#263238" stroke-linecap="round" stroke-linejoin="round"/>
<path d="M114.953 201.812C115.729 202.382 116.304 203.183 116.595 204.101C116.886 205.018 116.878 206.004 116.573 206.917" stroke="#263238" stroke-linecap="round" stroke-linejoin="round"/>
<path d="M89.8064 156.098C89.8064 156.098 91.9726 171.37 91.0228 174.206" stroke="#263238" stroke-linecap="round" stroke-linejoin="round"/>
<path d="M76.9665 168.534C77.1984 170.01 77.1984 171.513 76.9665 172.99" stroke="#263238" stroke-linecap="round" stroke-linejoin="round"/>
<path d="M64.2634 177.992C64.2634 177.992 64.6665 180.295 64.2634 180.835" stroke="#263238" stroke-linecap="round" stroke-linejoin="round"/>
<path d="M132.788 190.968C132.788 190.968 135.235 192.293 136.034 194.214" stroke="#263238" stroke-linecap="round" stroke-linejoin="round"/>
<path d="M77.0554 127.514C77.8484 127.705 78.6765 127.692 79.4635 127.479C80.2505 127.265 80.971 126.856 81.5586 126.291" stroke="#263238" stroke-linecap="round" stroke-linejoin="round"/>
<path d="M77.8822 149.476C77.8822 149.476 82.7476 151.095 84.5106 149.476" stroke="#263238" stroke-linecap="round" stroke-linejoin="round"/>
<path d="M93.7288 154.205C93.7288 154.205 96.9678 152.988 99.134 153.665" stroke="#263238" stroke-linecap="round" stroke-linejoin="round"/>
<path d="M62.7736 158.531C62.7736 158.531 65.3429 155.148 67.3724 156.098" stroke="#263238" stroke-linecap="round" stroke-linejoin="round"/>
<path d="M52.2298 168.534C52.2298 168.534 49.9338 169.614 49.2573 170.762" stroke="#263238" stroke-linecap="round" stroke-linejoin="round"/>
<path d="M54.5258 224.739C55.0891 224.106 55.5881 223.42 56.0155 222.689C56.4187 221.876 55.8788 213.224 56.0155 207.655" stroke="#263238" stroke-linecap="round" stroke-linejoin="round"/>
<path d="M82.8843 258.797C79.6999 262.364 69.9351 268.828 66.0195 272.744" stroke="#263238" stroke-linecap="round" stroke-linejoin="round"/>
<path d="M95.7514 177.992C94.1319 182.591 95.8881 188.399 95.7514 190.976C95.6148 193.552 95.0681 205.326 95.0681 205.326" stroke="#263238" stroke-linecap="round" stroke-linejoin="round"/>
<path d="M81.0187 177.992C78.8593 181.641 79.5359 186.507 80.2124 188.926C80.8889 191.345 80.2875 201.226 80.2875 201.226" stroke="#263238" stroke-linecap="round" stroke-linejoin="round"/>
<path d="M57.7716 189.615C57.5927 191.995 58.0651 194.379 59.1383 196.51" stroke="#263238" stroke-linecap="round" stroke-linejoin="round"/>
<path d="M71.1513 182.454C69.935 186.916 71.5613 188.939 71.698 189.615" stroke="#263238" stroke-linecap="round" stroke-linejoin="round"/>
<path opacity="0.3" d="M180.943 152.988L178.64 139.622C178.539 139.028 178.558 138.42 178.697 137.834C178.837 137.248 179.093 136.696 179.451 136.211C179.809 135.727 180.262 135.32 180.781 135.015C181.301 134.709 181.876 134.512 182.474 134.435L187.633 133.752C187.633 133.752 185.911 130.26 191.453 120.085C196.995 109.91 223.638 82.8844 243.837 128.285C264.037 173.686 282.494 266.203 282.494 266.203C282.494 266.203 227.97 202.708 226.235 199.455C224.499 196.202 207.901 198.15 204.067 189.423C200.234 180.697 192.184 155.796 192.184 155.796L185.952 156.651C184.806 156.806 183.644 156.511 182.71 155.828C181.776 155.145 181.143 154.127 180.943 152.988Z" fill="black" fill-opacity="0.7"/>
<path d="M228.995 122.321L218.533 124.22L203.992 126.865L184.947 130.329C184.582 130.396 184.207 130.391 183.844 130.313C183.481 130.234 183.137 130.085 182.832 129.874C182.526 129.663 182.266 129.393 182.065 129.081C181.864 128.768 181.726 128.419 181.661 128.054L177.479 105.06C177.347 104.322 177.512 103.563 177.939 102.947C178.365 102.331 179.018 101.909 179.754 101.773L190.831 99.7228L206.944 96.7981L223.802 93.7299C224.167 93.6629 224.542 93.6686 224.905 93.7468C225.268 93.825 225.612 93.974 225.918 94.1854C226.223 94.3968 226.484 94.6664 226.685 94.9787C226.886 95.291 227.023 95.64 227.089 96.0055L231.271 119C231.343 119.367 231.341 119.746 231.265 120.113C231.189 120.48 231.041 120.828 230.829 121.137C230.617 121.446 230.346 121.71 230.031 121.914C229.716 122.117 229.364 122.255 228.995 122.321Z" fill="#0077B6"/>
<mask id="mask0_1603_4634" style="mask-type:luminance" maskUnits="userSpaceOnUse" x="177" y="93" width="55" height="38">
<path d="M228.995 122.32L218.533 124.219L203.992 126.864L184.947 130.328C184.582 130.396 184.207 130.39 183.844 130.312C183.481 130.233 183.137 130.084 182.832 129.873C182.526 129.662 182.266 129.392 182.065 129.08C181.864 128.767 181.726 128.418 181.661 128.053L177.479 105.059C177.347 104.321 177.512 103.562 177.939 102.946C178.365 102.33 179.018 101.908 179.754 101.772L190.831 99.7218L206.944 96.7972L223.802 93.729C224.167 93.6619 224.542 93.6677 224.905 93.7458C225.268 93.824 225.612 93.973 225.918 94.1844C226.223 94.3958 226.484 94.6654 226.685 94.9777C226.886 95.2901 227.023 95.639 227.089 96.0045L231.271 118.999C231.343 119.367 231.341 119.745 231.265 120.112C231.189 120.479 231.041 120.827 230.829 121.136C230.618 121.446 230.346 121.709 230.031 121.913C229.716 122.116 229.364 122.254 228.995 122.32Z" fill="white"/>
</mask>
<g mask="url(#mask0_1603_4634)">
<path opacity="0.3" d="M221.595 107.054L218.533 124.219L203.992 126.864C199.783 125.012 192.84 121.786 191.453 120.03C189.799 117.98 190.031 105.899 190.831 99.7216L206.944 96.7969C212.623 100.712 221.595 107.054 221.595 107.054Z" fill="black" fill-opacity="0.7"/>
<path opacity="0.3" d="M187.838 129.802L184.947 130.328C184.582 130.395 184.207 130.389 183.844 130.311C183.481 130.233 183.137 130.084 182.832 129.872C182.526 129.661 182.266 129.391 182.065 129.079C181.864 128.767 181.726 128.418 181.661 128.052L177.479 105.058C177.347 104.321 177.512 103.561 177.939 102.946C178.365 102.33 179.018 101.908 179.754 101.771L182.638 101.245C181.902 101.381 181.25 101.804 180.824 102.42C180.399 103.036 180.235 103.795 180.369 104.532L184.551 127.526C184.617 127.892 184.754 128.241 184.955 128.553C185.156 128.865 185.417 129.135 185.722 129.346C186.027 129.558 186.372 129.707 186.735 129.785C187.098 129.863 187.473 129.869 187.838 129.802Z" fill="black" fill-opacity="0.7"/>
</g>
<path d="M228.995 122.321L218.533 124.22L203.992 126.865L184.947 130.329C184.582 130.396 184.207 130.391 183.844 130.313C183.481 130.234 183.137 130.085 182.832 129.874C182.526 129.663 182.266 129.393 182.065 129.081C181.864 128.768 181.726 128.419 181.661 128.054L177.479 105.06C177.347 104.322 177.512 103.563 177.939 102.947C178.365 102.331 179.018 101.909 179.754 101.773L190.831 99.7228L206.944 96.7981L223.802 93.7299C224.167 93.6629 224.542 93.6686 224.905 93.7468C225.268 93.825 225.612 93.974 225.918 94.1854C226.223 94.3968 226.484 94.6664 226.685 94.9787C226.886 95.291 227.023 95.64 227.089 96.0055L231.271 119C231.343 119.367 231.341 119.746 231.265 120.113C231.189 120.48 231.041 120.828 230.829 121.137C230.617 121.446 230.346 121.71 230.031 121.914C229.716 122.117 229.364 122.255 228.995 122.321Z" stroke="#263238" stroke-linecap="round" stroke-linejoin="round"/>
<path d="M225.888 92.515L182.018 100.573C180.487 100.854 179.473 102.323 179.755 103.854L183.96 126.75C184.241 128.282 185.71 129.295 187.242 129.014L231.112 120.956C232.643 120.675 233.656 119.205 233.375 117.674L229.169 94.7782C228.888 93.2471 227.419 92.2338 225.888 92.515Z" stroke="#263238" stroke-width="0.996394" stroke-linecap="round" stroke-linejoin="round"/>
<path d="M224.661 95.2798L183.319 102.793C182.577 102.928 182.084 103.639 182.219 104.382L186.337 127.039C186.471 127.782 187.183 128.274 187.926 128.139L229.267 120.626C230.009 120.491 230.502 119.78 230.367 119.037L226.25 96.38C226.115 95.6374 225.403 95.1448 224.661 95.2798Z" stroke="#263238" stroke-linecap="round" stroke-linejoin="round"/>
<path d="M231.886 121.794L229.016 122.313C229.749 122.176 230.397 121.753 230.82 121.139C231.242 120.524 231.405 119.767 231.271 119.033L227.089 96.0392C227.023 95.6737 226.885 95.3248 226.685 95.0124C226.484 94.7001 226.223 94.4305 225.918 94.2191C225.612 94.0077 225.268 93.8587 224.905 93.7805C224.542 93.7024 224.167 93.6966 223.802 93.7637L226.692 93.2375C227.43 93.1059 228.189 93.2713 228.805 93.6976C229.421 94.1239 229.843 94.7766 229.979 95.513L234.161 118.507C234.293 119.245 234.127 120.004 233.701 120.62C233.275 121.236 232.622 121.658 231.886 121.794Z" stroke="#263238" stroke-linecap="round" stroke-linejoin="round"/>
<path d="M315 195.45L286.703 271.355C286.703 271.355 274.868 248.805 263.934 227.936C255.201 211.249 247.042 195.601 245.942 193.298C243.475 188.111 235.05 177.246 235.05 177.246C235.05 177.246 226.405 172.299 222.449 163.682C218.492 155.065 214.14 124.24 214.14 124.24C214.14 124.24 202.776 119.962 200.063 118.09C197.35 116.218 194.876 98.9154 194.876 96.9406C194.876 94.9657 197.61 91.0092 197.61 91.0092C197.61 91.0092 197.001 88.1119 200.473 85.1872C201.607 84.2557 202.865 83.4854 204.211 82.898H204.279C204.279 82.898 203.828 76.3585 207.231 74.452C207.394 74.36 207.563 74.2801 207.737 74.2128C210.771 73.0443 220.72 71.5341 220.72 71.5341C222.127 70.2982 223.764 69.353 225.538 68.7529C227.301 68.2678 236.977 70.516 242.382 71.8485C244.555 72.3815 246.038 72.7641 246.038 72.7641C246.038 72.7641 255.181 73.181 256.91 74.2128C258.116 75.0035 259.218 75.9424 260.19 77.0077L260.36 77.2058C260.36 77.2058 268.513 78.9005 270.242 81.8867C271.97 84.8729 272.708 99.6876 271.478 109.316C270.248 118.944 272.455 135.283 272.455 135.283C272.455 135.283 275.004 147.904 276.979 152.694C278.954 157.484 315 195.45 315 195.45Z" fill="white"/>
<path opacity="0.4" d="M263.934 227.936C255.201 211.249 247.042 195.601 245.942 193.298C243.475 188.112 235.05 177.246 235.05 177.246C235.05 177.246 226.405 172.299 222.449 163.682C218.492 155.065 214.14 124.24 214.14 124.24C214.14 124.24 202.776 119.962 200.063 118.09C197.35 116.218 194.876 98.9156 194.876 96.9408C194.876 94.9659 197.61 91.0094 197.61 91.0094C197.61 91.0094 197.001 88.112 200.473 85.1874C200.473 85.9664 200.473 87.2784 200.473 89.3421C200.391 93.2576 205.003 116.867 206.145 116.149C207.286 115.432 209.049 113.703 208.584 112.179C208.584 112.179 206.35 103.016 204.238 82.8982H204.306C204.306 82.8982 203.855 76.3587 207.258 74.4521C206.673 75.8682 206.298 77.3623 206.145 78.887C206.069 82.0713 209.855 109.357 211.338 110.047C212.821 110.737 216.579 107.102 216.579 107.102C216.579 107.102 215.294 99.3598 215.752 96.0593C215.752 96.0593 227.184 103.029 227.526 110.942C227.56 111.81 229.754 124.213 229.754 124.213C229.754 124.213 219.921 142.936 229.959 160.02C229.959 160.02 224.854 156.958 223.638 152.093C223.638 152.093 222.155 166.402 232.699 173.96C232.699 173.96 240.264 166.532 247.732 165.589C247.732 165.589 247.869 166.081 242.867 170.024C237.865 173.966 237.189 175.723 237.189 175.723C237.189 175.723 242.601 170.256 246.926 170.024C246.926 170.024 242.464 175.183 242.601 176.262C242.737 177.342 255.358 198.922 259.95 213.976C261.823 220.263 263.101 224.8 263.934 227.936Z" fill="#0077B6"/>
<path opacity="0.4" d="M228.496 84.7238C228.496 84.7238 232.139 87.4572 233.218 84.7238C233.838 83.2612 234.232 81.7129 234.387 80.1318C234.387 80.1318 235.788 79.4895 237.12 82.8652C238.453 86.2408 251.812 87.1018 254.942 88.8307C258.071 90.5595 259.315 88.8307 259.315 88.8307C260.044 89.4298 260.544 90.262 260.731 91.1869C260.917 92.1119 260.779 93.0729 260.34 93.9079C258.823 97.0444 263.121 97.3246 264.788 95.0149C266.456 92.7052 265.164 101.623 261.044 102.532C261.044 102.532 261.16 106.427 258.509 109.098H260.757C260.757 109.098 254.771 113.848 253.179 114.107C251.586 114.367 259.103 117.025 257.709 117.585C256.315 118.146 252.365 118.098 252.365 118.098C252.365 118.098 254.921 119.868 254.942 121.036C254.962 122.205 253.732 123.086 253.179 122.109C252.625 121.132 248.211 107.137 246.01 101.964C243.81 96.7916 234.722 92.6984 228.496 84.7238Z" fill="#0077B6"/>
<path opacity="0.4" d="M260.183 76.96C252.516 74.8621 242.232 71.8759 242.232 71.8759L242.375 71.8008C244.548 72.3338 246.031 72.7164 246.031 72.7164C246.031 72.7164 255.174 73.1333 256.903 74.1651C258.109 74.9558 259.211 75.8947 260.183 76.96Z" fill="#0077B6"/>
<path d="M249.4 89.0212C242.73 87.6546 237.967 93.3536 237.967 93.3536C237.967 93.3536 244.596 99.3533 246.065 101.929C247.534 104.506 249.974 113.191 249.974 113.191C252.768 113.642 257.921 110.758 259.158 103.105C260.394 95.4514 256.035 90.3811 249.4 89.0212Z" fill="#0077B6"/>
<path d="M286.703 271.356C286.703 271.356 248.436 198.485 245.942 193.298C243.448 188.112 235.05 177.247 235.05 177.247C235.05 177.247 226.405 172.3 222.449 163.683C218.492 155.066 214.14 124.24 214.14 124.24C214.14 124.24 202.776 119.963 200.063 118.09C197.35 116.218 194.876 98.916 194.876 96.9411C194.876 94.9663 197.61 91.0098 197.61 91.0098C197.61 91.0098 196.626 86.3289 204.279 82.8644C204.279 82.8644 203.787 75.6962 207.737 74.1792C210.771 73.0107 220.72 71.5005 220.72 71.5005C222.127 70.2646 223.764 69.3194 225.538 68.7193C228.004 68.036 246.038 72.7305 246.038 72.7305C246.038 72.7305 255.181 73.1474 256.91 74.1792C258.174 75.0132 259.325 76.0078 260.333 77.138C260.333 77.138 268.485 78.8327 270.214 81.8189C271.943 84.8051 272.681 99.6198 271.451 109.248C270.221 118.876 272.428 135.215 272.428 135.215C272.428 135.215 274.977 147.836 276.952 152.626C278.927 157.416 315 195.451 315 195.451" stroke="#263238" stroke-linecap="round" stroke-linejoin="round"/>
<path d="M254.306 123.236C254.306 123.236 252.577 122.867 250.356 114.715C248.135 106.563 247.548 102.75 242.942 97.9186C239.676 94.5019 232.2 88.9191 228.496 84.7234C224.793 80.5277 220.699 77.1383 217.501 79.735C214.946 81.785 213.278 87.1082 215.527 95.3219C218.417 105.873 227.533 110.895 227.533 110.895L229.761 124.166C229.761 124.166 220.091 143.531 230.991 161.811" stroke="#263238" stroke-linecap="round" stroke-linejoin="round"/>
<path d="M237.933 93.3538C237.933 93.3538 242.717 87.6616 249.366 89.0214C256.014 90.3813 260.333 95.4448 259.124 103.105C257.914 110.765 252.734 113.642 249.94 113.191" stroke="#263238" stroke-linecap="round" stroke-linejoin="round"/>
<path d="M220.7 71.4863C219.701 73.9968 218.932 76.5927 218.404 79.2422" stroke="#263238" stroke-linecap="round" stroke-linejoin="round"/>
<path d="M216.654 98.2461C216.654 98.2461 217.228 106.685 218.417 109.275C219.606 111.865 221.581 113.97 222.442 117.304C223.303 120.639 223.433 125.826 223.679 126.57C223.925 127.315 225.353 127.507 225.353 127.507C227.403 127.554 228.23 126.488 229.412 124.862" stroke="#263238" stroke-linecap="round" stroke-linejoin="round"/>
<path d="M204.3 82.8506C204.3 82.8506 206.151 100.877 207.634 108.537C209.117 116.197 211.734 117.304 216.032 119.778C220.331 122.252 222.702 127.295 223.078 128.053C223.453 128.812 224.861 128.894 224.861 128.894C225.688 128.825 226.485 128.551 227.18 128.096C227.874 127.642 228.444 127.021 228.838 126.29" stroke="#263238" stroke-linecap="round" stroke-linejoin="round"/>
<path d="M197.616 90.9961C197.152 91.7136 201.115 110.02 203.179 115.33C205.243 120.639 205.475 121.48 210.935 122.983C216.395 124.486 220.542 126.987 222.018 126.106" stroke="#263238" stroke-linecap="round" stroke-linejoin="round"/>
<path d="M235.535 80.8691C235.535 80.8691 238.371 87.6615 236.498 92.1305" stroke="#263238" stroke-linecap="round" stroke-linejoin="round"/>
<path d="M246.031 72.7168C250.678 74.5541 255.46 76.0321 260.333 77.138" stroke="#263238" stroke-linecap="round" stroke-linejoin="round"/>
<path d="M264.809 96.1895C264.809 96.1895 262.636 100.16 259.342 101.014" stroke="#263238" stroke-linecap="round" stroke-linejoin="round"/>
<path d="M259.335 91.8643C259.335 91.8643 258.556 93.9143 257.73 94.4814" stroke="#263238" stroke-linecap="round" stroke-linejoin="round"/>
<path d="M262.069 108.168C262.069 108.168 257.128 111.906 252.386 112.876" stroke="#263238" stroke-linecap="round" stroke-linejoin="round"/>
<path d="M250.356 114.722C250.356 114.722 252.406 117.312 257.73 117.558" stroke="#263238" stroke-linecap="round" stroke-linejoin="round"/>
<path d="M234.366 103.385C234.366 103.385 239.204 98.7379 241.965 99.3803" stroke="#263238" stroke-linecap="round" stroke-linejoin="round"/>
<path d="M243.837 104.327C243.837 104.327 240.175 107.06 239.505 107.06" stroke="#263238" stroke-linecap="round" stroke-linejoin="round"/>
<path d="M206.124 118.822C206.124 118.822 207.34 119.047 208.29 117.578" stroke="#263238" stroke-linecap="round" stroke-linejoin="round"/>
<path d="M210.45 112.166C210.45 112.166 213.388 110.349 215.308 110" stroke="#263238" stroke-linecap="round" stroke-linejoin="round"/>
<path d="M236.334 173.803C236.942 173.263 242.621 168.671 246.133 167.045" stroke="#263238" stroke-linecap="round" stroke-linejoin="round"/>
<path d="M243.701 171.629C243.297 171.506 240.072 174.882 238.371 176.235" stroke="#263238" stroke-linecap="round" stroke-linejoin="round"/>
<path d="M245.3 181.641C245.3 181.641 256.117 202.141 258.55 210.341" stroke="#263238" stroke-linecap="round" stroke-linejoin="round"/>
<path d="M276.979 152.653C277.895 157.69 280.867 161.4 282.494 163.409" stroke="#263238" stroke-linecap="round" stroke-linejoin="round"/>
<path opacity="0.4" d="M242.881 90.9956C241.309 91.9659 242.963 95.1366 243.837 96.7561C244.712 98.3756 248.621 100.952 249.434 103.384C250.247 105.817 255.386 105.749 256.951 103.384C258.515 101.02 258.317 96.2983 254.053 92.7039C249.789 89.1096 245.115 89.6289 242.881 90.9956Z" fill="white"/>
<path d="M212.876 227.178C205.916 225.995 198.761 227.205 192.578 230.61C186.395 234.016 181.547 239.415 178.827 245.929C176.106 252.443 175.673 259.686 177.597 266.478C179.521 273.27 183.69 279.209 189.423 283.328" stroke="#263238" stroke-linecap="round" stroke-linejoin="round"/>
<path d="M225.893 232.624C222.996 230.532 219.76 228.955 216.326 227.964" stroke="#263238" stroke-linecap="round" stroke-linejoin="round"/>
<path d="M222.75 285.269C226.961 282.937 230.577 279.662 233.312 275.701C236.048 271.74 237.831 267.2 238.52 262.436C239.21 257.671 238.788 252.812 237.287 248.238C235.786 243.663 233.248 239.498 229.87 236.068" stroke="#263238" stroke-linecap="round" stroke-linejoin="round"/>
<path d="M224.26 295.122L226.119 296.762L223.221 286.833" stroke="#263238" stroke-linecap="round" stroke-linejoin="round"/>
<path d="M202.393 288.739C206.987 289.527 211.7 289.273 216.183 287.994L222.066 293.188" stroke="#263238" stroke-linecap="round" stroke-linejoin="round"/>
<path d="M195.232 286.621C196.398 287.124 197.594 287.555 198.812 287.913" stroke="#263238" stroke-linecap="round" stroke-linejoin="round"/>
<path d="M210.101 242.771C213.971 243.433 217.454 245.52 219.863 248.62C222.273 251.721 223.434 255.611 223.119 259.525C222.804 263.439 221.035 267.093 218.16 269.768C215.286 272.444 211.514 273.946 207.588 273.98C203.661 274.013 199.865 272.576 196.945 269.951C194.025 267.325 192.193 263.702 191.811 259.794C191.428 255.886 192.523 251.977 194.878 248.835C197.234 245.693 200.68 243.547 204.539 242.819" stroke="#263238" stroke-linecap="round" stroke-linejoin="round"/>
<path d="M204.539 275.428C199.987 274.653 195.93 272.101 193.26 268.335C190.589 264.569 189.524 259.896 190.298 255.345" stroke="#263238" stroke-linecap="round" stroke-linejoin="round"/>
<path d="M223.836 264.181C222.765 267.144 220.909 269.762 218.468 271.755C216.026 273.747 213.09 275.041 209.971 275.497" stroke="#263238" stroke-linecap="round" stroke-linejoin="round"/>
<path d="M191.637 250.998C193.402 247.162 196.5 244.097 200.355 242.375C204.211 240.653 208.56 240.391 212.595 241.637C216.629 242.883 220.073 245.553 222.286 249.149C224.498 252.746 225.329 257.023 224.622 261.186" stroke="#263238" stroke-linecap="round" stroke-linejoin="round"/>
<path d="M217.912 251.989L218.11 251.777" stroke="#263238" stroke-width="2" stroke-linecap="round" stroke-linejoin="round"/>
<path d="M215.124 254.997L216.511 253.5" stroke="#263238" stroke-width="2" stroke-linecap="round" stroke-linejoin="round"/>
<path d="M198.102 257.204L204.805 266.114L213.907 256.309" stroke="#263238" stroke-width="2" stroke-linecap="round" stroke-linejoin="round"/>
</svg>
